<?xml version="1.0" encoding="iso-8859-1"?>
<!-- Generator: Adobe Illustrator 24.1.0, SVG Export Plug-In . SVG Version: 6.00 Build 0)  -->
<svg version="1.1" id="Calque_1" xmlns="http://www.w3.org/2000/svg" xmlns:xlink="http://www.w3.org/1999/xlink" x="0px" y="0px"
	 width="504px" height="504px" viewBox="0 0 504 504" enable-background="new 0 0 504 504" xml:space="preserve">
<path fill="#1A1A1A" d="M237.45,152.359c1.951-1.369,3.268-2.528,5.945-2.887c0.454-0.061,0.894-0.096,1.275-0.427
	c1.368-1.189,3.07-1.553,4.787-1.69c2.402-0.191,4.813-0.152,7.21,0.197c2.827,0.412,3.618,1.818,4.66,2.035
	c2.327,0.486,3.665,1.708,5.198,2.734c2.589-3.956,3.393-6.965,7.533-10.364c6.872-5.643,10.835-5.641,14.057-11.562
	c0.657-1.207,1.364-2.391,2.106-3.548c4.094-6.379,10.149-2.569,9.369,1.439c-0.21,1.081-0.608,2.09-1.214,3.013
	c-7.055,10.745-15.886,6.341-25.644,18.538c-1.309,1.636-2.11,3.164-2.779,5.241c0.396,0.251,0.807,0.542,1.244,0.785
	c4.001,2.222,4.276,2.386,5.224,2.475c5.261,0.492,5.106,6.513,7.369,11.2c0.224,0.464,0.42,0.95,0.707,1.373
	c1.85,2.721,2.531,5.796,2.404,8.993c-0.098,2.46,0.155,4.754,1.139,7.031c1.351,3.125,0.997,6.052,1.064,8.121
	c0.001,0.028,0.084,0.054,0.233,0.144c1.055-1.328,5.057-7.664,10.461-12.614c1.742-1.596,2.92-1.435,3.326-2.557
	c1.636-4.512,4.29-7.974,8.043-10.935c3.849-3.038,8.035-5.51,12.421-7.658c4.042-1.98,3.895-0.957,5.259-1.975
	c5.143-3.84,4.952-8.651,11.007-13.273c1.691-1.291,3.287-2.687,4.62-4.36c1.707-2.142,4.669-0.357,3.144,2.982
	c-1.673,3.662-4.608,4.153-7.851,8.568c-2.5,3.403-4.386,6.331-7.854,8.828c-1.637,1.179-0.165,1.293-2.623,3.915
	c-7.181,7.66-15.866,11.355-21.657,17.735c-0.555,0.611-0.885,1.267-1.081,2.088c-2.443,10.228-11.45,18.748-11.76,19.334
	c0.666,0.25,0.67,0.262,1.206,0.167c9.52-1.684,16.795-4.095,26.977-9.406c24.092-12.568,39.385-23.611,54.968-32.056
	c17.088-9.259,43.389-21.458,62.697-22.441c4.114-0.209,8.144,0.237,11.929,1.987c6.067,2.805,9.047,6.92,7.737,13.449
	c-1.19,5.926-6.587,12.294-10.664,16.822c-8.999,9.993-10.588,15.927-16.031,25.751c-3.206,5.786-6.889,11.255-11.309,16.19
	c-19.536,21.816-39.075,26.809-42.896,28.827c11.505,6.222,17.921,8.505,24.856,15.398c2.828,2.812,3.781,6.224,3.058,10.096
	c-1.238,6.631-2.977,9.143-2.934,16.882c0.025,4.475,0.042,8.95,0.008,13.425c-0.045,5.907-1.117,13.262-4.073,18.464
	c-2.758,4.853-7.244,8.077-12.868,8.2c-12.765,0.281-29.069-13.435-39.034-21.579c-0.284,0.403,0.039,0.593,0.18,0.804
	c2.503,3.766,4.244,7.858,5.278,12.257c0.79,3.362-0.516,3.084,0.055,4.516c2.295,5.758,6.011,10.434,4.937,16.508
	c-0.268,1.515-2.088,1.655-2.728,0.234c-0.653-1.45-0.265-2.25-3.788-10.503c-0.809-1.895-1.523-3.83-2.37-5.975
	c-1.324-0.578-2.15-2.271-2.813-3.671c-3.079-6.504-7.26-12.209-12.445-17.188c-2.95-2.833-4.715-5.759-6.56-8.864
	c-0.451,0.027-0.905,0.035-1.355,0.084c-1.515,0.163-2.833-0.291-3.981-1.261c-1.456-1.23-9.678-9.337-11.816-11.784
	c-2.196-2.513-4.652-4.755-7.139-6.966c-1.009-0.897-0.847-0.643-1.745-0.643c0.192,0.337,0.265,0.553,0.409,0.701
	c0.358,0.371,0.775,0.686,1.121,1.067c1.284,1.416,1.261,2.756-0.1,4.071c-0.607,0.587-1.711,1.264-2.431,1.701
	c0.307,1.435,9.203,6.791,15.062,24.68c0.888,2.71,1.959,6.509,2.13,9.369c0.12,2.006,0.062,2.379-0.603,4.259
	c2.471,5.093,4.605,9.995,6.944,16.973c1.1,3.284,1.67,6.671,1.674,10.142c0.005,4.186-0.86,3.057-0.278,5.091
	c1.101,3.847,3.108,8.356,4.831,11.946c2.337,4.869,2.895,9.985,2.098,15.274c-0.555,3.688-1.123,7.371-1.228,11.107
	c-0.008,0.284-0.003,0.605-0.131,0.84c-0.154,0.283-0.399,0.591-0.681,0.717c-1.011,0.45-2.307-0.109-2.711-1.146
	c-0.143-0.368-0.222-0.774-0.252-1.169c-0.484-6.318-0.149-4.057,0.128-12.719c0.315-9.882-4.233-13.033-7.526-23.982
	c-1.422-0.913-2.237-1.314-3.456-3.391c-1.078-1.837-1.908-3.789-2.589-5.802c-2.911-8.606-3.326-14.207-4.261-22.586
	c-0.064-0.093-0.109-0.212-0.196-0.274c-4.185-3.032-4.94-6.137-11.19-21.761c-0.205-0.513-0.472-1-0.838-1.766
	c-0.784,2.712-0.829,3.776-1.404,5.375c-2.339,6.497-0.458,9.368-2.08,15.265c-0.611,2.223-0.758,4.519-1.043,6.794
	c-0.666,5.33-0.847,5.788-2.77,10.229c-2.633,6.081-3.281,10.225-7.516,14.96c-4.794,5.361-6.619,8.728-11.787,10.475
	c-2.608,0.882-3.712,2.952-7.243,4.224c-1.663,0.599-2.941,1.74-3.978,3.169c-3.65,5.035-4.528,6.216-5.654,7.109
	c-1.704,1.353-3.887,1.24-5.478-0.254c-2.932-2.755-4.143-5.229-4.505-5.6c-1.201-1.227-2.395-2.463-3.641-3.644
	c-1.321-1.251-2.092-0.597-5.284-3.157c-3.333-2.673-5.847-1.98-8.987-5.573c-2.529-2.893-5.055-5.79-7.506-8.748
	c-2.687-3.242-3.538-7.768-6.475-14.191c-1.208-2.642-1.841-5.415-2.15-8.286c-1.288-11.952-1.888-6.1-1.986-16.874
	c-0.036-3.99-1.566-5.542-2.343-10.364c-0.036-0.22-0.125-0.432-0.213-0.727c-0.577,0.473-0.701,1.113-0.925,1.674
	c-5.909,14.763-6.911,18.74-11.341,21.766c-0.905,8.502-2.108,19.859-6.568,28.055c-0.866,1.591-1.928,2.994-3.668,3.776
	c-0.338,0.975-0.621,1.969-1.022,2.913c-4.261,10.03-5.302,11.607-6.004,14.799c-1.425,6.479,0.189,9.561-0.355,18.012
	c-0.044,0.684-0.116,1.379-0.287,2.039c-0.304,1.172-1.562,1.8-2.718,1.421c-1.458-0.478-0.258-1.349-2.044-12.297
	c-1.844-11.309,2.51-15.077,6.492-26.412c0.44-1.251,0.665-2.454,0.304-3.836c-0.605-2.314-0.152-4.678,0.153-7.009
	c0.435-3.322,1.533-6.464,2.713-9.576c1.565-4.129,3.168-8.243,5.169-12.187c0.273-0.538,0.426-1.031,0.123-1.626
	c-0.942-1.853,0.034-6.653,0.602-8.803c3.439-13.003,9.137-22.097,17.516-29.601c1.381-1.237,1.335-0.948,1.186-2.485
	c-0.924,0.36,0.014-0.215-3.3,2.023c-2.188,1.477-3.931,0.099-3.899-2.005c0.006-0.394-0.038-0.789-0.057-1.152
	c-0.789-0.396-0.064-0.136-15.299,14.917c-0.245,0.242-0.502,0.472-0.743,0.717c-1.545,1.571-3.349,2.381-5.592,1.931
	c-0.164-0.033-0.34-0.004-0.56-0.004c-1.107,1.679-3.027,5.425-6.655,8.912c-8.486,8.155-11.276,15.248-13.145,18.572
	c-0.693,1.232-0.796,1.334-2.221,2.279c-0.929,3.69-2.894,7.098-4.174,10.777c-1.83,5.263-1.662,6.823-3.358,6.633
	c-0.583-0.065-0.929-0.442-1.116-0.949c-0.365-0.988-0.425-2.016-0.286-3.055c0.659-4.946,1.391-5.278,5.177-13.768
	c0.665-1.492-0.835-0.885-0.012-4.353c1.001-4.217,2.604-8.188,4.973-11.835c0.235-0.362,0.451-0.737,0.496-1.271
	c-13.896,10.84-35.344,29.736-48.482,17.644c-8.624-7.938-7.554-23.955-7.449-35.339c0.098-10.659-2.478-12.324-3.104-19.11
	c-0.285-3.087,0.584-5.777,2.626-8.1c6.31-7.176,18.147-11.938,25.428-16.066c-3.421-1.506-6.501-2.573-9.938-4.162
	c-16.451-7.606-31.957-20.561-42.102-37.153c-2.552-4.174-5.252-9.409-7.386-13.795c-5.608-11.525-10.806-14.445-17.882-24.545
	c-1.354-1.932-2.409-4.039-3.131-6.294c-3.817-11.939,7.85-17.903,20.278-16.995c23.952,1.751,57.489,19.268,78.127,32.054
	c19.854,12.301,23.34,14.334,43.108,24.718c4.28,2.248,8.88,3.685,13.486,5.092c2.912,0.89,5.901,1.432,8.89,1.972
	c0.331,0.06,0.677,0.04,1.207,0.066c-2.164-3.243-8.232-8.473-11.287-17.803c-0.196-0.598-0.404-1.202-0.506-1.82
	c-0.138-0.836-0.554-1.476-1.113-2.082c-5.545-6.007-11.539-8.196-20.344-16.372c-0.634-0.589-2.588-2.62-2.743-3.477
	c-0.185-1.027-0.859-1.543-1.608-2.099c-2.842-2.108-4.815-4.863-7.02-7.973c-3.653-5.152-7.936-6.247-8.643-10.442
	c-0.157-0.93,0.096-1.711,0.896-2.254c0.689-0.467,1.431-0.448,2.076,0.066c0.813,0.649,1.827,2.387,4.569,4.414
	c2.772,2.048,4.923,4.611,6.578,7.625c1.409,2.566,3.945,6.304,6.827,6.85c1.273,0.241,2.518,0.793,3.69,1.379
	c4.263,2.131,8.361,4.529,12.124,7.49c3.554,2.797,6.306,6.159,7.892,10.423c0.311,0.836,0.715,1.487,1.661,1.8
	c0.625,0.207,1.196,0.689,1.693,1.152c6.386,5.953,9.187,10.991,10.73,12.84c0.405-0.279,0.272-0.586,0.254-0.843
	c-0.221-3.152,0.298-6.178,1.58-9.061c1.328-2.984-0.06-4.855,0.9-9.342c1.071-5.008,2.253-3.829,4.155-10.135
	c1.063-3.524,2.133-7.203,5.811-7.46c0.787-0.055,1.415-0.337,2.063-0.728c0.882-0.532,1.815-0.98,2.722-1.47
	c0.599-0.324,1.192-0.659,1.861-1.03c-0.114-0.398-0.179-0.723-0.299-1.025c-0.705-1.773-1.691-3.377-2.917-4.841
	c-6.138-7.331-12.288-8.573-15.024-9.9c-4.88-2.366-7.604-3.771-10.444-8.55c-0.347-0.584-0.587-1.245-0.789-1.898
	c-0.523-1.687-0.198-3.179,1.168-4.367c2.202-1.914,5.21-1.195,6.739,0.683c2.186,2.685,2.758,3.936,3.409,5.147
	c3.121,5.803,7.184,5.973,13.925,11.45c3.579,2.908,4.677,5.43,7.179,9.768C237.119,151.816,237.237,152.004,237.45,152.359z
	 M359.5,277.895c-0.364,0.048-0.255,0.019-0.393,0.138c0.164-0.014,0.049,0.032,0.415-0.137c-0.354,0.678,0.293,0.64,3.539,3.146
	c14.263,11.008,24.49,26.975,33.596,36.093c0.225-0.36,0.42-0.577,0.509-0.831c1.539-4.405,2.693-7.321,3.027-19.062
	c0.006-0.212-0.094-0.427-0.122-0.546c-1.509-0.676-2.932-1.268-4.316-1.941c-16.211-7.875-1.619-1.257-35.373-16.352
	C360.077,278.267,359.801,278.064,359.5,277.895z M185.07,201.695c0.477,0.318,0.324,0.269,0.566,0.096
	c-0.169-0.071-0.001-0.06-0.598-0.059c-0.144-0.605-0.727-0.648-1.152-0.864c-24.133-12.268-34.414-19.63-54.516-31.341
	c-4.253-2.478-8.668-4.677-13.021-6.981c-0.313-0.166-0.635-0.526-1.109-0.256c0.029,0.163,0.02,0.339,0.089,0.477
	c6.772,13.611,14.6,20.727,24.772,25.454c14.121,6.563,21.841,6.233,36.697,11.353c2.001,0.69,4.04,1.276,6.079,1.843
	C183.578,201.614,184.336,201.61,185.07,201.695z M336.083,236.999c0.618-0.282,1.218-0.617,1.858-0.838
	c5.482-1.894,11.108-3.238,16.825-4.163c16.282-2.634,25.682-2.837,42.15-2.777c0.849,0.003,1.536-0.215,2.237-0.676
	c7.584-4.984,16.048-12.574,21.65-19.738c0.148-0.189,0.471-0.375,0.162-0.788c-12.373,4.215-26.685,11.816-53.471,15.976
	c-11.47,1.781-21.137,4.431-30.334,11.509c-0.408,0.314-0.802,0.648-1.167,1.009c-0.059,0.058,0.065,0.302,0.104,0.458
	c-0.035-0.024-0.071-0.048-0.106-0.071C336.022,236.932,336.052,236.966,336.083,236.999z M341.008,274.334
	c-0.029-0.083-0.058-0.166-0.087-0.249c-0.055,0.052-0.11,0.104-0.164,0.156c0.096,0.019,0.193,0.037,0.289,0.056
	c0.043,0.534,0.522,0.718,0.847,1.004c9.756,8.587,16.163,22.277,20.004,34.572c0.213,0.681,0.469,1.241,1.072,1.682
	c6.514,4.767,17.541,12.247,25.623,11.958c2.368-0.085,4.309-1.019,5.823-2.873c-0.131-0.161-0.221-0.313-0.348-0.42
	c-9.797-8.256-16.297-19.771-30.96-33.634c-5.984-5.658-12.89-9.694-20.775-12.054C341.908,274.405,341.45,274.397,341.008,274.334z
	 M129.246,201.747c0.216,0.122,0.419,0.341,0.827-0.016c-0.391,0.026-0.633,0.042-0.875,0.058c-0.088-0.673-0.72-0.646-1.142-0.838
	c-6.291-2.863-12.174-6.4-17.634-10.639c-17.654-13.708-27.146-27.822-32.067-41.5c-0.172-0.479-0.385-0.943-0.572-1.397
	c-0.34-0.101-0.61-0.192-0.886-0.262c-7.932-2.003-20.075-4.096-26.532,0.855c-0.721,0.553-1.437,1.141-1.673,2.193
	c3.324,2.572,7.64,5.48,15.287,11.701c10.612,8.631,28.506,22.454,40.346,29.292c7.12,4.112,14.542,7.554,22.408,9.992
	C127.549,201.439,128.403,201.568,129.246,201.747z M375.015,201.897c10.99-3.351,21.199-7.823,34.533-16.969
	c20.05-13.753,32.614-25.393,45.353-34.372c0.172-0.121,0.294-0.314,0.447-0.483c-0.883-2.271-4.57-3.94-7.069-4.502
	c-2.705-0.608-5.45-0.794-8.203-0.537c-4.23,0.394-9.726,1.101-13.77,2.358c-1.73,2.587-4.395,18.232-26.914,38.133
	c-13.305,11.758-23.104,15.007-24.375,15.909c-0.071,0.051,0.006,0.312,0.002,0.466c-0.275-0.056-0.551-0.111-0.826-0.167
	c-0.007,0.055-0.014,0.11-0.02,0.165C374.453,201.897,374.734,201.897,375.015,201.897z M338.796,229.828
	c0.294-0.257,0.561-0.558,0.887-0.765c14.498-9.235,25.976-8.177,46.678-13.802c17.503-4.756,28.377-10.986,38.822-13.277
	c0.562-0.123,0.878-0.498,1.146-0.954c0.725-1.236,1.503-2.444,2.172-3.71c8.712-16.488,7.38-15.924,17.294-27.56
	c3.405-3.997,6.676-7.621,8.753-12.276c0.102-0.229,0.108-0.502,0.214-1.032c-2.877,2.162-15.137,12.251-19.167,15.56
	c-40.453,33.228-38.335,24.167-87.961,51.023c-2.68,1.45-7.018,4.262-8.849,6.193c-0.102,0.108,0.003,0.412,0.008,0.612
	c-0.065-0.075-0.117-0.176-0.199-0.216c-0.059-0.029-0.157,0.023-0.238,0.04c0.052,0.048,0.096,0.119,0.157,0.138
	C338.601,229.829,338.701,229.82,338.796,229.828z M222.162,183.816c-0.07,0.223-0.162,0.382-0.164,0.543
	c-0.04,3.11-2.36,6.917-3.413,10.998c0.782,0,1.647,0,2.362,0c1.531-3.799,1.531-3.799,5.92-4.491
	c-0.137-1.503-0.465-2.92,1.491-3.691c0.944-0.372,1.817-0.121,2.661,0.255c3.55,1.583,6.751,3.658,9.257,6.691
	c0.25,0.303,0.516,0.593,0.739,0.848c1.17-0.198,2.236-0.378,3.404-0.575c0.733-1.638,1.63-3.753,2.199-4.576
	c0.84-1.216,2.202-1.537,3.479-0.812c1.218,0.691,1.764,1.742,3.514,4.497c2.175-2.637,3.863-4.755,7.561-7.633
	c1.428-1.111,3.395-1.21,3.988,1.414c0.496,2.197,1.401,4.241,2.232,6.315c0.114,0.286,0.312,0.538,0.494,0.844
	c1.963-1.363,2.254-1.629,5.629-3.192c1.6-0.741,3.304-0.073,3.921,1.616c0.336,0.92,0.728,2.232,0.789,2.43
	c0.556,0.223,1.078,0.227,1.574,0.109c1.727-0.41,3.457-0.777,5.333-0.665c-0.057-0.357-0.058-0.585-0.132-0.787
	c-2.223-6.101-2.884-7.289-2.984-9.477c-0.01-0.216-0.105-0.429-0.171-0.686c-1.385-0.298-2.891-0.106-4.085-1.11
	c0.326-0.349,0.631-0.616,0.864-0.935c0.895-1.23,0.628-2.962-0.567-3.827c-1.158-0.838-2.752-0.588-3.679,0.586
	c-0.141,0.179-0.23,0.398-0.365,0.583c-0.115,0.157-0.083,0.48-0.507,0.395c-1.347-1.398-2.24-3.092-2.55-5.075
	c-0.403-2.584,1.08-4.819,3.631-5.434c0.579-0.14,0.814-0.137,3.703-0.399c-0.581-1.645-2.196-4.262-3.19-5.156
	c-0.968-0.871-2.044-1.473-3.422-1.297c-0.772,0.098-3.123,0.213-3.934,0.112c-1.039-0.13-2.034-0.145-3.055,0.172
	c-3.191,0.987-3.537-0.301-8.189-0.053c-2.244,0.119-3.208-0.525-6.513-0.134c-1.715,0.203-4.903,0.057-6.337,0.325
	c-1.509,0.282-2.973,0.282-4.419-0.158c-1.919-0.584-2.855,0.168-6.648-0.259c-3.391-0.381-4.626,2.427-6.61,5.634
	c-0.136,0.22-0.16,0.51-0.268,0.874c0.758,0.033,2.69,0.06,3.857,0.368c4.205,1.11,4.587,6.177,1.466,9.815
	c-1.813-1.42-3.088-1.638-4.203-0.759c-1.256,0.99-1.306,2.314-0.143,4.5C225.343,183.573,223.688,183.513,222.162,183.816z
	 M82.286,148.721c-0.024,0.167-0.05,0.226-0.035,0.271c0.088,0.27,0.167,0.546,0.284,0.804c2.795,6.184,6.064,12.091,10.226,17.474
	c8.507,11.003,19.846,21.329,31.637,27.657c7.996,4.291,19.65,8.942,26.928,10.111c8.505,1.366,13.263,1.34,20.474,4.22
	c11.712,4.678,21.669,5.817,33.438,1.268c0.255-0.098,0.487-0.254,0.751-0.393c-0.185-0.163-0.264-0.311-0.778-0.466
	c-11.758-3.551-14.01-2.742-22.093-4.087c-5.229-0.87-10.439-3.173-12.675-3.741c-17.267-4.388-36.458-7.6-48.485-21.19
	c-5.042-5.696-8.912-12.269-11.327-19.875c-0.29-0.914-0.805-1.428-1.659-1.791c-16.279-6.918-9.473-4.509-25.731-10.094
	C82.938,148.785,82.606,148.775,82.286,148.721z M297.995,210.037c0.343,0.229,0.473,0.356,0.627,0.412
	c0.968,0.353,1.936,0.709,2.915,1.031c6.112,2.009,12.333,2.422,18.672,1.324c6.321-1.094,11.271-3.364,15.905-4.899
	c3.614-1.197,7.397-1.527,11.134-2.093c8.169-1.236,10.118-1.451,17.812-4.336c15.256-5.721,26.743-12.738,39.653-26.469
	c7.21-7.668,13.046-16.345,17.162-26.215c-0.833-0.209-1.453,0.192-2.078,0.388c-8.724,2.734-19.461,7.164-25.928,10.486
	c-0.323,0.856-0.66,1.707-0.965,2.57c-3.156,8.926-8.946,17.876-16.63,23.791c-9.272,7.136-22.504,11.056-33.874,13.601
	c-4.244,0.95-8.486,1.947-12.58,3.459c-5.032,1.858-10.223,2.972-15.571,3.379c-5.229,0.398-10.288,1.639-15.286,3.162
	C298.7,209.708,298.451,209.842,297.995,210.037z M165.226,229.534c0.047-0.062,0.094-0.124,0.14-0.187
	c-0.257-0.255-0.487-0.545-0.774-0.76c-8.607-6.447-8.569-5.779-25.812-14.661c-11.654-6.003-26.722-12.363-31.581-14.81
	c-22.327-11.242-48.054-35.436-57.759-42.498c-0.099,0.147-0.167,0.207-0.157,0.241c1.489,4.705,7.005,10.636,10.558,14.72
	c8.107,9.318,10.065,15.348,12.759,20.317c1.639,3.023,3.345,6.01,5.011,9.018c0.922,1.664,1.453,0.525,8.988,3.381
	c3.589,1.36,7.194,2.679,10.757,4.104c35.277,14.117,49.029,8.909,67.169,20.777C164.744,229.32,164.992,229.416,165.226,229.534z
	 M216.05,325.724c0.042,0.388,0.018,0.731,0.123,1.029c0.341,0.972,0.668,1.957,1.111,2.885c1.994,4.18,2.658,7.298,3.7,9.435
	c0.676,1.387,1.482,2.71,2.23,4.062c1.215,2.199,3.151,0.876,4.801,1.168c4.645,0.821,7.525,0.432,13.364,0.565
	c1.03,0.023,2.063,0.157,3.088,0.109c3.119-0.145,3.155,0.652,5.604,0.637c5.002-0.031,3.367,0.098,5.985-0.265
	c2.817-0.391,1.098-0.365,7.003-0.518c0.687-0.018,1.378-0.066,2.06-0.012c1.318,0.104,2.63,0.156,3.949,0.003
	c0.452-0.052,0.915-0.004,1.373-0.011c0.686-0.011,1.375-0.002,2.059-0.052c2.047-0.15,4.059-0.744,6.151-0.337
	c0.768,0.149,1.448-0.224,1.889-0.938c0.511-0.828,1.135-1.599,1.551-2.471c2.774-5.815,2.271-6.3,4.668-11.45
	c0.458-0.983,0.791-2.026,1.145-3.054c0.081-0.236,0.012-0.523,0.012-0.797c-0.771-0.051-1.336,0.218-1.854,0.583
	c-3.039,2.144-4.951,1.146-5.687,1.49c-1.285,0.601-2.634,0.728-4.028,0.69c-1.052-0.029-2.485,1.204-5.394,0.173
	c-0.902-0.32-1.784-0.363-2.704-0.245c-3.555,0.453-3.911-0.664-6.824-0.398c-1.437,0.131-2.855,0.025-4.262-0.347
	c-0.711-0.188-1.477-0.157-2.198-0.315c-2.106-0.46-4.203-0.197-6.302,0.017c-0.51,0.052-1.034,0.081-1.522,0.223
	c-3.046,0.884-5.365,0.136-6.816,0.506c-1.639,0.418-3.282,0.5-4.947,0.279c-1.89-0.251-2.774,0.766-4.379,0.634
	c-2.044-0.167-4.062-0.584-6.108-0.766c-0.376-0.033-0.719-0.625-2.832-0.524c-2.055,0.098-3.407-1.022-4.288-1.537
	C217.281,325.889,216.778,325.643,216.05,325.724z M109.513,320.578c2.786,3.263,6.178,3.391,10.385,2.445
	c6.634-1.493,15.238-7.18,20.763-11.187c0.784-0.569,1.23-1.234,1.523-2.167c3.927-12.517,10.52-26.398,20.49-34.83
	c0.213-0.181,0.39-0.404,0.786-0.82c-0.695,0.183-1.13,0.266-1.544,0.411c-6.145,2.16-11.145,3.865-17.685,9.292
	C129.286,296.121,120.168,311.89,109.513,320.578z M318.947,248.181c7.859-11.787,13.083-21.801,26.589-29.089
	c5.866-3.165,7.489-3.837,16.098-8.136c0.486-0.243,1.063-0.382,1.537-1.062c-3.446,0.36-2.411,0.314-5.416,0.724
	c-24.19,3.295-33.754,7.762-51.322,27.69c-0.185,0.21-0.328,0.457-0.516,0.724c0.719,0.641,1.435,1.216,2.076,1.864
	c1.247,1.26,1.246,2.538-0.036,3.732c-0.602,0.561-1.433,1.138-3.268,2.455c0.459,0.136,0.718,0.26,0.987,0.285
	C310.066,247.778,314.469,247.951,318.947,248.181z M185.062,248.046c1.181,0.097,11.423-0.417,12.937-0.654
	c0.145-0.023,0.273-0.158,0.399-0.234c-0.029-0.096-0.028-0.169-0.063-0.197c-1.175-0.953-2.402-1.394-4.928-4.489
	c-1.89-2.316,0.598-3.745,3.085-5.398c-9.522-10.436-18.075-18.744-31.615-22.722c-7.621-2.239-15.455-3.294-23.284-4.401
	c-0.177-0.025-0.454-0.146-0.563,0.306c20.928,10.723,27.562,11.704,40.674,32.875C182.759,244.834,183.852,246.513,185.062,248.046
	z M167.953,236.788c0.1-0.115,0.2-0.23,0.3-0.345c-3.621-1.98-9.233-8.998-31.26-12.383c-23.512-3.613-36.082-9.361-53.055-15.757
	c-0.316-0.119-0.671-0.452-1.163-0.082c0.468,0.601,0.91,1.191,1.375,1.762c8.141,10.003,17.072,15.842,20.529,18.444
	c0.824,0.62,1.693,0.816,2.718,0.795c4.91-0.103,17.294,0.15,22.179,0.459c11.559,0.73,26.38,2.767,37.26,6.756
	C167.201,236.571,167.58,236.672,167.953,236.788z M100.602,273.86c0.667-0.046,1.064-0.503,1.514-0.822
	c4.336-3.069,9.033-5.421,14.088-7.033c4.035-1.287,8.094-2.499,12.148-3.723c9.765-2.948,13.406-7.252,17.66-11.406
	c0.154-0.151,0.255-0.356,0.437-0.616c-0.339-0.126-0.591-0.264-0.859-0.312c-15.382-2.711-15.291-4.695-17.633-3.435
	c-13.33,7.176-21.32,10.684-26.706,17.197c-1.171,1.416-1.731,3.097-1.671,4.942C99.637,270.428,99.988,272.155,100.602,273.86z
	 M403.366,274.014c1.319-4.288,1.889-7.622-1.142-10.988c-1.863-2.068-4.486-4.339-7.248-6.024
	c-8.554-5.22-12.937-7.235-18.77-10.406c-2.527-1.374-2.383,0.616-17.608,3.322c-0.323,0.058-0.631,0.203-1.059,0.345
	c0.285,0.349,0.474,0.627,0.707,0.861c3.898,3.905,6.481,6.564,12.113,9.167c8.521,3.937,20.378,4.545,32.088,13.141
	C402.675,273.598,402.926,273.736,403.366,274.014z M388.774,162.267c-0.104-0.052-0.164-0.107-0.196-0.094
	c-15.294,6.491-38.121,23.558-69.265,39.101c-0.304,0.152-0.575,0.369-0.861,0.556c6.079-0.654,10.064-3.462,24.694-6.726
	c6.836-1.525,13.496-3.617,19.894-6.484c10.524-4.715,18.687-11.817,25.674-25.926C388.779,162.567,388.758,162.397,388.774,162.267
	z M179.604,248.157c-3.722-4.125-7.917-6.898-12.896-8.475c-6.072-1.922-12.272-3.294-18.564-4.242
	c-17.353-2.613-24.755-2.044-33.402-1.976c-0.262,0.002-0.579-0.102-0.764,0.202c0.006,0.065-0.009,0.149,0.018,0.165
	c0.434,0.263,0.86,0.544,1.313,0.77c7.453,3.717,15.237,6.583,23.243,8.83c12.944,3.633,26.508,4.421,39.806,4.884
	C178.675,248.326,178.996,248.237,179.604,248.157z M324.569,247.981c0.227,0.167,0.309,0.28,0.398,0.285
	c3.925,0.234,17.912-0.439,30.614-2.62c10.286-1.766,22.808-5.865,33.592-11.286c0.312-0.157,0.758-0.223,0.825-0.794
	c-0.282-0.042-0.495-0.097-0.71-0.101c-7.049-0.147-14.092-0.238-21.128,0.488c-10.625,1.097-21.235,2.503-31.501,5.953
	C331.933,241.494,327.968,244.216,324.569,247.981z M103.792,293.191c0.321-0.118,0.533-0.173,0.725-0.269
	c6.525-3.235,12.412-6.008,15.829-8.628c8.227-6.307,10.505-10.841,17.245-21.002c0.143-0.215,0.23-0.466,0.477-0.977
	c-4.075,1.906-4.741,2.485-12.753,4.796c-8.51,2.456-16.431,6.45-23.27,11.414c1.32,6.177,1.096,5.619,1.487,11.722
	C103.594,291.198,103.502,292.17,103.792,293.191z M366.191,262.79c0.133,0.256,0.256,0.554,0.43,0.818
	c6.523,9.9,11.212,18.252,22.638,24.124c3.466,1.781,6.951,3.524,10.431,5.278c0.141,0.071,0.318,0.07,0.6,0.127
	c0.7-10.837,0.429-8.37,1.653-14.549c-0.192-0.202-0.259-0.302-0.351-0.365c-17.746-12.123-25.014-10.228-34.691-15.468
	C366.717,262.655,366.5,262.503,366.191,262.79z M107.314,317.189c9.672-9.767,21.271-27.891,36.924-38.547
	c0.13-0.089,0.421-0.167,0.21-0.573c-5.15,2.151-9.972,4.575-16.621,7.409c-7.512,3.202-20.661,10.063-23.022,10.806
	c-0.315,0.099-0.608,0.269-0.857,0.382c-0.051,0.205-0.102,0.316-0.102,0.426C103.874,302.802,104.537,312.203,107.314,317.189z
	 M197.462,257.951c-1.166-1.003-2.281-1.961-3.429-2.949c-0.267,0.02-0.556,0.009-0.83,0.069c-1.175,0.255-2.351,0.513-3.518,0.802
	c-28.553,7.077-38.403,3.138-49.594,14.625c-2.768,2.841-5.273,5.895-7.721,9.003c-0.045,0.057,0.005,0.187,0.014,0.357
	c1.469-0.247,10.672-5.73,27.958-10.432C182.215,263.476,193.078,261.086,197.462,257.951z M307.642,258.662
	c0.875,0.413,1.484,0.727,2.113,0.992c2.482,1.047,5.021,1.939,7.62,2.644c40.26,10.913,33.603,8.743,53.028,17.097
	c0.376,0.162,0.739,0.593,1.238,0.265c-0.044-0.119-0.058-0.244-0.125-0.328c-2.664-3.375-5.376-6.704-8.486-9.694
	c-7.873-7.568-15.955-7.869-26.117-9.442c-13.733-2.126-11.161-1.823-26.952-5.319c-0.428-0.095-0.87-0.131-1.473-0.22
	C309.061,256.195,309.041,257.503,307.642,258.662z M149.054,304.837c0.082,0.043,0.165,0.087,0.247,0.13
	c0.142-0.088,0.298-0.161,0.425-0.267c2.199-1.839,4.458-3.612,6.577-5.54c18.599-16.917,24.279-23.331,33.638-31.032
	c0.136-0.112,0.209-0.302,0.436-0.642c-2.635,0.604-5.029,1.153-7.424,1.7c-17.355,3.971-25.5,17.771-33.246,34.12
	C149.47,303.807,149.271,304.326,149.054,304.837z M313.734,267.784c1.899,1.77,3.474,2.9,5.551,4.842
	c18.215,17.038,27.001,25.933,35.409,32.337c0.232-0.711-0.156-1.135-0.36-1.572c-3.402-7.27-8.525-16.949-13.927-22.8
	c-4.264-4.619-9.254-8.182-15.257-10.213C321.457,269.131,317.632,268.428,313.734,267.784z M301.599,276.147
	c-1.152-1.168,0.851,0.567-11.499-10.162c-2.424-2.106-4.931-4.107-7.605-5.892c-2.314-1.544-4.821-2.643-7.551-3.174
	c-1.271-0.247-2.559-0.544-3.741-0.389c-0.589,1.234-1.1,2.305-1.648,3.453c0.239,0.306,0.495,0.682,0.798,1.015
	c7.19,7.898,16.147,18.738,26.223,17.824c1.586-0.144,3.007-0.697,4.227-1.722C301.093,276.855,301.3,276.511,301.599,276.147z
	 M274.369,298.657c1.815-6.034,2.709-11.91-0.347-17.455c-3.353-6.083-8.135-9.45-10.641-14.509c-0.062-0.126-0.25-0.19-0.422-0.313
	c-0.977,0.905-2.204,1.15-3.46,1.292c-0.05,0.321-0.112,0.542-0.113,0.763c-0.054,9.498-1.161,13.309,13.757,29.131
	C273.447,297.888,273.806,298.159,274.369,298.657z M244.698,270.307c-0.051,0.059-0.184,0.175-0.27,0.319
	c-6.259,10.545-2.404,20.169,4.718,30.159c0.15,0.211,0.36,0.378,0.629,0.655c0.264-0.46,0.491-0.783,0.647-1.137
	c6.423-14.613,2.563-19.982-1.987-30.242c-0.066-0.148-0.199-0.266-0.287-0.38C247.004,269.888,245.89,270.091,244.698,270.307z
	 M274.923,235.684c-0.7,1.576-1.276,2.874-1.903,4.287c0.237,1.526,0.237,1.526-1.001,4.565c0.089,0.053,0.174,0.144,0.268,0.154
	c4.354,0.429,8.694,0.386,13.019-0.347c7.319-1.24,11.661-5.186,15.76-10.929c0.122-0.171,0.298-0.365,0.091-0.687
	c-0.671-0.073,1.002-0.074-11.767-0.106c-2.121-0.005-4.237,0.052-6.342,0.374C280.133,233.441,277.36,234.277,274.923,235.684z
	 M212.168,205.421c0.461,1.41,0.778,2.505,1.175,3.57c2.778,7.437,7.623,12.953,15.009,16.101c5.417,2.309,3.641,1.748,5.018,2.046
	c0.224-0.692,0.347-1.322,0.628-1.871c0.846-1.654,1.853-2.036,2.65-2.573c-4.679-7.37-7.44-13.077-15.301-15.165
	C219.267,206.976,214.848,205.908,212.168,205.421z M266.822,224.354c2.844-3.047,6.368-4.715,10.762-8.099
	c4.632-3.566,7.151-8.686,8.961-14.339c0.047-0.146,0.006-0.32,0.006-0.589c-0.674,0.145-1.202,0.449-1.737,0.735
	c-8.719,4.653-8.905,4.721-14.503,7.835c-4.546,2.528-7.881,6.216-10.295,10.78c-0.147,0.278-0.241,0.583-0.366,0.893
	c2.911,0.689,2.984,0.735,4.711,2.961C265.14,224.476,265.932,224.418,266.822,224.354z M295.143,208.161
	c-1.262-0.116,0.633-0.218-6.74,0.754c-0.977,0.129-1.627,0.574-2.12,1.486c-3.755,6.946-9.041,9.031-15.314,13.736
	c-0.586,0.439-1.164,0.913-1.502,1.512c0.32,0.763,0.744,1.422,0.854,2.129c0.118,0.76-0.057,1.565-0.106,2.383
	c0.642,0.322,1.34,0.59,1.945,0.998c0.596,0.401,1.097,0.942,1.699,1.474c8.6-8.593,17.337-10.5,20.923-22.754
	C294.938,209.346,295.013,208.79,295.143,208.161z M215.825,287.638c9.642-6.207,9.55-6.012,12.2-8.332
	c3.007-2.633,5.088-5.883,6.185-9.725c0.423-1.483,0.687-3.012,0.996-4.525c0.065-0.316,0.009-0.657,0.009-0.977
	c-1.153-0.251-2.202-0.479-3.27-0.711c-5.466,2.964-10.257,6.339-13.574,11.573c-1.711,2.7-2.853,5.607-3.129,8.819
	C215.134,285.022,215.205,286.256,215.825,287.638z M262.716,188.155c-0.228,0.148-0.483,0.27-0.686,0.451
	c-2.494,2.228-4.621,4.765-6.408,7.594c-0.681,1.079-0.203,1.547,0.242,3.265c1.971,7.614,0.068,11.15-2.929,18.542
	c-0.137,0.338-0.195,0.708-0.286,1.05c0.858,0.079,1.622,0.051,2.327,0.241c0.687,0.185,1.315,0.591,1.944,0.888
	c0.13-0.123,0.245-0.185,0.289-0.28c1.938-4.243,4.608-6.623,7.696-13.393c1.542-3.381,1.769-6.862,0.666-10.389
	c-0.819-2.62-1.786-5.193-2.691-7.785C262.864,188.289,262.806,188.253,262.716,188.155z M196.456,254.163
	c1.528,1.471,5.036,3.945,6.717,4.734c2.285,1.072,4.691,1.415,7.192,1.183c6.93-0.642,10.178-4.336,12.826-6.043
	c0.902-0.581,1.299-1.354,1.505-2.315c-0.207-0.155-0.328-0.29-0.478-0.352c-10.589-4.353-20.178-2.892-26.445,1.504
	C197.27,253.227,196.692,253.531,196.456,254.163z M306.63,256.338c-0.204-0.307-0.279-0.465-0.394-0.587
	c-2.069-2.192-4.619-3.752-7.101-5.4c-1.304-0.866-2.108,0.593-8.683,1.402c-5.374,0.661-10.51-0.069-15.396-2.44
	c-0.281-0.136-0.599-0.197-0.868-0.283c-0.211,1.286-0.403,2.455-0.591,3.605c0.13,0.09,0.215,0.192,0.317,0.215
	c7.269,1.64,12.197,6.669,19.14,7.384C298.053,260.749,302.372,258.944,306.63,256.338z M288.957,289.662
	c0-0.405,0.058-0.747-0.011-1.061c-0.219-1.005-0.406-2.028-0.747-2.993c-1.502-4.251-4.009-7.809-7.498-10.677
	c-5.411-4.448-9.57-9.305-13.276-13.392c-0.85,0.08-1.613,0.236-2.418,0.586c1.627,5.335,2.133,5.112,6.494,10.607
	c3.631,4.575,6.326,7.435,7.111,13.071c0.093,0.67,0.164,1.343,0.248,2.04C282.067,289.432,285.335,290.177,288.957,289.662z
	 M302.753,236.694c0.091,0.073,0.182,0.145,0.273,0.218c3.234-3.656,9.145-11.493,19.567-19.458
	c0.154-0.117,0.243-0.319,0.423-0.564c-0.309,0-0.481-0.021-0.647,0.003c-1.641,0.246-3.276,0.542-4.922,0.742
	c-7.211,0.875-13.445-0.668-19.68-2.951c-0.419-0.153-0.823-0.438-1.367-0.144c-0.386,0.695-0.783,1.454-1.224,2.186
	c-0.367,0.61-0.286,1.168,0.041,1.849c2.327,0,4.835-0.119,7.333,0.73c1.365,0.464,1.923,1.333,1.753,2.774
	c-0.291,2.472-1.534,4.671-2.902,6.711c-0.135,0.201-0.184,0.46-0.296,0.754c0.644,0.081,1.162,0.102,1.657,0.218
	c1.703,0.398,2.535,1.913,1.893,3.559c-0.309,0.792-0.802,1.512-1.223,2.259C303.22,235.959,302.98,236.323,302.753,236.694z
	 M225.721,234.615c-0.082-0.141-0.114-0.268-0.196-0.327c-4.257-3.132-8.427-4.755-14.039-4.733
	c-14.414,0.057-11.812,0.004-12.979,0.11c-0.013,0.206-0.064,0.342-0.018,0.418c1.624,2.676,5.128,5.915,9.818,8.051
	c4.303,1.96,8.715,2.166,13.217,0.727c0.587-0.188,0.976-0.455,1.202-1.077c0.424-1.166,1.252-2.033,2.308-2.684
	C225.274,234.954,225.495,234.777,225.721,234.615z M200.961,276.803c0.056,0.012,0.126,0.052,0.166,0.032
	c0.248-0.128,0.51-0.243,0.731-0.409c8.573-6.461,14.954-7.685,24.108-14.193c0.878-0.624,1.614-1.453,2.379-2.225
	c0.215-0.217,0.501-0.503,0.234-0.973c-1.526-0.23-2.757-1.119-3.852-2.318c-2.509,2.201-5.107,4.065-8.215,5.064
	c-3.094,0.995-6.263,1.334-9.424,0.866C203.8,266.079,200.238,272.512,200.961,276.803z M243.756,219.993
	c-3.264-7.917-2.85-7.973-3.258-16.524c-0.291-6.1-4.489-10.29-9.892-13.029c-0.119-0.06-0.295-0.008-0.561-0.008
	c0.606,3.073,1.657,6.715,2.709,11.256c1.603,6.919,1.583,11.982,6.812,19.065c0.503,0.682,0.981,1.401,1.692,1.925
	C242.076,221.8,242.845,220.973,243.756,219.993z M249.135,191.996c-0.187,0.204-0.326,0.302-0.392,0.436
	c-1.801,3.66-3.28,7.444-4.352,11.383c-1.484,5.449-0.398,10.545,2.101,15.492c0.837,0.172,1.657,0.34,2.522,0.517
	c3.676-8.542,7.457-15.008,0.662-27.138C249.545,192.454,249.346,192.262,249.135,191.996z M238.368,265.154
	c-0.1,0.18-0.141,0.228-0.152,0.281c-0.21,1.034-0.245,5.485-3.561,10.632c-5.974,9.273-7.61,11.305-8.137,16.253
	c-0.186,1.746,0.002,3.455,0.549,4.873c0.732-0.232,1.242-0.792,1.806-1.25c3.181-2.579,5.972-5.502,8.043-9.073
	c0.848-1.462,1.303-2.923,1.24-4.689c-0.175-4.87,0.95-9.424,3.997-13.366c0.032-0.042,0.033-0.109,0.023-0.072
	c-0.607-1.105-1.181-2.151-1.78-3.239C239.772,265.396,239.103,265.281,238.368,265.154z M194.736,229.43
	c0.108-0.186,0.215-0.319,0.271-0.472c0.481-1.307,1.485-1.82,2.803-1.858c1.243-0.036-0.415,0.076,8.418-0.258
	c0.259-0.01,0.587,0.074,0.742-0.349c-0.615-0.707-1.275-1.414-1.873-2.169c-2.461-3.105-3.02-4.752-4.199-7.835
	c-7.993,1.897-12.374,1.684-20.164,0.291c3.309,2.991,2.259,1.501,9.461,8.274C191.697,226.467,193.165,227.914,194.736,229.43z
	 M360.401,262.906c-2.373-4.461-5.606-8.204-9.162-11.75c-17.852,1.965-19.352,1.682-26.067,1.817
	c-1.685,0.034-3.375-0.123-5.087,0.024c0.049,0.149,0.055,0.241,0.087,0.252c0.38,0.125,0.76,0.257,1.149,0.35
	c20.496,4.87,29.835,3.928,38.62,9.12C360.081,262.801,360.247,262.844,360.401,262.906z M183.957,253.252
	c-0.019-0.104-0.039-0.208-0.058-0.312c-3.686,0-8.182,0.26-17.001-0.399c-4.17-0.311-8.324-0.824-12.487-1.23
	c-0.617-0.06-1.246-0.249-1.848,0.013c-3.367,3.479-6.566,7.069-9.052,11.233c-0.034,0.057,0.052,0.186,0.083,0.282
	c0.05,0.009,0.109,0.039,0.148,0.022c0.209-0.091,0.422-0.179,0.618-0.293c8-4.66,17.049-4.297,35.483-8.3
	C181.223,253.967,182.586,253.592,183.957,253.252z M227.565,232.843c0.327-1.087,0.244-1.557,1.416-2.733
	c0.287-0.288,0.668-0.483,1.124-0.801c-1.322-0.58-2.474-1.084-3.625-1.592c-5.284-2.33-9.566-5.851-12.656-10.753
	c-0.47-0.746-1.06-1.173-1.877-1.357c-2.53-0.57-5.082-0.895-7.679-0.63c-0.317,0.032-0.623,0.17-1.03,0.287
	c0.179,0.697,0.287,1.318,0.497,1.904c1.244,3.475,3.415,6.337,5.961,8.949c0.83,0.852,1.593,0.385,5.517,0.699
	c4.517,0.362,8.405,2.125,11.627,5.329C227.035,232.34,227.236,232.527,227.565,232.843z M195.355,241.009
	c1.781,2.687,4.069,4.403,6.9,5.448c0.951,0.351,1.851,0.405,2.851,0.168c2.517-0.598,5.077-0.939,7.672-0.761
	c3.445,0.236,6.82,0.848,10.078,2.03c0.294,0.107,0.616,0.139,0.836,0.187c0.458-1.057,0.862-1.987,1.299-2.994
	c-2.085-1.89-4.485-2.845-7.355-2.366c-4.896,0.818-10.848-1.111-14.903-4.064c-0.738-0.538-1.41-0.643-2.222-0.249
	c-0.824,0.4-1.685,0.721-2.513,1.113C197.128,239.934,196.238,240.322,195.355,241.009z M279.981,230.652
	c0.03,0.083,0.06,0.165,0.09,0.248c4.48-0.819,3.042-1.137,16.194-1.042c0.425,0.003,0.787-0.109,1.061-0.447
	c1.633-2.019,2.988-4.194,3.675-6.725c0.113-0.417,0.057-0.88,0.082-1.396c-1.968-0.479,0.488-0.167-7.729-0.809
	c-0.686-0.054-1.155,0.256-1.659,0.7c-6.102,5.372-7.787,6.408-10.957,8.81C280.472,230.192,280.233,230.43,279.981,230.652z
	 M263.245,300.562c0.372-0.516,0.529-1.062,0.665-1.606c0.319-1.278,0.633-2.558,0.917-3.844c0.36-1.635,0.355-1.645-0.709-2.938
	c-3.544-4.305-7.133-10.09-7.763-15.66c-0.398-3.516-0.217-4.975-0.217-6.993c-1.411,0.67-2.739,0.713-4.225,0.41
	c0.98,2.205,2.709,6.212,3.525,8.407c1.556,4.187,1.816,8.489,0.906,12.861c-0.666,1.444-0.158,2.663,0.742,3.798
	c2.198,2.77,2.934,3.984,5.481,5.347C262.755,300.446,262.979,300.479,263.245,300.562z M231.638,210.135
	c-1.189-5.567-2.332-10.916-3.927-16.146c-1.155-0.262-2.207-0.508-3.398-0.198c-1.548,3.558-2.174,7.256-1.537,11.199
	c4.682,1.791,4.238,1.744,6.722,3.442C230.184,208.901,230.647,209.658,231.638,210.135z M300.832,239.039
	c-0.5,0.495-0.987,0.969-1.465,1.452c-3.065,3.098-6.691,5.156-10.985,6.032c-7.172,1.462-8.348,0.634-8.943,1.157
	c5.474,2.234,16.673,1.637,25.278-3.964c0.514-0.335,1.091-0.609,1.373-1.261C304.534,241.029,302.817,239.927,300.832,239.039z
	 M266.692,209.014c1.609-0.93,2.843-1.638,4.073-2.354c1.225-0.712,2.561-1.235,3.646-2.053c1.013-4.584,1.031-8.584,0.02-10.989
	c-2.132,0.616-4.05,1.671-5.953,2.835C269.439,202.249,268.88,203.584,266.692,209.014z M288.796,306.549
	c-0.036-0.004-0.072-0.008-0.108-0.011c0-0.458,0-0.915,0-1.373c0-1.725-1.545-2.12-2.636-1.661
	c-0.962,0.405-1.38,1.085-1.433,2.117c-0.083,1.597-0.267,3.189-0.382,4.785c-0.09,1.254-0.121,2.512-0.215,3.765
	c-0.32,4.264-0.823,5.134-0.127,6.591c0.329,0.688,1.123,0.824,1.747,0.371c0.73-0.53,0.601-1.188,1.672-4.43
	c0.38-1.15,0.59-2.316,0.647-3.529c0.054-1.137,0.233-2.269,0.378-3.401C288.478,308.695,288.643,307.623,288.796,306.549z
	 M232.496,348.366c-0.976-0.039-1.659,0.667-1.567,1.556c0.438,4.231,3.784,3.991,7.082,6.525c3.504,2.692,4.943,2.654,6.314,4.106
	c0.077,0.081,0.183,0.137,0.282,0.195c0.703,0.413,1.554,0.212,2.134-0.502c0.427-0.526,0.391-1.024-0.132-1.703
	c-1.328-1.724-3.263-2.209-5.992-4.253c-1.114-0.834-2.264-1.557-3.577-2.005c-3.425-1.169-3.231-2.991-3.93-3.568
	C232.9,348.544,232.632,348.44,232.496,348.366z M290.172,262.697c1.043,1.218,8.717,7.935,10.075,8.868
	c0.922-0.441,1.59-1.218,2.256-1.998c0.425-0.498,0.475-1.012,0.106-1.571c-3.794-5.76-2.616-4.159-3.759-5.309
	C296.025,263.417,293.24,263.362,290.172,262.697z M214.01,301.997c0.259,2.807,0.175,4.023,1.154,6.378
	c0.727,1.75,3.327,1.14,3.19-0.873c-0.135-1.989-0.181-4.57-0.376-5.465c-0.431-1.98,0.115-3.001,0.165-4.081
	c0.038-0.819-0.416-1.269-1.242-1.285c-0.829-0.017-1.432,0.372-1.833,1.061C214.367,298.94,213.956,300.237,214.01,301.997z
	 M279.534,301.698c0.416,0.277,0.912,0.323,1.301,0.099c0.368-0.212,0.72-0.586,0.893-0.972c0.251-0.56,0.506-1.21,0.456-1.795
	c-0.146-1.7-0.393-3.388-0.31-5.104c0.068-1.413-3.36-1.55-3.226,0.7c0.033,0.555-0.179-0.817,0.726,6.775
	C279.386,301.504,279.478,301.597,279.534,301.698z M249.075,358.302c0.858,3.46,1.116,5.309,2.046,5.823
	c1.003,0.555,2.864-0.602,2.332-2.09c-0.628-1.759-0.842-3.12-1.89-5.088c-0.533-1.002-1.937-0.641-2.297,0.323
	C249.169,357.53,249.16,357.822,249.075,358.302z M249.422,261.912c-1.355,0.393-2.854,0.439-3.929,1.669
	c-0.36,0.412-0.936,0.633-1.407,0.95c-0.263,0.177-0.514,0.373-0.86,0.625c0.529,0.596,0.93,1.157,1.435,1.598
	c1.293,1.13,2.635,0.992,3.684-0.367c0.934-1.21,1.377-2.6,1.32-4.135C249.662,262.163,249.544,262.078,249.422,261.912z
	 M252.735,239.002c1.465-1.098,2.275-2.345,2.492-3.721c0.281-1.78-1.067-3.556-2.689-3.442c-1.331,0.093-2.268,0.836-2.902,2.024
	C251.992,234.799,252.317,235.336,252.735,239.002z M248.855,254.153c-1.243-2.178-0.815-1.175-1.691-3.764
	c-1.245,0.795-2.424,1.548-3.635,2.323c0.042,2.911,2.863,5.037,4.459,2.971C248.33,255.239,248.55,254.701,248.855,254.153z
	 M235.32,241.252c2.378-1.498,1.761-0.892,3.434-3.667c0-0.843,0-1.748,0-2.646c-2.086-0.672-3.453-0.042-4.022,1.898
	C234.298,238.317,234.342,239.769,235.32,241.252z M227.976,243.155c-0.311-2.23,0.336-4.126,1.834-5.799
	c-0.421-0.402-0.782-0.748-1.098-1.05c-2.401,0.499-3.59,1.813-3.688,3.951c-0.055,1.191,0.447,2.105,1.361,2.813
	C226.816,243.405,227.299,243.512,227.976,243.155z M248.638,225.548c-0.14-0.794-0.132-1.896-1.101-3.141
	c-0.587-0.753-1.338-0.843-2.084-0.237c-1.183,0.962-1.945,2.165-1.914,3.713c0.988,0.516,1.879,0.982,2.796,1.462
	C247.075,226.767,247.825,226.182,248.638,225.548z M290.924,295.863c-0.499-0.444-1.096-0.591-1.751-0.399
	c-0.685,0.201-1.401,0.522-1.427,1.289c-0.043,1.244,0.023,2.509,0.215,3.738c0.15,0.956,1.205,1.311,1.996,0.737
	c0.345-0.25,0.678-0.655,0.794-1.055C291.003,299.309,291.607,296.471,290.924,295.863z M246.269,235.486
	c-1.013-1.626-2.264-2.283-3.532-1.903c-1.353,0.405-2.178,1.685-2.113,3.456c1.569-0.291,2.982,0.326,4.405,0.905
	C245.457,237.095,245.841,236.334,246.269,235.486z M251.308,222.494c0.235,1.044,0.459,2.035,0.67,2.974
	c1.897,1.21,1.166,0.637,2.775,2.187C256.649,224.291,253.592,218.742,251.308,222.494z M232.703,258.27
	c0.238,3.539,3.515,4.215,6.278,0.869c0.197-0.238,0.302-0.552,0.46-0.851c-0.794-0.266-1.417-0.766-2.225-0.446
	C235.811,258.398,234.355,258.583,232.703,258.27z M240.541,232.653c1.275-0.983,2.73-1.138,4.202-1.198
	c-0.231-1.283-0.454-1.8-0.993-2.371c-0.849-0.899-1.723-1.007-2.718-0.286c-1.061,0.769-1.678,1.822-1.861,3.121
	c-0.013,0.092,0.076,0.199,0.14,0.355C239.649,232.377,240.023,232.493,240.541,232.653z M258.938,257.082
	c-0.072,1.274-0.134,2.38-0.203,3.601c0.714,0.075,1.381,0.161,2.051,0.209c0.639,0.046,1.084-0.274,1.36-0.834
	c0.31-0.628,0.439-1.304,0.325-1.989c-0.134-0.806-0.216-1.654-0.824-2.282C260.671,256.254,259.806,256.667,258.938,257.082z
	 M251.434,266.376c0.6,0.811,1.337,1.22,2.178,1.445c0.919,0.246,1.419-0.004,1.755-0.878c0.442-1.15,0.411-2.322,0.164-3.532
	c-1.022,0-1.975,0-2.967,0C252.2,264.366,251.838,265.317,251.434,266.376z M263.468,237.841c0.338,1.564-0.155,2.843-1.135,3.98
	c-0.321,0.373-0.319,0.261-1.614,1.682c0.387,0.722,0.726,1.355,1.092,2.039c1.751-0.639,2.645-1.883,2.991-3.536
	C265.136,240.406,264.729,238.986,263.468,237.841z M245.315,244.297c-0.552-1.749-1.726-3.932-3.404-4.658
	c-0.505-0.218-1.091-0.581-1.598-0.066c-0.452,0.458-0.348,1.058-0.162,1.623c0.053,0.162,0.114,0.328,0.205,0.471
	C241.485,243.456,243.107,244.313,245.315,244.297z M248.351,242.774c1.2-1.56,1.771-3.175,1.657-4.986
	c-0.049-0.78-0.248-1.584-1.137-2.009c-1.14,0.422-1.526,1.412-1.793,2.474C246.654,239.942,247.434,241.289,248.351,242.774z
	 M254.167,246.7c0.588,1.154,1.149,2.253,1.699,3.332c1.37-0.083,2.213-0.708,2.626-1.947c0.375-1.126,0.279-2.124-0.557-2.967
	C256.674,245.647,255.468,246.153,254.167,246.7z M231.089,247.465c-0.904-0.869-1.715-1.65-2.511-2.415
	c-2.014,0.935-2.253,4.206,0.3,4.733c0.768,0.158,1.58,0.269,2.422-0.244C231.226,248.819,231.152,248.089,231.089,247.465z
	 M246.969,246.707c-1.998,0.356-5.46,0.892-6.282,2.616c-0.505,1.059,0.871,1.894,2.094,1.428
	C244.625,250.047,245.946,248.79,246.969,246.707z M237.639,242.442c-0.132,0.023-0.199,0.015-0.237,0.044
	c-1.898,1.462-0.672,4.706,0.894,5.285c0.227,0.084,0.601,0.057,0.786-0.08c0.724-0.539,1.399-1.143,2.161-1.78
	C239.728,245.025,238.408,243.983,237.639,242.442z M239.9,226.713c-0.151-0.252-0.24-0.457-0.378-0.622
	c-0.572-0.686-1.263-1.286-2.199-0.998c-0.943,0.29-1.126,1.234-1.26,2.078c-0.194,1.214,0.012,2.389,0.574,3.492
	c0.124,0.244,0.187,0.555,0.643,0.506C237.498,229.345,238.453,227.899,239.9,226.713z M277.667,172.625
	c-0.006,1.114,0.923,2.05,2.051,2.066c1.04,0.015,1.981-0.861,2.036-1.897c0.062-1.161-0.951-2.162-2.155-2.128
	C278.51,170.698,277.673,171.546,277.667,172.625z M223.245,172.847c0.027,1.068,0.908,1.937,1.97,1.943
	c1.077,0.006,2.096-0.986,2.104-2.049c0.008-1.104-0.979-2.057-2.09-2.018C224.098,170.764,223.216,171.709,223.245,172.847z
	 M265.216,259.444c0.494-0.073,0.787-0.063,1.038-0.161c1.7-0.665,2.259-2.139,1.379-3.715c-0.326-0.585-0.774-1.102-1.149-1.626
	c-0.732,0.062-1.343,0.099-1.864,0.587C265.304,256.05,265.402,257.622,265.216,259.444z M257.939,254.503
	c1.736-0.033,2.849-0.829,3.505-2.207c0.488-1.025,0.408-2.064-0.496-3.045c-0.934,1.368-2.231,2.167-3.562,2.857
	C257.572,252.915,257.737,253.626,257.939,254.503z M263.353,231.3c-0.126,1.231-0.245,2.406-0.373,3.654
	c0.821,0.182,1.636,0.361,2.465,0.545c0.65-0.785,0.979-1.613,1-2.558c0.012-0.533-0.1-1.057-0.578-1.36
	C265.074,231.079,264.235,230.77,263.353,231.3z M254.825,253.018c-2.021,1.995-3.137,1.681-3.519,1.836
	c-0.457,0.185-0.773,1.073-0.488,1.451c0.582,0.77,1.33,1.257,2.338,1.149c0.967-0.103,1.532-0.733,1.801-1.603
	C255.227,254.978,255.406,254.076,254.825,253.018z M258.569,235.355c0.42,0.171,0.811,0.139,1.002-0.313
	c0.525-1.245,0.752-2.517,0.236-3.836c-0.286-0.733-0.727-1.317-1.51-1.52c-0.782-0.203-1.543-0.154-2.225,0.393
	C257.934,232.254,258.16,231.69,258.569,235.355z M227.013,252.272c-0.735,0.982-0.505,1.984,0.131,2.959
	c0.383,0.588,0.917,1.019,1.583,1.27c0.425,0.16,0.851,0.367,1.335,0.02c-0.179-0.638-0.456-1.274-0.516-1.929
	c-0.065-0.708,0.073-1.434,0.126-2.201c-0.776-0.08-1.51-0.161-2.245-0.227C227.321,252.154,227.209,252.217,227.013,252.272z
	 M251.849,229.579c-0.11-0.286-0.182-0.626-0.358-0.899c-0.697-1.081-1.679-1.329-2.772-0.684c-0.475,0.281-1,0.551-1.206,1.194
	c0.428,0.809,0.444,1.816,0.97,2.578C249.625,231.026,250.704,230.324,251.849,229.579z M249.929,246.885
	c-0.121,0.112-0.258,0.176-0.273,0.261c-0.379,2.164,0.515,4.212,1.477,5.02c0.903,0.758,1.924-0.581,1.209-2.294
	C251.827,248.637,251.024,247.641,249.929,246.885z M233.705,233.639c-0.689-0.865-1.449-1.537-2.41-1.955
	c-0.488-0.213-0.955,0.022-1.055,0.525c-0.245,1.231-0.069,2.389,0.664,3.434c0.435,0.62,1.127,0.647,1.542,0.033
	C232.859,235.063,233.226,234.419,233.705,233.639z M238.218,251.717c-0.39,1.563-0.187,2.856,0.835,3.94
	c0.722,0.766,1.609,1.01,2.672,0.629c-0.33-1.093-0.654-2.166-0.98-3.246C239.962,252.63,239.172,252.217,238.218,251.717z
	 M231.546,245.004c0.689-0.95,1.286-1.773,1.911-2.636c-0.97-1.774-0.619-0.948-1.439-3.215
	C230.182,240.651,229.98,242.916,231.546,245.004z M263.822,247.332c0.241,0.576,0.522,1.077,0.655,1.616
	c0.134,0.543,0.109,1.123,0.174,1.684c0.061,0.528-0.362,1.056-0.044,1.652c1.232-0.261,1.731-1.076,1.939-2.147
	c0.158-0.814-0.042-1.592-0.347-2.326c-0.228-0.551-0.433-1.175-1.158-1.425C264.64,246.697,264.245,247.004,263.822,247.332z
	 M258.573,224.094c-0.077,1.065-0.15,2.063-0.221,3.045c1.109,0.353,2.117,0.674,3.129,0.996c0.201-1.055,0.161-1.435-0.214-2.315
	C260.745,224.596,259.84,223.668,258.573,224.094z M235.301,252.923c-0.805-0.321-1.575-0.627-2.333-0.929
	c-0.757,1.406-0.656,2.385,0.289,3.256c0.474,0.437,1.029,0.713,1.677,0.736c0.392,0.014,0.803-0.01,1.003-0.427
	C235.721,254.665,235.51,253.792,235.301,252.923z M250.833,244.222c1.549,0.203,2.796,0.364,3.987-0.18
	c0.399-0.182,0.8-0.443,1.09-0.766c0.411-0.459,0.188-1.154-0.392-1.405c-0.204-0.089-0.439-0.193-0.648-0.171
	C253.22,241.873,251.908,242.61,250.833,244.222z M257.613,237.519c-0.321,0.496-0.679,1.05-1.088,1.683
	c1.256,0.629,0.887,0.362,2.097,1.287c0.295,0.226,0.347,0.744,0.944,0.721c0.702-0.683,1.226-1.512,0.759-2.534
	C259.837,237.608,258.867,237.314,257.613,237.519z M267.836,238.717c0.331,1.476,0.248,2.865-0.273,4.226
	c-0.283,0.737-0.18,1.176,0.213,1.343c0.541,0.231,0.85-0.198,1.164-0.488C270.736,242.137,270.258,239.702,267.836,238.717z
	 M235.727,251.102c0.375-0.726,0.68-1.316,0.927-1.794c-1.829-2.028-1.168-1.134-2.518-3.411c-0.683,1.11-0.641,2.17-0.32,3.211
	C234.089,249.991,234.629,250.707,235.727,251.102z M258.44,264.901c0.763,0.485,1.434,0.575,2.131,0.532
	c0.42-0.025,0.79-0.18,1.022-0.54c0.371-0.574,0.705-1.168,0.525-1.913c-0.646,0-1.264-0.029-1.878,0.008
	c-0.599,0.036-1.201-0.24-1.8-0.078C258.44,263.63,258.44,264.248,258.44,264.901z M269.541,247.723
	c0.068,1.657-0.196,2.977-0.94,4.314c1.019,0.816,0.677,0.565,1.359,1C271.509,251.176,271.434,249.402,269.541,247.723z
	 M241.894,259.652c-0.869,0.902-1.642,1.703-2.424,2.515c1.58,1.103,2.668,1.018,4.081-0.255
	C243.028,261.199,242.505,260.485,241.894,259.652z M244.848,258.543c0.101,0.902,0.577,1.194,1.111,1.436
	c1.478,0.669,3.637-0.461,3.574-1.442c-0.199-0.181-0.444-0.404-0.754-0.686C247.576,258.583,246.278,258.699,244.848,258.543z
	 M268.674,235.974c0.504,0.216,0.911,0.409,1.331,0.564c0.395,0.146,0.711,0.573,1.207,0.386c0.422-1.71,0.024-2.793-1.4-3.759
	C269.451,234.056,269.094,234.938,268.674,235.974z M264.955,226.406c-0.089,0.906-0.166,1.684-0.25,2.531
	c0.901,0.087,1.707,0.399,2.549,0.129C267.176,227.321,266.768,226.828,264.955,226.406z M252.801,259.744
	c0.358,0.446,0.587,0.845,0.919,1.12c0.829,0.689,1.859,0.38,2.163-0.633c0.162-0.54,0.252-1.105-0.015-1.707
	C254.921,258.9,253.983,259.273,252.801,259.744z"/>
</svg>
