<?xml version="1.0" encoding="UTF-8" standalone="no"?>
<svg
   xmlns:dc="http://purl.org/dc/elements/1.1/"
   xmlns:cc="http://creativecommons.org/ns#"
   xmlns:rdf="http://www.w3.org/1999/02/22-rdf-syntax-ns#"
   xmlns:svg="http://www.w3.org/2000/svg"
   xmlns="http://www.w3.org/2000/svg"
   id="svg28673"
   version="1.1"
   viewBox="0 0 210 297"
   height="297mm"
   width="210mm">
  <defs
     id="defs28667" />
  <metadata
     id="metadata28670">
    <rdf:RDF>
      <cc:Work
         rdf:about="">
        <dc:format>image/svg+xml</dc:format>
        <dc:type
           rdf:resource="http://purl.org/dc/dcmitype/StillImage" />
        <dc:title></dc:title>
      </cc:Work>
    </rdf:RDF>
  </metadata>
  <g
     id="layer1">
    <g
       transform="matrix(0.53139788,0,0,0.53139788,62.608884,9.7614232)"
       id="g29574">
      <path
         style="fill:#2b2200;stroke-width:0.35277778"
         d="m 43.238518,252.66339 c -0.29682,-0.33955 -1.41299,-1.96674 -2.48037,-3.61598 -1.06738,-1.64923 -3.39664,-4.56886 -5.17613,-6.48807 -5.07818,-5.47687 -9.80838,-11.58195 -11.3316,-14.62525 -0.7675,-1.53343 -1.39546,-2.96649 -1.39546,-3.18458 0,-0.84499 -0.60768,-0.27695 -2.69704,2.5211 -2.83123,3.79153 -3.94591,5.58858 -7.89225,12.72361 -2.3588398,4.2648 -3.5241398,6.03067 -4.1322198,6.26186 -1.00046,0.38037 -1.98357,-0.0511 -2.71087,-1.18983 -0.58921,-0.9225 -1.96503,-7.38684 -1.9827,-9.31584 -0.007,-0.7388 -0.23575,-2.5339 -0.50885,-3.98911 -1.86747,-9.9508 -2.34397001,-13.0785 -2.57232001,-16.88441 l -0.25791,-4.29881 -1.23472999,0.87808 c -0.67909,0.48295 -2.93835,1.43917 -5.02056,2.12495 -3.60729,1.18806 -4.0232302,1.24744 -8.8194402,1.25917 -7.14098,0.0175 -10.4593,0.71208 -17.36314,3.63462 -1.65755,0.70167 -2.25108,0.80857 -2.82222,0.50827 -1.49328,-0.78514 -1.59103,-1.82948 -0.55211,-5.89851 0.47041,-1.84244 0.81411,-4.93057 1.04699,-9.40739 0.57405,-11.03526 1.32999,-15.67763 3.36864,-20.68749 0.20623,-0.50681 0.0612,-0.61737 -0.8098,-0.61737 -2.37842,0 -9.46901,1.49706 -15.9478,3.36712 -3.78354,1.09209 -7.35051,1.9815 -7.92659,1.97648 -1.20364,-0.0105 -1.95119,-0.83688 -1.95119,-2.15695 0,-1.12486 2.57773,-5.35455 5.27451,-8.6547 1.10987,-1.3582 3.29064,-4.37445 4.84617,-6.70278 3.11264,-4.65904 6.38261,-8.9002 9.01745,-11.69567 l 1.71343,-1.81789 -1.50702,-0.25461 c -1.98876,-0.336 -6.29474,-2.31851 -8.54124,-3.93246 -0.98867,-0.71028 -2.9765,-2.54463 -4.41741,-4.07633 -3.26954,-3.47554 -7.69973,-6.43237 -12.57068,-8.39003 -2.93881,-1.18113 -3.74171,-1.65432 -3.90397,-2.30082 -0.44273,-1.76396 -0.0287,-2.20145 5.2302,-5.52691 0.82895,-0.52418 3.15885,-2.47802 5.17757,-4.34188 5.70255,-5.26507 11.73781,-9.94644 14.7971,-11.47766 1.53342,-0.7675 2.96648,-1.39546 3.18458,-1.39546 0.84498,0 0.27695,-0.60768 -2.5211,-2.69705 -3.79154,-2.83122 -5.58859,-3.9459 -12.72362,-7.89225 -4.2648,-2.35883 -6.03066,-3.52413 -6.26185,-4.13221 -0.38038,-1.000459 0.0511,-1.983566 1.18982,-2.710866 0.9225,-0.58922 7.38685,-1.96503 9.31584,-1.98271 0.7388,-0.007 2.5339,-0.23575 3.98911,-0.50885 9.95081,-1.867465 13.07851,-2.343966 16.88442,-2.572312 l 4.2988,-0.257916 -0.87808,-1.234722 c -0.48294,-0.679097 -1.43917,-2.93835 -2.12494,-5.02056 -1.18806,-3.607294 -1.24745,-4.023233 -1.25917,-8.819445 -0.0175,-7.140974 -0.71209,-10.4593 -3.63463,-17.363137 -0.70167,-1.657547 -0.80857,-2.251078 -0.50827,-2.822222 0.78425,-1.491579 1.83051,-1.590766 5.87831,-0.557272 1.80576,0.461052 4.97374,0.815791 9.40739,1.053401 11.1850802,0.59944 15.7164502,1.336312 20.7077002,3.367388 0.5068,0.206234 0.61736,0.06122 0.61736,-0.809798 0,-2.378421 -1.49706,-9.469011 -3.36711001,-15.947799 -1.09208999,-3.783542 -1.98150999,-7.350506 -1.97648999,-7.926586 0.0105,-1.203642 0.83688,-1.951192 2.15694999,-1.951192 1.12486,0 5.35455001,2.577733 8.65470001,5.274504 1.3582,1.10987 4.3744498,3.290647 6.7027798,4.846175 4.65904,3.112643 8.90021,6.382614 11.69567,9.017448 l 1.81789,1.713435 0.25461,-1.507021 c 0.336,-1.988767 2.31851,-6.294744 3.93246,-8.541244 0.71028,-0.988667 2.54463,-2.976499 4.07633,-4.417413 3.47554,-3.269534 6.43237,-7.699724 8.39004,-12.570678 1.18112,-2.938812 1.65431,-3.74171 2.30081,-3.90397 1.76397,-0.442729 2.20145,-0.02872 5.52691,5.230202 0.52418,0.828947 2.47802,3.158854 4.34188,5.177575 5.26507,5.702547 9.94644,11.737809 11.47766,14.797091 0.7675,1.533426 1.39546,2.966487 1.39546,3.184582 0,0.844987 0.60768,0.276948 2.69705,-2.521102 2.83122,-3.791532 3.9459,-5.588586 7.892253,-12.723611 3.5404,-6.401079 4.23566,-7.121762 5.85007,-6.063958 0.45206,0.296196 0.96942,0.816353 1.1497,1.155901 0.47854,0.901298 1.81164,7.582708 1.82602,9.151867 0.007,0.738798 0.23575,2.533897 0.50885,3.989106 1.86747,9.950806 2.34397,13.078506 2.57231,16.884417 l 0.25792,4.298802 1.23472,-0.878078 c 0.6791,-0.482946 2.93835,-1.439168 5.02056,-2.124943 3.607289,-1.18806 4.023229,-1.247447 8.819439,-1.259173 7.14098,-0.01746 10.45931,-0.712086 17.36314,-3.634624 1.65755,-0.701671 2.25108,-0.808567 2.82222,-0.508268 1.49158,0.784243 1.59077,1.830507 0.55728,5.878308 -0.46106,1.805756 -0.8158,4.973743 -1.05341,9.407387 -0.59944,11.185081 -1.33631,15.716451 -3.36738,20.707695 -0.20624,0.50681 -0.0612,0.61737 0.8098,0.61737 2.37842,0 9.46901,-1.497063 15.94779,-3.367117 3.78355,-1.09209 7.35051,-1.981507 7.92659,-1.976483 1.20364,0.01048 1.95119,0.836877 1.95119,2.15695 0,1.124857 -2.57773,5.35455 -5.2745,8.654696 -1.10987,1.3582 -3.29065,4.37445 -4.84618,6.70278 -3.11264,4.65904 -6.38261,8.9002 -9.01745,11.69567 l -1.71343,1.81789 1.50702,0.25461 c 1.98877,0.336 6.29475,2.31851 8.54124,3.93246 0.98867,0.71028 2.9765,2.54463 4.41742,4.07633 3.26953,3.47554 7.69972,6.43237 12.57068,8.39003 3.80511,1.5293 4.31306,2.00811 3.98881,3.75997 -0.0657,0.35489 -1.60559,1.62354 -3.42199,2.81921 -1.8164,1.19568 -5.22952,3.91668 -7.58472,6.04667 -6.38866,5.77778 -11.15367,9.45514 -14.27788,11.01886 -1.53624,0.76891 -2.97161,1.39802 -3.1897,1.39802 -0.84499,0 -0.27695,0.60768 2.5211,2.69705 3.79153,2.83122 5.58858,3.9459 12.72361,7.89225 6.40108,3.5404 7.12176,4.23566 6.06396,5.85007 -0.2962,0.45206 -0.81636,0.96942 -1.1559,1.1497 -0.9013,0.47854 -7.58271,1.81164 -9.15187,1.82602 -0.7388,0.007 -2.5339,0.23575 -3.98911,0.50885 -9.9508,1.86747 -13.0785,2.34397 -16.88441,2.57231 l -4.29881,0.25792 0.87808,1.23472 c 0.48295,0.6791 1.43917,2.93835 2.12495,5.02056 1.18806,3.60729 1.24744,4.02323 1.25917,8.81944 0.0175,7.14098 0.71208,10.45931 3.63462,17.36314 0.70167,1.65755 0.80857,2.25108 0.50827,2.82222 -0.78514,1.49328 -1.82948,1.59103 -5.89851,0.55212 -1.84244,-0.47042 -4.93057,-0.81411 -9.40739,-1.04699 -11.03526,-0.57405 -15.677629,-1.32999 -20.687489,-3.36864 -0.50681,-0.20624 -0.61737,-0.0612 -0.61737,0.8098 0,2.37842 1.49706,9.46901 3.36712,15.94779 1.09209,3.78355 1.9815,7.35051 1.97648,7.92659 -0.0105,1.20364 -0.83688,1.95119 -2.15695,1.95119 -1.12486,0 -5.35455,-2.57773 -8.6547,-5.2745 -1.3582,-1.10987 -4.37445,-3.29065 -6.702783,-4.84618 -4.65904,-3.11264 -8.9002,-6.38261 -11.69567,-9.01745 l -1.81789,-1.71343 -0.25461,1.50702 c -0.336,1.98877 -2.31851,6.29475 -3.93246,8.54124 -0.71028,0.98867 -2.53716,2.96948 -4.05973,4.4018 -3.44425,3.24011 -6.28007,7.45578 -8.29462,12.33062 -0.85229,2.06238 -1.74108,3.87148 -1.97509,4.02021 -0.75244,0.47823 -2.24058,0.29933 -2.79609,-0.33613 z"
         id="path29553" />
      <path
         id="path29325"
         style="fill:#ffdd55;fill-opacity:1;stroke-width:0.35277778"
         d="m 76.703528,104.3199 c 1.7482,-1.79476 3.662263,-3.97757 4.253473,-4.850689 2.15792,-3.186937 3.71267,-7.661434 5.37099,-15.457357 0.3584,-1.684913 1.14609,-4.939517 1.75042,-7.232456 0.95605,-3.627455 1.09877,-4.756736 1.09877,-8.693873 0,-5.906721 -0.48499,-10.448252 -1.92277,-18.005203 -0.64602,-3.395486 -1.27854,-7.409311 -1.40559,-8.919609 -0.40209,-4.779624 -0.45182,-4.774759 -3.34121,0.326806 -5.391203,9.518816 -9.043483,14.213311 -18.486853,23.762247 -7.17171,7.251887 -9.19908,9.768248 -11.50883,14.284734 -2.35828,4.611367 -3.49371,8.571185 -3.92928,13.703385 -0.21137,2.490619 -0.31151,4.601209 -0.22252,4.690189 0.089,0.089 0.90789,-0.0261 1.81981,-0.2557 1.60459,-0.40404 6.06793,-0.28062 7.29179,0.20164 0.48391,0.19069 0.63992,-0.23276 0.99673,-2.70534 0.43331,-3.002715 1.81378,-7.59997 2.70759,-9.016824 0.70092,-1.111092 2.47993,-1.092962 2.9918,0.03048 0.30132,0.661313 0.1689,1.410952 -0.66987,3.792361 -0.57498,1.632468 -1.15641,3.841253 -1.29207,4.908403 -0.13565,1.06715 -0.38137,2.45955 -0.54602,3.09423 -0.29271,1.128237 -0.25869,1.174537 1.52631,2.077306 2.79585,1.41401 5.50714,3.35789 7.64654,5.48226 1.06715,1.05964 2.10947,1.95354 2.31626,1.98642 0.20679,0.0329 1.80633,-1.40866 3.55453,-3.20342 z m -54.95916,0.67033 c 0.51381,-0.55295 1.60889,-1.47339 2.43351,-2.04542 0.82462,-0.57203 1.4993,-1.15942 1.4993,-1.3053 0,-0.14588 -0.73751,-1.27881 -1.63892,-2.517609 -1.94122,-2.667797 -4.3583,-7.423051 -4.3583,-8.57431 0,-1.019648 0.61953,-1.661714 1.60338,-1.661714 1.00594,0 1.70729,0.83239 2.81858,3.345205 0.50751,1.147579 1.85803,3.382082 3.00116,4.965552 l 2.07842,2.879046 2.92215,-0.876579 c 2.10868,-0.632557 4.07724,-0.925527 7.07151,-1.052417 4.97737,-0.21094 4.68051,0.23233 4.39841,-6.567539 -0.29089,-7.011187 -1.48761,-10.225388 -7.05236,-18.941151 -1.59859,-2.50378 -3.60854,-5.832175 -4.46656,-7.39643 -2.78485,-5.077062 -9.29922,-11.212908 -18.62197,-17.539917 -2.8699,-1.947694 -6.3077798,-4.435842 -7.6397298,-5.529221 -1.33196,-1.093378 -2.74282,-2.1598 -3.13526,-2.36983 -0.87031,-0.465773 -0.90541,-0.675901 1.08565,6.498756 1.36151,4.906112 1.99863,8.309504 2.88684,15.421066 0.20598,1.649237 0.35911,6.887987 0.34029,11.641667 -0.0379,9.577155 0.29967,13.295627 1.62458,17.894321 1.7347998,6.021428 3.8813198,9.965154 7.9160298,14.543874 l 2.51798,2.8575 0.89055,-1.33188 c 0.48981,-0.73253 1.31095,-1.78429 1.82476,-2.33724 z m 78.898092,29.7583 c 3.3587,-1.05962 6.44805,-2.64903 11.83859,-6.09072 2.50378,-1.59859 5.83217,-3.60855 7.39643,-4.46657 5.07706,-2.78484 11.21291,-9.29922 17.53992,-18.62196 1.94769,-2.8699 4.43584,-6.307779 5.52922,-7.639726 1.09338,-1.33196 2.1598,-2.74283 2.36983,-3.13526 0.46577,-0.87031 0.6759,-0.90541 -6.49876,1.08565 -4.90611,1.36151 -8.3095,1.99863 -15.42106,2.88684 -1.64924,0.205977 -6.88799,0.359107 -11.64167,0.340287 -9.57716,-0.0379 -13.295629,0.29967 -17.894319,1.624569 -6.0274,1.73653 -9.96447,3.88071 -14.55813,7.92858 l -2.871733,2.53054 1.34612,0.89129 c 1.909873,1.26456 3.198783,2.50526 4.396903,4.23243 0.57203,0.82461 1.15942,1.4993 1.3053,1.4993 0.14588,0 1.27881,-0.73752 2.51761,-1.63893 2.6678,-1.94121 7.42305,-4.35829 8.57431,-4.35829 1.01965,0 1.66172,0.61953 1.66172,1.60338 0,1.00594 -0.83239,1.70728 -3.34521,2.81857 -1.14758,0.50752 -3.38208,1.85804 -4.96555,3.00117 l -2.87905,2.07842 0.87491,2.92215 c 0.62061,2.07282 0.92681,4.10129 1.0535,6.97909 0.10546,2.39531 0.3409,4.17381 0.57486,4.34227 0.21794,0.15694 2.69813,0.21349 5.51154,0.12567 3.96477,-0.12376 5.67069,-0.3349 7.584719,-0.93875 z m -94.9573818,0.96872 c -0.35712,-1.39927 -0.38441,-6.02818 -0.0445,-7.54654 l 0.24812,-1.10835 -2.89396,-0.41755 c -2.97075001,-0.42863 -7.56887,-1.81232 -8.97938,-2.70212 -1.11109,-0.70092 -1.09296,-2.47993 0.0305,-2.9918 0.66132,-0.30132 1.41096,-0.1689 3.79237,0.66987 1.63245999,0.57498 3.84124,1.15641 4.9084,1.29207 1.06715,0.13565 2.45955,0.38137 3.09423,0.54602 1.12823,0.29271 1.17454,0.25869 2.07731,-1.52631 1.37568,-2.72007 3.3470098,-5.50026 5.5574798,-7.8378 1.08404,-1.14635 1.97098,-2.17803 1.97098,-2.29263 0,-0.41116 -6.5595598,-6.58791 -8.1138898,-7.64037 -3.18694,-2.15792 -7.66144001,-3.71267 -15.45736,-5.370986 -1.68491,-0.3584 -4.9395202,-1.14609 -7.2324502,-1.75042 -3.62745,-0.95605 -4.75673,-1.09877 -8.69387,-1.09877 -5.90672,0 -10.44825,0.48499 -18.0052,1.92277 -3.39549,0.64602 -7.40931,1.278537 -8.91961,1.405587 -4.77963,0.40209 -4.77476,0.45182 0.3268,3.341209 9.51882,5.3912 14.21331,9.04348 23.76225,18.48685 7.25189,7.17171 9.76825,9.19908 14.28473,11.50884 5.4196402,2.77163 10.2802302,3.95892 17.2287202,4.20845 l 1.35094,0.0485 z M 125.21133,180.93999 c 2.00934,-0.20575 6.43148,-0.90265 9.82696,-1.54868 3.39549,-0.64602 7.40931,-1.27854 8.91961,-1.40559 4.77962,-0.40209 4.77476,-0.45182 -0.32681,-3.34121 -9.51881,-5.3912 -14.21331,-9.04348 -23.76224,-18.48685 -7.25189,-7.17171 -9.76825,-9.19908 -14.28474,-11.50884 -4.61136,-2.35828 -8.571179,-3.4937 -13.703379,-3.92927 -2.49062,-0.21138 -4.60121,-0.31151 -4.69019,-0.22253 -0.089,0.089 0.0261,0.9079 0.2557,1.81981 0.40404,1.6046 0.28062,6.06794 -0.20164,7.29179 -0.19069,0.48391 0.23276,0.63992 2.70534,0.99673 3.00271,0.43332 7.59997,1.81379 9.01682,2.7076 1.111099,0.70092 1.092969,2.47993 -0.0305,2.9918 -0.66131,0.30132 -1.41095,0.1689 -3.79236,-0.66987 -1.63247,-0.57498 -3.84125,-1.15641 -4.90841,-1.29207 -1.06715,-0.13565 -2.45955,-0.38137 -3.09423,-0.54602 -1.12823,-0.29271 -1.17454,-0.25869 -2.07731,1.52631 -1.37568,2.72007 -3.34701,5.50026 -5.55748,7.8378 -1.084043,1.14635 -1.970983,2.17803 -1.970983,2.29263 0,0.41116 6.559563,6.58791 8.113893,7.64037 3.14995,2.13286 8.65537,4.02579 15.698609,5.39766 1.16417,0.22675 3.70417,0.86349 5.64445,1.41496 1.94028,0.55148 3.92465,1.07216 4.40972,1.15708 1.79626,0.31446 10.27192,0.23859 13.80915,-0.12361 z m -171.046882,0.43571 c 4.90611,-1.36151 8.30951,-1.99863 15.42107,-2.88684 1.64923,-0.20598 6.88798,-0.35911 11.64166,-0.34029 9.5771602,0.0379 13.2956302,-0.29967 17.89433019,-1.62457 6.02142001,-1.7348 9.96515001,-3.88132 14.54386981,-7.91603 l 2.8575,-2.51799 -1.33188,-0.89055 c -1.87193,-1.25167 -3.17584,-2.51856 -4.38265,-4.25827 -0.57204,-0.82461 -1.1594198,-1.4993 -1.3053098,-1.4993 -0.14588,0 -1.27881,0.73752 -2.51761,1.63893 -2.6678,1.94121 -7.42305001,4.35829 -8.57431,4.35829 -1.01965,0 -1.66171,-0.61953 -1.66171,-1.60338 0,-1.00594 0.83239,-1.70728 3.34519999,-2.81857 1.14758001,-0.50752 3.38208001,-1.85804 4.96556001,-3.00117 l 2.87905,-2.07842 -0.87658,-2.92215 c -0.63256,-2.10868 -0.92553,-4.07724 -1.05243,-7.07151 -0.21093,-4.97737 0.23233,-4.68051 -6.56754001,-4.3984 -7.01160999,0.29088 -10.22581019,1.4876 -18.94158019,7.05235 -2.50378,1.59859 -5.83217,3.60855 -7.39643,4.46657 -5.07706,2.78484 -11.2129,9.29922 -17.53991,18.62196 -1.9477,2.8699 -4.43585,6.30778 -5.52922,7.63973 -1.09338,1.33196 -2.1598,2.74283 -2.36983,3.13526 -0.46578,0.87031 -0.67591,0.90541 6.49875,-1.08565 z m 135.747423,52.07312 c -1.63791,-5.62264 -2.40977,-9.21554 -3.01507,-14.03474 -0.30463,-2.42535 -0.64099,-4.96535 -0.74746,-5.64444 -0.10648,-0.6791 -0.17331,-5.1241 -0.14852,-9.87778 0.0499,-9.56397 -0.28566,-13.28466 -1.61372,-17.89432 -1.73653,-6.0274 -3.88071,-9.96447 -7.928583,-14.55813 l -2.53054,-2.87173 -0.89129,1.34612 c -1.26456,1.90987 -2.50526,3.19878 -4.23243,4.3969 -0.82461,0.57203 -1.4993,1.15942 -1.4993,1.3053 0,0.14588 0.73752,1.27881 1.63893,2.51761 1.94121,2.6678 4.35829,7.42305 4.35829,8.57431 0,1.01965 -0.61953,1.66172 -1.60338,1.66172 -1.00594,0 -1.70728,-0.83239 -2.81857,-3.34521 -0.50752,-1.14758 -1.85804,-3.38208 -3.00117,-4.96555 l -2.07842,-2.87905 -2.92215,0.87658 c -2.10867,0.63256 -4.07724,0.92553 -7.07151,1.05242 -4.97737,0.21094 -4.6805,-0.23233 -4.3984,6.56754 0.29089,7.01162 1.4876,10.22582 7.05236,18.94158 1.59858,2.50378 3.60854,5.83217 4.46656,7.39643 2.79942,5.10364 9.30602,11.21952 18.750543,17.62457 2.94061,1.99426 5.84433,4.05724 6.45271,4.58441 2.35618,2.04165 4.61443,3.59368 4.72896,3.2501 0.0659,-0.19774 -0.36062,-2.00883 -0.94784,-4.02464 z m -79.248493,2.01665 c 5.16973,-9.16809 8.9222,-13.9791 18.29801,-23.45972 7.17171,-7.25189 9.19908,-9.76825 11.50883,-14.28474 2.35828,-4.61136 3.49371,-8.57118 3.92927,-13.70338 0.21138,-2.49062 0.31152,-4.60121 0.22253,-4.69019 -0.089,-0.089 -0.9079,0.0261 -1.81981,0.2557 -1.6046,0.40404 -6.06794,0.28062 -7.29179,-0.20164 -0.48391,-0.19069 -0.63992,0.23276 -0.99673,2.70534 -0.43331,3.00271 -1.81379,7.59997 -2.7076,9.01682 -0.70092,1.1111 -2.47992,1.09297 -2.9918,-0.0305 -0.30132,-0.66131 -0.1689,-1.41095 0.66987,-3.79236 0.57498,-1.63247 1.15641,-3.84125 1.29207,-4.9084 0.13566,-1.06715 0.38137,-2.45955 0.54603,-3.09423 0.2927,-1.12824 0.25868,-1.17454 -1.52632,-2.07731 -2.72007,-1.37568 -5.50025,-3.34701 -7.8378,-5.55748 -1.14635,-1.08405 -2.17803,-1.97099 -2.29262,-1.97099 -0.41117,0 -6.58791,6.55956 -7.64037,8.11389 -2.1837498,3.2251 -3.7513598,7.76627 -5.3920398,15.62009 -0.37381,1.78944 -1.09665,4.6029 -1.6063,6.25214 -1.79459,5.80733 -1.57578,15.78787 0.58779,26.81056 0.59037,3.00773 1.21798,6.89735 1.3947,8.6436 0.3992,3.94481 0.6727,5.27137 1.00729,4.88557 0.14283,-0.1647 1.33388,-2.20446 2.6467898,-4.53279 z" />
      <path
         id="path29317"
         style="fill:#6c5d53;stroke-width:0.35277778"
         d="m 59.347388,102.67667 c 0.10759,-0.17408 -0.30413,-0.49073 -0.91493,-0.70365 -1.57844,-0.55025 -1.90594,-0.48191 -1.23634,0.25799 0.32111,0.35483 0.58384,0.83666 0.58384,1.07075 0,0.45993 1.19021,-0.0147 1.56743,-0.62509 z m -17.58574,1.32513 c 0.28637,-0.46336 -0.77481,-1.3603 -1.59981,-1.35219 -0.30246,0.003 -0.78806,0.16474 -1.0791,0.35948 -0.45802,0.30647 -0.4371,0.42432 0.15562,0.87654 0.81585,0.62246 2.17181,0.68488 2.52329,0.11617 z m -11.7166,0.66669 c 0.23259,-0.96933 0.22815,-0.97201 -0.86672,-0.52526 -1.29538,0.52857 -1.39778,1.06432 -0.25877,1.35392 0.97714,0.24845 0.84342,0.3469 1.12549,-0.82866 z m 24.55451,0.3459 c 0.007,-0.84711 -0.98525,-1.17794 -1.62242,-0.54078 -0.60802,0.60803 -0.32165,1.60627 0.51133,1.78238 0.67524,0.14277 1.1033,-0.33558 1.11109,-1.2416 z m -19.20022,2.0602 c 0.5483,-0.40715 0.60681,-0.63568 0.29356,-1.14653 -0.44036,-0.71815 -2.09741,-0.87798 -2.04294,-0.19705 0.0194,0.24254 0.0591,0.75847 0.0882,1.14653 0.0623,0.83075 0.70512,0.907 1.66119,0.19705 z m 26.54359,0.47529 c 0.0583,-0.50002 -0.11431,-1.09199 -0.38361,-1.31549 -0.38442,-0.31904 -0.67256,-0.21167 -1.34076,0.4996 -0.84066,0.89485 -0.84253,0.91224 -0.15237,1.4169 0.97943,0.71618 1.75197,0.46878 1.87674,-0.60101 z m 6.06758,2.61863 c 0,-0.73088 -1.0037,-1.87986 -1.64217,-1.87986 -0.56535,0 -0.61667,0.83906 -0.1093,1.78708 0.45234,0.84521 1.75147,0.91402 1.75147,0.0928 z m -24.34166,-0.31318 c 0,-0.89373 -0.51039,-1.08534 -1.39708,-0.52448 -0.44132,0.27914 -0.42193,0.42884 0.13534,1.04461 0.77735,0.85897 1.26174,0.65928 1.26174,-0.52013 z m -15.14177,0.88795 c 0.94403,-0.50522 0.28833,-1.74907 -0.92203,-1.74907 -0.99103,0 -0.98845,-0.006 -0.52549,1.21175 0.38695,1.01774 0.48314,1.05345 1.44752,0.53732 z m 22.5733,3.1774 c 0.62298,-0.33341 0.94233,-1.72669 0.49768,-2.17134 -0.10157,-0.10157 -0.58264,-0.10861 -1.06903,-0.0156 -1.127,0.21544 -1.78404,1.33823 -1.19702,2.04554 0.4997,0.60211 0.85456,0.63049 1.76837,0.14143 z m -12.20846,0.17295 c 0.68295,-0.5164 0.68201,-0.53169 -0.0794,-1.29306 -0.74667,-0.74666 -0.80891,-0.75215 -2.01404,-0.17746 -1.38109,0.6586 -1.54905,1.097 -0.6262,1.63451 0.87251,0.50819 1.91365,0.44541 2.71959,-0.16399 z m 20.29915,0.96835 c 0,-1.25357 -0.58087,-1.83444 -1.83444,-1.83444 -2.01821,0 -0.57521,2.56858 1.56986,2.79437 0.14552,0.0153 0.26458,-0.41665 0.26458,-0.95993 z m 5.4392,1.47921 c 0.89248,-0.34248 0.67414,-1.44531 -0.32392,-1.6361 -0.77454,-0.14806 -0.88195,-0.0457 -0.88195,0.84081 0,1.02983 0.21874,1.17408 1.20587,0.79529 z m -18.57858,-0.3344 c 0.0494,-0.0235 -0.081,-0.53242 -0.28965,-1.13106 -0.36125,-1.0363 -0.43317,-1.07034 -1.5009,-0.71039 -1.53516,0.51753 -1.52854,0.48958 -0.37959,1.60021 0.76706,0.74148 1.15404,0.90012 1.55119,0.6359 0.29104,-0.19362 0.56957,-0.37122 0.61895,-0.39466 z m -14.20732,2.44483 c 0.69785,-0.69785 0.57601,-1.86474 -0.24867,-2.38165 -1.10299,-0.69136 -2.22791,1.5654 -1.26185,2.53146 0.56087,0.56087 0.82615,0.53456 1.51052,-0.14981 z m -13.9051,0.20795 c 0.8452,-0.45234 0.91402,-1.75147 0.0928,-1.75147 -0.73089,0 -1.87987,1.0037 -1.87987,1.64217 0,0.56535 0.83906,0.61667 1.78709,0.1093 z m 31.37403,1.62877 c 0,-0.55285 -0.50559,-1.26358 -0.89887,-1.26358 -0.59096,0 -0.97652,0.59254 -0.68863,1.05834 0.20769,0.33605 1.5875,0.51444 1.5875,0.20524 z m -8.40625,-0.0835 c 0.35482,-0.32112 0.64513,-0.86566 0.64513,-1.2101 0,-0.51913 -0.17006,-0.57748 -0.99426,-0.3411 -0.54685,0.15683 -1.38029,0.50294 -1.85208,0.76912 -0.47181,0.26619 -0.91341,0.5131 -0.98134,0.5487 -0.0679,0.0356 -0.0189,0.23404 0.10901,0.44097 0.35845,0.57998 2.35206,0.44533 3.07354,-0.20759 z m 35.21735,-0.68707 c 0,-0.76226 -0.11644,-0.85812 -0.79375,-0.65349 -1.20076,0.36278 -1.42786,0.71635 -0.988,1.53823 0.32557,0.60835 0.52917,0.67893 1.09101,0.37824 0.40662,-0.21761 0.69074,-0.73711 0.69074,-1.26298 z m -51.50555,1.65254 c 0,-1.53653 -1.57252,-2.01079 -1.85023,-0.55802 -0.14806,0.77454 -0.0457,0.88195 0.84082,0.88195 0.55517,0 1.00941,-0.14577 1.00941,-0.32393 z m 31.78307,0.30623 c 0.9199,-0.49231 0.56878,-0.95895 -1.3359,-1.77539 -1.92488,-0.8251 -1.87217,-0.82438 -1.87217,-0.0255 0,0.83125 1.10852,1.81946 2.40444,2.14349 0.0613,0.0153 0.4229,-0.13886 0.80363,-0.34262 z m 24.570293,-0.36948 c -0.56329,-1.38048 -1.02193,-1.46561 -1.34703,-0.25003 -0.25757,0.96311 -0.24445,0.97423 1.52732,1.29472 0.14608,0.0264 0.065,-0.44369 -0.18029,-1.04469 z m -18.296783,0.1652 c 0.23244,-0.51014 0.37698,-0.96489 0.32121,-1.01055 -0.33451,-0.27385 -1.69459,-0.88414 -1.97038,-0.88414 -0.18033,0 -0.32787,0.635 -0.32787,1.41111 0,1.21929 0.10565,1.41111 0.77722,1.41111 0.49687,0 0.92964,-0.33456 1.19982,-0.92753 z m 5.97008,2.62087 c 0.65447,-0.65447 0.50707,-1.17652 -0.48157,-1.70563 -1.48158,-0.79292 -2.85066,0.43966 -1.73147,1.55885 0.67445,0.67446 1.62249,0.73733 2.21304,0.14678 z m -38.38221,-0.4501 c 0,-0.49687 -0.33457,-0.92964 -0.92754,-1.19982 -0.51014,-0.23244 -0.96489,-0.37698 -1.01054,-0.32121 -0.27386,0.33451 -0.88415,1.69459 -0.88415,1.97038 0,0.18033 0.635,0.32787 1.41111,0.32787 1.2193,0 1.41112,-0.10565 1.41112,-0.77722 z m 4.89589,0.90746 c 0.56138,-0.35556 0.23346,-1.09236 -0.48617,-1.09236 -0.60541,0 -0.9968,0.58708 -0.70556,1.05833 0.26546,0.42952 0.55431,0.43777 1.19173,0.034 z m 9.56799,0.0157 c 0,-0.3378 0.14807,-0.76499 0.32903,-0.94931 0.20395,-0.20774 0.16635,-0.5552 -0.0989,-0.91398 -0.38672,-0.52309 -0.53366,-0.48439 -1.5255,0.40182 l -1.09756,0.98067 0.8437,0.45154 c 0.46403,0.24834 0.8437,0.59283 0.8437,0.76552 0,0.17269 0.15875,0.21587 0.35278,0.0959 0.19402,-0.11991 0.35277,-0.49441 0.35277,-0.83221 z m -28.56024,0.27548 c 0.53118,-0.99251 0.18201,-1.73632 -0.81507,-1.73632 -1.39289,0 -1.78208,0.71624 -0.89961,1.65558 0.94165,1.00235 1.21457,1.0152 1.71468,0.0807 z m 34.20469,2.20086 c 0,-0.33717 -1.77732,-1.21912 -2.00267,-0.99378 -0.0812,0.0812 0.10943,0.40463 0.42357,0.71877 0.6042,0.6042 1.5791,0.77398 1.5791,0.27501 z m 11.17041,0.0961 c 0.2791,-0.72732 -0.45241,-1.48679 -0.95142,-0.98778 -0.404,0.404 -0.0992,1.54066 0.41315,1.54066 0.17936,0 0.42158,-0.2488 0.53827,-0.55288 z m 18.096083,0.39344 c 0.75644,-0.91146 0.29105,-1.79469 -0.877793,-1.66588 -1.35068,0.14885 -1.41713,0.24068 -0.93691,1.29466 0.45132,0.99053 1.177443,1.13907 1.814703,0.37122 z m -22.927983,-1.30281 c 0.008,-0.42338 -0.37579,-0.61724 -1.42067,-0.71689 -1.29681,-0.12367 -1.41395,-0.0688 -1.23954,0.58031 0.10594,0.39429 0.19479,0.97462 0.19744,1.28963 0.004,0.52848 0.0994,0.52848 1.22805,0 0.67278,-0.31501 1.2284,-0.83388 1.23472,-1.15305 z m -45.55372,1.05687 c 0.36199,-0.11088 0.31305,-0.34131 -0.20959,-0.98675 l -0.68188,-0.84207 -0.4077698,1.16974 c -0.56518,1.62128 -0.51083,1.96915 0.2095898,1.34156 0.33955,-0.2958 0.82989,-0.60291 1.08965,-0.68248 z m 34.08486,1.13531 c 0.11164,-0.18062 0.0416,-0.42812 -0.15556,-0.54999 -0.1972,-0.12187 -0.35854,0.0259 -0.35854,0.3284 0,0.61967 0.21169,0.71091 0.5141,0.22159 z m -4.55027,-0.18955 c 0.51978,-0.39314 0.55728,-0.51949 0.15562,-0.52434 -0.9874,-0.012 -2.10962,0.41551 -1.91549,0.72962 0.28568,0.46225 0.9852,0.38065 1.75987,-0.20528 z m -17.75606,-0.0994 c 0.29816,-0.33955 0.65096,-0.97455 0.784,-1.41111 0.21175,-0.69484 0.11584,-0.79375 -0.76966,-0.79375 -1.27646,0 -1.85822,0.57431 -1.85822,1.83444 0,1.16353 0.97538,1.35947 1.84388,0.37042 z m 30.2589,2.02847 c 0,-0.19402 -0.07,-0.35277 -0.15557,-0.35277 -0.0856,0 -0.25368,0.15875 -0.3736,0.35277 -0.11991,0.19403 -0.0499,0.35278 0.15557,0.35278 0.20548,0 0.3736,-0.15875 0.3736,-0.35278 z m -17.94809,0.71037 c 0.52848,-0.004 0.52848,-0.0994 0,-1.22805 -0.80773,-1.72512 -1.69611,-1.63678 -1.86993,0.18594 -0.12367,1.29681 -0.0688,1.41396 0.5803,1.23954 0.39429,-0.10594 0.97462,-0.19478 1.28963,-0.19743 z m 37.18146,-0.0125 c 0.6132,-0.67758 0.61558,-0.77602 0.0475,-1.96728 -0.67134,-1.40782 -1.30515,-1.41991 -1.79491,-0.0342 -0.23228,0.65718 -0.18872,1.19445 0.1478,1.82326 0.57663,1.07742 0.76669,1.09861 1.59961,0.17824 z m -43.50695,0.44869 c 0.29163,-0.33955 0.63316,-0.90667 0.75897,-1.26028 0.27824,-0.78201 -0.36764,-2.11046 -0.87395,-1.79754 -0.30872,0.1908 -1.71699,3.08449 -1.71699,3.52804 0,0.41681 1.37277,0.0644 1.83197,-0.47022 z m 9.45691,0.97014 c 0,-0.19403 -0.16812,-0.35278 -0.37359,-0.35278 -0.20548,0 -0.27549,0.15875 -0.15557,0.35278 0.11991,0.19403 0.28803,0.35278 0.3736,0.35278 0.0856,0 0.15556,-0.15875 0.15556,-0.35278 z m -24.8451,0.0828 c 0.67825,-0.46442 0.83971,-1.42475 0.27592,-1.64109 -1.41757,-0.54398 -2.39838,0.34325 -1.53264,1.3864 0.48701,0.58682 0.70667,0.63134 1.25672,0.25469 z m 43.7166,-0.44521 c -0.17472,-0.79551 -0.35481,-1.00926 -0.62373,-0.74035 -0.26891,0.26892 -0.25479,0.64864 0.0489,1.31518 0.23484,0.5154 0.51551,0.84856 0.62373,0.74035 0.10821,-0.10821 0.0862,-0.70004 -0.0489,-1.31518 z m 9.00376,0.80339 c -0.89013,-2.9006 -1.8543,-3.61577 -2.0591,-1.52733 -0.1261,1.28593 0.7134,2.49747 1.73056,2.49747 0.52017,0 0.57582,-0.16433 0.32854,-0.97014 z m 15.886773,0.58451 c 0.47126,-0.88056 0.13621,-2.54641 -0.47157,-2.34463 -0.57528,0.19099 -1.11767,1.80304 -0.84539,2.51259 0.30085,0.78402 0.84459,0.71467 1.31696,-0.16796 z m -6.020213,2.06133 c -0.003,-0.24254 -0.15203,-0.67279 -0.33124,-0.95612 -0.27914,-0.44131 -0.42884,-0.42192 -1.04461,0.13535 -0.39533,0.35776 -0.63377,0.78801 -0.52988,0.95611 0.29338,0.47471 1.9118,0.35977 1.90573,-0.13534 z m -54.3137,0.25413 c 0.75146,-0.90546 -0.12218,-2.35713 -1.33457,-2.21756 -0.80431,0.0926 -0.94799,0.25984 -0.85335,0.99329 0.10449,0.80968 0.91481,1.76389 1.49792,1.76389 0.13319,0 0.44369,-0.24283 0.69,-0.53962 z m 12.84252,0.69081 c 0.59054,-0.59054 0.75115,-1.56231 0.25821,-1.56231 -0.25644,0 -1.11496,1.5068 -1.11496,1.95688 0,0.29948 0.30158,0.16059 0.85675,-0.39457 z m 27.42819,-0.68097 c -0.93341,-1.08433 -0.95072,-1.08876 -1.45338,-0.37202 -0.2798,0.39895 -0.67222,0.83589 -0.87206,0.97097 -0.21262,0.14373 -0.0748,0.33721 0.33233,0.46643 0.38262,0.12145 0.93296,0.3452 1.22297,0.49722 0.29002,0.15202 0.79449,0.10954 1.12105,-0.0944 0.53811,-0.33606 0.50523,-0.47363 -0.35091,-1.4682 z m -4.82521,1.58807 c 0.11991,-0.19403 -0.0388,-0.35278 -0.35278,-0.35278 -0.31395,0 -0.4727,0.15875 -0.35278,0.35278 0.11992,0.19403 0.27867,0.35278 0.35278,0.35278 0.0741,0 0.23286,-0.15875 0.35278,-0.35278 z m -28.81505,-0.645 c 0.12018,-0.81677 -0.16205,-0.94745 -0.95789,-0.44354 -0.59085,0.37413 -0.23527,1.56548 0.40437,1.35483 0.24244,-0.0798 0.49152,-0.48992 0.55352,-0.91129 z m 41.6117,1.32549 c 1.03137,-0.35954 1.06557,-0.43219 0.70582,-1.49931 -0.51695,-1.53346 -0.48242,-1.52626 -1.59709,-0.333 -0.7685,0.82267 -0.91022,1.19096 -0.62955,1.63592 0.19922,0.31583 0.37903,0.57423 0.39958,0.57423 0.0205,0 0.5251,-0.17003 1.12124,-0.37784 z m -22.17578,1.4803 c 0.36536,-0.69837 -0.12845,-2.14498 -0.75187,-2.20259 -2.06126,-0.19047 -2.95756,1.50819 -1.44498,2.73851 0.62315,0.50686 1.80173,0.21935 2.19685,-0.53592 z m -11.25837,0.85864 c 0,-0.37235 -0.67702,-0.52878 -0.87839,-0.20296 -0.12187,0.19719 0.0259,0.35853 0.3284,0.35853 0.30249,0 0.54999,-0.07 0.54999,-0.15557 z m 28.89098,0.89134 c 0.59085,-0.37412 0.23527,-1.56547 -0.40437,-1.35482 -0.49065,0.16158 -0.83326,1.68052 -0.37713,1.672 0.15902,-0.003 0.51069,-0.14571 0.7815,-0.31718 z m -41.62356,0.005 c 0.77554,-0.83022 0.87831,-1.12978 0.5443,-1.58658 -0.33476,-0.45781 -0.61165,-0.49343 -1.48068,-0.19048 -1.02569,0.35756 -1.05385,0.42172 -0.69635,1.58657 0.20492,0.66767 0.441,1.21395 0.52462,1.21395 0.0836,0 0.58228,-0.46056 1.10811,-1.02346 z m 34.91416,0.4487 c 0.23243,-0.51014 0.35619,-0.99395 0.27501,-1.07513 -0.24822,-0.24822 -1.28993,0.96208 -1.28993,1.4987 0,0.81264 0.55772,0.57988 1.01492,-0.42357 z m -25.56331,-0.55279 c 0.21262,-0.14373 0.0748,-0.33721 -0.33233,-0.46643 -0.38262,-0.12145 -0.93295,-0.3452 -1.22297,-0.49722 -0.29001,-0.15202 -0.79448,-0.10954 -1.12104,0.0944 -0.53812,0.33606 -0.50524,0.47363 0.35091,1.4682 0.93341,1.08433 0.95071,1.08876 1.45338,0.37202 0.27979,-0.39895 0.67221,-0.83589 0.87205,-0.97097 z m -14.84024,1.53989 c 0.68022,-0.75163 0.44744,-1.1179 -0.71044,-1.1179 -0.85056,0 -0.97625,0.24887 -0.60902,1.20587 0.27858,0.72596 0.60241,0.70437 1.31946,-0.088 z m 54.97794,1.16687 c 0.39282,-0.39282 -0.18797,-1.97186 -0.85697,-2.3299 -1.08604,-0.58122 -1.9456,0.41537 -1.39691,1.6196 0.37544,0.824 1.7173,1.24688 2.25388,0.7103 z m -18.05875,1.44022 c 0,-0.0856 -0.15875,-0.25368 -0.35278,-0.3736 -0.19403,-0.11992 -0.35278,-0.0499 -0.35278,0.15557 0,0.20548 0.15875,0.3736 0.35278,0.3736 0.19403,0 0.35278,-0.07 0.35278,-0.15557 z m -19.00223,-0.40962 c -0.23483,-0.5154 -0.51551,-0.84856 -0.62372,-0.74035 -0.10821,0.10821 -0.0862,0.70004 0.0489,1.31518 0.17473,0.79551 0.35481,1.00926 0.62373,0.74035 0.26891,-0.26892 0.2548,-0.64864 -0.0489,-1.31518 z m -24.3797,0.89977 c 0.46559,-0.86996 0.32781,-2.16656 -0.25044,-2.35686 -0.60757,-0.19995 -1.26539,1.24303 -1.0173,2.23152 0.26103,1.04001 0.75223,1.08857 1.26774,0.12534 z m 69.017633,0.52001 c 0.27638,-0.72024 -0.65263,-1.64876 -1.37303,-1.37232 -0.69096,0.26515 -1.048283,1.48326 -0.50092,1.70769 0.84625,0.34698 1.66858,0.19981 1.87395,-0.33537 z m -40.628763,0.9093 c 0.11992,-0.19403 0.0499,-0.35278 -0.15557,-0.35278 -0.20547,0 -0.37359,0.15875 -0.37359,0.35278 0,0.19402 0.07,0.35277 0.15556,0.35277 0.0856,0 0.25369,-0.15875 0.3736,-0.35277 z m -11.52866,-1.03031 c 0.12611,-1.28593 -0.7134,-2.49747 -1.73055,-2.49747 -0.52018,0 -0.57583,0.16433 -0.32855,0.97014 0.89013,2.9006 1.8543,3.61577 2.0591,1.52733 z m 30.81752,1.36204 c 0.12367,-1.29681 0.0688,-1.41395 -0.58031,-1.23954 -0.39428,0.10594 -0.97462,0.19479 -1.28963,0.19744 -0.52847,0.004 -0.52847,0.0994 0,1.22804 0.80774,1.72512 1.69611,1.63678 1.86994,-0.18594 z m 5.61117,-0.22346 c 0.8251,-1.92487 0.82438,-1.87216 0.0255,-1.87216 -1.26546,0 -2.41769,2.05553 -1.7996,3.21043 0.49105,0.91755 0.95822,0.56515 1.77412,-1.33827 z m -11.76302,2.13986 c 0.43438,-0.11642 0.70282,-0.35238 0.59654,-0.52435 -0.28568,-0.46225 -0.98521,-0.38065 -1.75987,0.20528 -0.75917,0.5742 -0.27947,0.70577 1.16333,0.31907 z m -5.19951,-0.32868 c 0,-0.30249 -0.16134,-0.45027 -0.35853,-0.3284 -0.19719,0.12187 -0.2672,0.36937 -0.15557,0.54999 0.30241,0.48932 0.5141,0.39808 0.5141,-0.22159 z m -26.11796,-0.13237 c 0.50124,-0.93659 0.44043,-1.83428 -0.17984,-2.6546 -0.51639,-0.68295 -0.53169,-0.68201 -1.29305,0.0794 -0.74667,0.74667 -0.75215,0.80891 -0.17746,2.01404 0.66921,1.40335 1.11797,1.55595 1.65035,0.5612 z m 49.33074,2.02292 c 0.23283,-0.23284 0.42333,-0.86784 0.42333,-1.41111 0,-1.79433 -2.00603,-0.9999 -2.62788,1.04069 -0.21174,0.69484 -0.11584,0.79375 0.76966,0.79375 0.55636,0 1.20205,-0.1905 1.43489,-0.42333 z m -26.74056,0.27214 c 0,-0.35953 -1.15249,-1.25992 -1.61269,-1.25992 -0.76518,0 -0.60258,0.55018 0.28978,0.98055 0.86694,0.41811 1.32291,0.5144 1.32291,0.27937 z m -12.11042,-0.40003 c 0.0575,-0.1819 -0.0451,-0.56752 -0.22784,-0.85694 -0.4442,-0.70331 -1.25378,0.0606 -0.93756,0.88462 0.22718,0.59203 0.97519,0.57427 1.1654,-0.0277 z m 50.900073,-1.53193 c 0.0131,-0.40863 -0.0925,-0.40122 -0.60145,0.0422 -0.33955,0.2958 -0.81828,0.59904 -1.06384,0.67388 -0.33551,0.10224 -0.29635,0.3504 0.15754,0.99842 l 0.60401,0.86236 0.44392,-1.04058 c 0.24415,-0.57233 0.45106,-1.26363 0.45982,-1.53624 z m -68.101093,1.85862 c 0.08,-0.0689 -0.0408,-0.53412 -0.26846,-1.03382 -0.45226,-0.99259 -1.3371,-1.04434 -1.92384,-0.11252 -0.61478,0.97635 -0.0484,1.77444 1.06891,1.5063 0.53784,-0.12908 1.04337,-0.29106 1.12339,-0.35996 z m 23.4437,-0.5254 -0.20156,-1.24205 -1.18719,0.55502 c -1.65333,0.77294 -1.59611,1.71521 0.11274,1.85664 0.72761,0.0602 1.35772,0.10115 1.40024,0.091 0.0425,-0.0102 -0.0134,-0.57745 -0.12423,-1.26057 z m 20.15524,2.53846 c 0,-0.27222 -0.15875,-0.54528 -0.35277,-0.6068 -0.57878,-0.18352 -1.34492,0.47131 -1.07064,0.9151 0.34024,0.55051 1.42341,0.3159 1.42341,-0.3083 z m 19.884353,0.56195 c 0.29966,-0.36107 0.17893,-0.67157 -0.514413,-1.32292 -0.88771,-0.83395 -0.91606,-0.8373 -1.4067,-0.16631 -0.54257,0.74199 -0.63683,1.35458 -0.26555,1.72586 0.40512,0.40512 1.77728,0.25663 2.186663,-0.23663 z m -13.767373,0.6316 c 0.61517,-1.35015 0.53058,-1.47469 -1.0017,-1.47469 -1.22078,0 -1.41111,0.1052 -1.41111,0.77993 0,0.46021 0.32539,0.93686 0.79375,1.16274 1.12392,0.54205 1.16416,0.53042 1.61906,-0.46798 z m -15.26938,-1.55045 c -0.39895,-0.2798 -0.83589,-0.67222 -0.97098,-0.87206 -0.14372,-0.21262 -0.3372,-0.0748 -0.46643,0.33233 -0.12145,0.38262 -0.3452,0.93296 -0.49721,1.22297 -0.15203,0.29002 -0.10955,0.79449 0.0944,1.12105 0.33605,0.53811 0.47362,0.50523 1.46819,-0.35091 1.08433,-0.93341 1.08876,-0.95072 0.37203,-1.45338 z m -23.16387,1.96454 c 0.92966,-1.12017 -1.10599,-2.58659 -2.26053,-1.62841 -0.68976,0.57245 -0.66253,1.04842 0.0928,1.62178 0.80371,0.61011 1.66473,0.61274 2.16775,0.007 z m 43.51511,1.71918 c 0.14806,-0.77454 0.0457,-0.88195 -0.84081,-0.88195 -0.55518,0 -1.00942,0.14577 -1.00942,0.32393 0,1.53653 1.57252,2.01079 1.85023,0.55802 z m -56.80407,-0.31691 c 0.13379,-0.69988 -0.004,-0.88867 -0.75163,-1.0324 -0.50345,-0.0967 -0.94163,-0.15022 -0.97374,-0.11885 -0.0321,0.0314 0.16337,0.58418 0.4344,1.22846 0.53987,1.28332 1.03656,1.25362 1.29097,-0.0772 z m 18.8743,0.14052 c 0,-1.21929 -0.10565,-1.41111 -0.77721,-1.41111 -0.49687,0 -0.92965,0.33456 -1.19983,0.92753 -0.23243,0.51014 -0.37698,0.96298 -0.32121,1.00631 1.58049,1.22777 2.29825,1.06452 2.29825,-0.52273 z m 12.9726,1.0535 c 0,-0.28838 -0.35719,-0.57506 -0.79375,-0.63706 -0.86052,-0.12222 -0.90527,-0.0592 -0.57297,0.80675 0.26839,0.69942 1.36672,0.56305 1.36672,-0.16969 z m -5.46805,0.0595 c 0,-1.26546 -2.05554,-2.41769 -3.21044,-1.7996 -0.89972,0.48152 -0.56974,0.95439 1.22231,1.75161 1.86372,0.82909 1.98813,0.83209 1.98813,0.048 z m -21.0458,0.29632 c 0.1635,-0.15139 0.11715,-0.61181 -0.103,-1.02316 -0.32558,-0.60835 -0.52917,-0.67893 -1.09102,-0.37824 -0.40662,0.21761 -0.69074,0.73711 -0.69074,1.26298 0,0.76226 0.11644,0.85812 0.79375,0.65349 0.43656,-0.1319 0.92752,-0.36368 1.09101,-0.51507 z m 35.59487,-0.056 c 1.23543,-0.60218 1.06276,-1.14555 -0.40993,-1.28997 -1.28593,-0.12611 -2.49748,0.7134 -2.49748,1.73056 0,0.52017 0.16433,0.57582 0.97014,0.32854 0.53358,-0.16374 1.40535,-0.50985 1.93727,-0.76913 z m 21.84745,1.94335 c 1.29388,-1.17095 0.45912,-2.02449 -1.14194,-1.16763 -0.84521,0.45234 -0.91402,1.75147 -0.0928,1.75147 0.32427,0 0.87989,-0.26272 1.23472,-0.58384 z m -13.60428,1.02482 c 0.61011,-0.80372 0.61274,-1.66473 0.007,-2.16776 -1.12017,-0.92966 -2.58659,1.10599 -1.62841,2.26053 0.57245,0.68976 1.04842,0.66253 1.62178,-0.0928 z m -33.14606,0.0237 c -0.097,-0.097 -0.50581,-0.0718 -0.90849,0.056 -1.00033,0.3175 -0.95587,1.5151 0.0616,1.6596 0.60551,0.086 0.82096,-0.0832 0.90849,-0.71327 0.0631,-0.4543 0.0354,-0.90536 -0.0616,-1.00235 z m 20.5446,1.78636 c 0.0751,-0.0625 -0.34574,-0.56422 -0.93527,-1.11493 -0.87129,-0.8139 -1.17726,-0.92423 -1.63499,-0.58952 -0.45976,0.33618 -0.49393,0.6102 -0.18619,1.49298 0.35853,1.02849 0.4316,1.06279 1.49837,0.70316 0.61681,-0.20793 1.18294,-0.42919 1.25808,-0.49169 z m -13.36578,0.97861 c 0,-0.75819 -0.89665,-1.63209 -2.02848,-1.977 -0.69484,-0.21174 -0.79375,-0.11584 -0.79375,0.76966 0,1.27647 0.57431,1.85822 1.83445,1.85822 0.72493,0 0.98778,-0.1732 0.98778,-0.65088 z m 19.77307,1.17099 c 1.21146,-0.62647 1.30996,-1.0568 0.35845,-1.56603 -0.93221,-0.49891 -1.8336,-0.44102 -2.64058,0.16958 -0.65608,0.49642 -0.65712,0.53444 -0.0335,1.22351 0.77205,0.85311 0.97153,0.86801 2.31565,0.17294 z m -12.67239,0.10112 c 0.58123,-1.08604 -0.41536,-1.9456 -1.6196,-1.39691 -0.82399,0.37544 -1.24687,1.7173 -0.71029,2.25388 0.39282,0.39282 1.97185,-0.18797 2.32989,-0.85697 z m 22.34038,2.81835 c -0.36278,-1.20076 -0.71635,-1.42786 -1.53823,-0.988 -0.60835,0.32557 -0.67893,0.52917 -0.37824,1.09101 0.21761,0.40662 0.73711,0.69074 1.26298,0.69074 0.76226,0 0.85812,-0.11644 0.65349,-0.79375 z m -15.34398,0.45711 c 0.44132,-0.27914 0.42192,-0.42884 -0.13534,-1.04461 -0.77736,-0.85897 -1.26174,-0.65928 -1.26174,0.52013 0,0.89373 0.51038,1.08534 1.39708,0.52448 z m -23.62208,0.48984 c 0,-0.96549 -0.70661,-1.91709 -1.42353,-1.91709 -0.85499,0 -0.9112,0.93822 -0.1093,1.82431 0.71547,0.79059 1.53283,0.84006 1.53283,0.0928 z m 5.82765,0.69898 c -0.3843,-0.28589 -0.93993,-0.47389 -1.23472,-0.4178 -0.68931,0.13118 -0.89722,1.56366 -0.32672,2.25108 0.38349,0.46207 0.55642,0.41189 1.35,-0.39176 0.89684,-0.90822 0.89993,-0.92935 0.21144,-1.44152 z m 26.33655,1.79629 c -0.0632,-0.58064 -0.18162,-1.12236 -0.26309,-1.20383 -0.28912,-0.28912 -1.915,0.6644 -1.915,1.12308 0,0.72466 0.80021,1.35041 1.58338,1.23816 0.56189,-0.0805 0.68573,-0.32154 0.59471,-1.15741 z m -19.14854,1.80597 c 0.52322,-0.63044 0.17047,-1.51505 -0.69432,-1.7412 -0.4999,-0.13073 -0.73833,0.0435 -0.89075,0.65074 -0.35847,1.42828 0.70024,2.15662 1.58507,1.09046 z m 24.74969,-0.39749 c -0.0507,-0.56729 -1.78202,-0.90841 -1.78202,-0.35112 0,0.25839 -0.0997,0.72967 -0.22161,1.04728 -0.19837,0.51696 -0.10334,0.52923 0.9068,0.11705 0.62061,-0.25324 1.11419,-0.61918 1.09683,-0.81321 z m -10.95424,1.92817 c 0.45802,-0.30647 0.4371,-0.42432 -0.15562,-0.87654 -0.81585,-0.62246 -2.17181,-0.68488 -2.52329,-0.11617 -0.28637,0.46336 0.77481,1.3603 1.59981,1.35219 0.30246,-0.003 0.78806,-0.16474 1.0791,-0.35948 z m -18.06735,0.80586 c -0.29579,-0.33955 -0.59904,-0.81828 -0.67387,-1.06384 -0.10225,-0.33551 -0.35041,-0.29635 -0.99842,0.15754 l -0.86237,0.60401 1.04059,0.44392 c 1.5857,0.67645 2.15937,0.62207 1.49407,-0.14163 z" />
      <path
         id="path29311"
         style="fill:#ffcc00;stroke-width:0.35277778"
         d="m 45.325648,74.687002 c -0.26588,-7.851899 0.0829,-12.668846 0.9898,-13.670982 0.79331,-0.876604 1.6542,-0.899146 2.41079,-0.06312 0.51053,0.564127 0.54333,1.171046 0.27171,5.027084 -0.30063,4.267679 -0.0908,10.624414 0.36567,11.080175 0.1247,0.124491 0.73267,-0.657949 1.35104,-1.738757 1.80182,-3.149251 3.6109,-5.263971 10.33149,-12.077002 l 6.32849,-6.415521 -0.25311,-1.521979 c -0.30716,-1.84694 -2.22726,-5.990033 -3.58618,-7.73805 -2.94558,-3.788978 -6.73895,-8.284383 -9.55502,-11.323341 -1.74727,-1.885566 -3.63121,-4.147467 -4.18653,-5.026452 -0.55532,-0.878985 -1.1103,-1.598436 -1.23328,-1.598782 -0.12299,-3.49e-4 -0.5781,0.872772 -1.01136,1.940264 -1.36708,3.368255 -4.74315,8.041389 -8.57863,11.874465 -3.08816,3.08623 -3.88851,4.130054 -5.20402,6.787126 -1.32145,2.669089 -1.57415,3.527182 -1.68497,5.721791 -0.12538,2.482787 -0.0832,2.646479 1.1002,4.268343 0.67681,0.927601 2.02212,3.115296 2.98956,4.861546 0.96745,1.74625 2.85591,4.858329 4.19658,6.915732 1.34068,2.0574 2.98904,4.949145 3.66303,6.426095 0.67399,1.47695 1.29008,2.690809 1.3691,2.697462 0.079,0.0067 0.0456,-2.885087 -0.0743,-6.426094 z m 63.320792,20.994772 10.47343,-0.16892 0.94283,-1.36051 c 2.33021,-3.362493 3.38353,-9.009714 4.04202,-21.670633 0.18164,-3.4925 0.49351,-6.904578 0.69303,-7.582394 0.62055,-2.108126 0.54312,-2.155264 -1.98009,-1.20553 -4.2609,1.603798 -6.42198,1.960615 -13.53215,2.2343 -6.56374,0.252653 -7.01968,0.317126 -9.943839,1.406095 -2.40036,0.893904 -3.4442,1.514881 -4.81552,2.864735 -1.51751,1.49376 -1.78496,1.971587 -2.00693,3.585521 -0.14086,1.024149 -0.63373,3.134381 -1.09526,4.689404 -0.46154,1.55502 -1.3091,5.009131 -1.88346,7.675796 -0.57437,2.666661 -1.48928,6.178864 -2.03315,7.804886 l -0.98884,2.95641 1.12817,-0.86051 c 0.6205,-0.47328 2.33765,-2.27467 3.81589,-4.003086 3.69074,-4.315379 8.692149,-8.537152 9.937509,-8.388417 2.2985,0.27451 1.94714,2.300661 -0.78405,4.521401 -1.935979,1.574144 -4.012759,3.632355 -7.516259,7.449032 l -1.81842,1.98097 3.44583,-0.87981 c 3.18928,-0.81431 4.22561,-0.89239 13.919259,-1.04874 z M 3.9763282,97.553704 c -0.50759,-0.66548 -2.33704,-2.41942 -4.06546001,-3.89766 -4.31537999,-3.690737 -8.53714999,-8.692149 -8.38841999,-9.937514 0.27451,-2.298496 2.30066,-1.94714 4.5214,0.784055 1.57415,1.935974 3.63235999,4.012759 7.44903,7.516259 l 1.98098,1.81842 -0.87982,-3.44583 c -0.81431,-3.18885 -0.89239,-4.225181 -1.04873,-13.91883 l -0.16892,-10.473425 -1.36051,-0.942831 c -3.3625,-2.330213 -9.00972,-3.383537 -21.6706402,-4.042025 -3.4925,-0.181642 -6.90458,-0.493504 -7.58239,-0.693029 -2.10813,-0.620546 -2.15527,-0.543122 -1.20553,1.980086 1.60379,4.260899 1.96061,6.421984 2.2343,13.53215 0.25265,6.563748 0.31712,7.019685 1.40609,9.943846 0.89391,2.40036 1.51488,3.444201 2.86474,4.815515 1.49376,1.517509 1.97158,1.784964 3.58552,2.006935 1.02415,0.140857 3.13438,0.633723 4.6894,1.095258 1.55502,0.46154 4.9870602,1.30442 7.6267502,1.87306 3.66839,0.79026 9.39252,2.45258 10.82893,3.14479 0.0584,0.0281 -0.30914,-0.49333 -0.81672,-1.1588 z M -31.247442,151.48374 c 1.29189,-0.88446 3.15874,-2.01627 4.14856,-2.51514 0.98982,-0.49886 3.73255,-2.15646 6.09494,-3.68354 2.36239,-1.52708 5.61676,-3.4279 7.23194,-4.22405 l 2.93668,-1.44754 -6.52638,0.19897 c -7.98835,0.24353 -12.76209,-0.10649 -13.75918,-1.00884 -0.8766,-0.79332 -0.89915,-1.65421 -0.0631,-2.41079 0.56412,-0.51054 1.17104,-0.54334 5.02708,-0.27171 4.26768,0.30062 10.62441,0.0908 11.08018,-0.36568 0.12449,-0.1247 -0.65795,-0.73266 -1.73876,-1.35104 -3.14925,-1.80182 -5.26397,-3.61089 -12.077,-10.33149 l -6.41553,-6.32849 -1.52197,0.25311 c -1.84694,0.30716 -5.99004,2.22726 -7.73805,3.58618 -3.78898,2.94558 -8.28439,6.73895 -11.32334,9.55502 -1.88557,1.74728 -4.14747,3.63122 -5.02646,4.18653 -0.87898,0.55532 -1.59843,1.1103 -1.59878,1.23329 -3.5e-4,0.12298 0.87277,0.57809 1.94027,1.01136 3.32927,1.35125 8.10643,4.78394 11.7322,8.43032 4.83986,4.86737 8.89214,7.06747 13.04639,7.08327 2.04077,0.008 2.37286,-0.10898 4.55033,-1.59974 z m 165.051012,6.35152 c 1.35819,-0.64354 3.04418,-1.61688 3.74663,-2.16297 3.78897,-2.94558 8.28438,-6.73895 11.32334,-9.55502 1.88556,-1.74728 4.14747,-3.63122 5.02645,-4.18653 0.87898,-0.55532 1.59844,-1.1103 1.59878,-1.23329 3.5e-4,-0.12298 -0.87277,-0.57809 -1.94026,-1.01136 -3.36826,-1.36707 -8.04139,-4.74314 -11.87447,-8.57862 -3.08623,-3.08817 -4.13005,-3.88852 -6.78712,-5.20402 -2.65211,-1.31305 -3.53419,-1.57451 -5.677,-1.68271 -2.52276,-0.1274 -2.55049,-0.11888 -4.93812,1.51575 -1.32061,0.90412 -3.21096,2.05202 -4.20078,2.55089 -0.98982,0.49886 -3.73254,2.15646 -6.09493,3.68354 -2.3624,1.52708 -5.61677,3.42796 -7.23195,4.22416 l -2.93668,1.44765 6.52639,-0.19463 c 8.02702,-0.23939 12.76724,0.1066 13.75917,1.00428 0.87661,0.79332 0.89915,1.65421 0.0631,2.41079 -0.56413,0.51054 -1.17105,0.54334 -5.02709,0.27171 -4.26768,-0.30062 -10.62441,-0.0908 -11.08017,0.36568 -0.12449,0.1247 0.65795,0.73266 1.73876,1.35104 3.14925,1.80182 5.26397,3.61089 12.077,10.33149 l 6.41552,6.32849 1.52198,-0.25311 c 0.83709,-0.13921 2.63323,-0.77965 3.99142,-1.42321 z m -159.141172,54.30079 c 1.29991,-0.32803 4.8848,-0.6489 9.03423,-0.80862 6.5637502,-0.25266 7.0196802,-0.31713 9.9438502,-1.4061 2.40036,-0.8939 3.4442,-1.51488 4.81551,-2.86473 1.51750999,-1.49376 1.78495999,-1.97159 2.00693999,-3.58552 0.14085,-1.02415 0.63372001,-3.13439 1.09526001,-4.68941 0.46153,-1.55502 1.30909,-5.00913 1.88345,-7.67579 0.57437,-2.66666 1.48929,-6.17887 2.03315,-7.80489 l 0.98885,-2.95641 -1.12818,0.86051 c -0.6205,0.47328 -2.33765,2.27467 -3.81588,4.00309 -3.69074,4.31538 -8.69216,8.53715 -9.93752,8.38841 -2.2985002,-0.27451 -1.9471402,-2.30066 0.78405,-4.5214 1.93598,-1.57414 4.01276,-3.63235 7.51625999,-7.44903 l 1.81843001,-1.98097 -3.44584,0.87981 c -3.18928,0.81431 -4.22561,0.89239 -13.9192602,1.04874 l -10.47342,0.16892 -0.94283,1.36051 c -2.33022,3.36249 -3.38354,9.00971 -4.04203,21.67063 -0.18164,3.4925 -0.4935,6.90458 -0.69303,7.5824 -0.62054,2.10812 -0.54312,2.15526 1.98009,1.20553 1.28857,-0.48502 3.31263,-1.12657 4.49792,-1.42568 z m 146.762432,2.81851 c -1.6038,-4.2609 -1.96062,-6.42198 -2.2343,-13.53215 -0.25266,-6.56374 -0.31713,-7.01968 -1.4061,-9.94384 -0.8939,-2.40036 -1.51488,-3.4442 -2.86473,-4.81552 -1.49376,-1.51751 -1.97159,-1.78496 -3.58552,-2.00693 -1.02415,-0.14086 -3.13439,-0.63373 -4.68941,-1.09526 -1.55502,-0.46154 -5.00913,-1.3091 -7.675789,-1.88346 -2.66666,-0.57437 -6.17887,-1.48928 -7.80489,-2.03315 l -2.95641,-0.98884 0.86051,1.12817 c 0.47328,0.6205 2.27467,2.33765 4.00309,3.81589 4.31538,3.69074 8.537149,8.69215 8.388409,9.93751 -0.27451,2.2985 -2.300659,1.94714 -4.521399,-0.78405 -1.57414,-1.93598 -3.63235,-4.01276 -7.44903,-7.51626 l -1.98097,-1.81842 0.87981,3.44583 c 0.81431,3.18928 0.89239,4.22561 1.04874,13.91926 l 0.16892,10.47343 1.36051,0.94283 c 3.36015,2.32858 8.98383,3.37848 21.670629,4.04574 3.4925,0.18368 6.82625,0.4819 7.40834,0.6627 2.29095,0.7116 2.35081,0.62684 1.37959,-1.95348 z m -75.991842,30.74085 c 1.36707,-3.36826 4.74315,-8.04139 8.57863,-11.87447 3.08816,-3.08623 3.88851,-4.13005 5.20401,-6.78712 1.31305,-2.65211 1.57451,-3.53419 1.68271,-5.677 0.1274,-2.52276 0.11888,-2.55049 -1.51575,-4.93812 -0.90412,-1.32061 -2.05202,-3.21096 -2.55089,-4.20078 -0.49886,-0.98982 -2.15645,-3.73254 -3.68354,-6.09493 -1.52708,-2.3624 -3.42795,-5.61677 -4.22416,-7.23195 l -1.44765,-2.93668 0.19463,6.52639 c 0.23939,8.02702 -0.10659,12.76724 -1.00428,13.75917 -0.79332,0.87661 -1.6542,0.89915 -2.41079,0.0631 -0.51053,-0.56413 -0.54334,-1.17105 -0.27171,-5.02709 0.30062,-4.26768 0.0908,-10.62441 -0.36568,-11.08017 -0.12469,-0.12449 -0.73266,0.65795 -1.35103,1.73876 -1.80182,3.14925 -3.6109,5.26397 -10.3315,12.077 l -6.32848,6.41552 0.25311,1.52198 c 0.30715,1.84694 2.22726,5.99003 3.58618,7.73805 2.94557,3.78897 6.73895,8.28438 9.55502,11.32334 1.74727,1.88556 3.63121,4.14747 4.18653,5.02645 0.55531,0.87898 1.11029,1.59844 1.23328,1.59878 0.12299,3.5e-4 0.5781,-0.87277 1.01136,-1.94026 z" />
      <path
         id="path29289"
         style="fill:#00aad4;stroke-width:0.35277778"
         d="m 69.530358,34.985976 c -0.82794,-0.526397 -3.65013,-6.129979 -4.33865,-8.614554 -0.98379,-3.550141 -1.61099,-12.769113 -1.09499,-16.09483 0.79194,-5.1041653 2.9317,-9.35226547 6.22833,-12.3651993 3.81959,-3.4908914 9.050163,-3.8727028 11.841663,-0.8643974 1.40705,1.5163237 1.7188,2.35099236 1.7188,4.6017674 0,2.813502 -1.64967,6.163377 -4.74062,9.6264333 -2.954503,3.310181 -4.940093,6.595064 -6.124683,10.132466 -0.80294,2.3977 -0.92648,3.385816 -0.97912,7.831109 -0.0529,4.468534 -0.13825,5.14423 -0.70172,5.55625 -0.72435,0.529657 -1.1977,0.579621 -1.80901,0.190955 z m -84.18082,13.144402 c -3.896,-1.182314 -6.56443,-2.790275 -11.10202,-6.689937 -5.84665,-5.024681 -7.83676,-7.694147 -9.62473,-12.91027 -1.08749,-3.172573 -1.09426,-7.58619 -0.0154,-10.02303 2.97994,-6.730782 10.06284,-7.157456 13.17878,-0.793891 0.98312,2.007792 1.41782,4.179146 2.00685,10.024342 0.67879,6.735967 3.38523,12.095801 8.40685,16.648984 2.5755702,2.335312 2.6928402,2.50715 2.3603202,3.458432 -0.46008,1.316161 -1.6069602,1.378974 -5.2106502,0.28537 z M 136.71399,82.50805 c -0.33955,-0.197767 -0.61403,-0.708879 -0.60996,-1.1358 0.0143,-1.498522 1.74981,-6.693701 2.95762,-8.85347 1.52345,-2.724185 7.35519,-9.55034 9.99891,-11.7039 6.82235,-5.557442 15.9472,-6.519803 20.49186,-2.161198 3.90076,3.741071 2.8988,8.915072 -2.1929,11.323828 -1.96997,0.931951 -4.21947,1.372108 -9.97807,1.952417 -6.70454,0.675629 -12.15945,3.419302 -16.58055,8.339571 -2.34483,2.609575 -2.91434,2.921516 -4.08691,2.238552 z m -219.225872,38.44636 c -2.44744,-0.40862 -6.24062,-1.86528 -8.30231,-3.18827 -2.38856,-1.53273 -5.03934,-4.5643 -5.7087,-6.52877 -1.07636,-3.15895 -0.65864,-6.1148 1.13155,-8.00687 1.42247,-1.50343 2.63567,-1.99697 4.90887,-1.99697 2.80737,0 6.16072,1.65236 9.62077,4.74062 3.31018,2.9545 6.59506,4.94009 10.13246,6.12468 2.3977,0.80294 3.38582,0.92648 7.83111,0.97912 4.46853,0.0529 5.14423,0.13825 5.55625,0.70172 0.99445,1.35999 0.6153,1.84686 -2.99211,3.84225 -3.78648,2.09445 -6.91599,2.91787 -12.7666,3.35908 -5.40873,0.40788 -6.83318,0.40386 -9.41129,-0.0266 z m 261.461052,53.87846 c -1.39752,-0.67592 -3.60192,-2.20922 -5.10532,-3.55108 -3.31018,-2.9545 -6.59507,-4.94009 -10.13247,-6.12468 -2.3977,-0.80294 -3.38581,-0.92648 -7.83111,-0.97912 -4.46853,-0.0529 -5.14423,-0.13825 -5.55625,-0.70172 -0.99401,-1.3594 -0.61479,-1.84714 2.98385,-3.83768 3.96216,-2.19163 6.91173,-2.93616 13.48795,-3.40466 6.27727,-0.4472 9.08783,-0.1683 12.94865,1.28491 3.16112,1.18984 5.37005,2.65288 7.46318,4.94311 3.49089,3.81959 3.8727,9.05016 0.8644,11.84166 -1.51632,1.40705 -2.35099,1.7188 -4.60177,1.7188 -1.61977,0 -2.58874,-0.25494 -4.52111,-1.18954 z M -71.370942,221.1854 c -6.52019,-1.151 -9.70705,-7.50733 -5.92411,-11.81587 2.06111,-2.34747 4.90071,-3.23784 12.89574,-4.04351 6.73597,-0.6788 12.0958,-3.38523 16.64899,-8.40685 2.3359,-2.57622 2.5069,-2.6929 3.45843,-2.35959 0.6042,0.21164 1.04373,0.64741 1.10877,1.09927 0.1758,1.22145 -1.57873,6.72211 -2.89472,9.07533 -1.52485,2.7267 -7.35563,9.55232 -10.00058,11.70688 -4.4702,3.6414 -10.66082,5.56197 -15.29252,4.74434 z M 119.3881,263.70827 c -3.82787,-1.38752 -5.23298,-4.60393 -6.19898,-14.18992 -0.6788,-6.73597 -3.38523,-12.0958 -8.40685,-16.64898 -2.57622,-2.3359 -2.6929,-2.50691 -2.35959,-3.45843 0.21164,-0.6042 0.64741,-1.04374 1.09927,-1.10877 1.22145,-0.1758 6.72211,1.57872 9.07533,2.89471 2.7267,1.52486 9.55232,7.35563 11.70688,10.00058 5.55745,6.82235 6.51981,15.9472 2.1612,20.49186 -2.06268,2.15073 -4.66537,2.8932 -7.07726,2.01895 z M 12.977178,281.81316 c -1.12693,-0.44805 -2.74297,-1.9782 -3.3828798,-3.20309 -0.27372,-0.52394 -0.49767,-1.87779 -0.49767,-3.00856 0,-2.80736 1.6523598,-6.16072 4.7406298,-9.62076 2.9545,-3.31018 4.94008,-6.59507 6.12467,-10.13247 0.80294,-2.3977 0.92648,-3.38581 0.97912,-7.83111 0.0529,-4.46853 0.13825,-5.14423 0.70173,-5.55625 1.35939,-0.99401 1.84713,-0.61479 3.83768,2.98385 2.19162,3.96216 2.93616,6.91173 3.40465,13.48795 0.55722,7.82162 -0.32637,12.43529 -3.25586,17.00051 -1.53274,2.38856 -4.56431,5.03934 -6.52877,5.7087 -1.84472,0.62856 -4.76745,0.71029 -6.1233,0.17123 z" />
      <path
         id="path29285"
         style="fill:#aaeeff;stroke-width:0.35277778"
         d="m 70.742098,17.188648 c 1.04307,-2.316283 2.80515,-4.886138 5.64996,-8.2400246 2.643813,-3.1169147 3.596273,-4.8099907 3.875013,-6.8881972 0.54621,-4.0722902 -4.366153,-4.7064507 -8.035293,-1.0373113 -2.47994,2.4799396 -3.90271,5.5205168 -4.58672,9.8022261 -0.3571,2.235405 0.0903,11.669444 0.61866,13.046453 0.13867,0.36135 0.50529,-0.472797 0.97407,-2.216217 0.41344,-1.537614 1.09038,-3.547731 1.50431,-4.466929 z m -91.30793,21.826576 c -2.10007,-3.989137 -3.02003,-7.395982 -3.47406,-12.865382 -0.53168,-6.40491 -1.85981,-9.230201 -4.33897,-9.230201 -4.76698,0 -5.61194,8.019401 -1.57142,14.914022 1.09309,1.865221 4.62069,5.442042 8.28798,8.403615 1.41821,1.1453 2.6365,2.082363 2.70732,2.082363 0.0708,0 -0.65406,-1.486987 -1.61085,-3.304417 z M 152.13126,69.135038 c 1.49766,-0.383039 4.57474,-0.850149 6.83794,-1.038024 6.40491,-0.531685 9.2302,-1.859813 9.2302,-4.338976 0,-4.749366 -8.01897,-5.612186 -14.86603,-1.59954 -1.81501,1.063663 -4.40498,3.547388 -7.60678,7.294731 -3.36882,3.942818 -3.34469,4.077247 0.37985,2.11647 1.81599,-0.956028 4.52716,-2.051625 6.02482,-2.434661 z M -73.649202,117.43892 c 2.7057,-0.20476 5.137,-0.49403 5.40288,-0.64283 0.3077,-0.1722 -0.2623,-0.43375 -1.56806,-0.71953 -4.58651,-1.00381 -8.29569,-3.04217 -13.3739,-7.34958 -3.11691,-2.64381 -4.80999,-3.59627 -6.8882,-3.87501 -4.0741,-0.54646 -4.70635,4.36625 -1.03448,8.03812 2.75688,2.75688 7.04331,4.52034 11.83676,4.8697 0.38805,0.0283 2.9193,-0.11611 5.625,-0.32087 z m 259.042132,54.51641 c 1.92253,-1.34659 1.29966,-4.98999 -1.297,-7.58665 -2.47994,-2.47994 -5.52052,-3.90271 -9.80223,-4.58672 -2.36991,-0.37859 -12.07553,0.12403 -13.06269,0.67647 -0.31126,0.17418 0.25158,0.43338 1.56551,0.72095 4.58652,1.00381 8.29569,3.04217 13.3739,7.34958 4.35495,3.69393 7.28588,4.78284 9.22251,3.42637 z m -249.559752,44.87341 c 4.33504,-1.57354 6.55092,-3.32454 11.42238,-9.02603 3.36881,-3.94281 3.34469,-4.07724 -0.37985,-2.11646 -3.98658,2.09873 -7.39424,3.01872 -12.86277,3.47268 -6.40491,0.53169 -9.2302,1.85981 -9.2302,4.33898 0,3.67897 5.51316,5.34075 11.05044,3.33083 z m 187.489672,42.95509 c 2.27736,-1.59513 2.89139,-6.30379 1.36899,-10.49797 -1.57354,-4.33504 -3.32454,-6.55092 -9.02603,-11.42237 -3.94281,-3.36882 -4.07724,-3.34469 -2.11646,0.37985 2.09873,3.98658 3.01872,7.39423 3.47268,12.86276 0.37666,4.53739 1.04988,6.94697 2.32549,8.32338 0.9807,1.0582 2.74582,1.21553 3.97533,0.35435 z M 18.509298,277.94418 c 3.31737,-1.60591 5.95576,-6.055 6.82778,-11.51358 0.37859,-2.36991 -0.12402,-12.07553 -0.67647,-13.06269 -0.17418,-0.31126 -0.43338,0.25158 -0.72095,1.56551 -1.0038,4.58652 -3.04217,8.29569 -7.34958,13.3739 -2.62889,3.09933 -3.59638,4.81086 -3.86919,6.84479 -0.41747,3.11244 2.35955,4.45195 5.78841,2.79207 z" />
    </g>
  </g>
</svg>
