<?xml version="1.0" encoding="iso-8859-1"?>
<!-- Generator: Adobe Illustrator 24.1.0, SVG Export Plug-In . SVG Version: 6.00 Build 0)  -->
<svg version="1.1" id="Calque_1" xmlns="http://www.w3.org/2000/svg" xmlns:xlink="http://www.w3.org/1999/xlink" x="0px" y="0px"
	 width="432px" height="432px" viewBox="0 0 432 432" enable-background="new 0 0 432 432" xml:space="preserve">
<g>
	<g>
		<path fill="#1A1A1A" d="M137.414,289.581c-0.093,0.315-0.187,0.632-0.31,1.046c-0.33,0-0.661,0-0.992,0
			c-2.394-0.001-28.969,0.017-31.363-0.017c-0.603-0.009-1.027,0.185-1.46,0.589c-4.687,4.38-9.404,8.729-14.079,13.122
			c-0.913,0.857-1.896,1.235-3.142,1.23c-9.792-0.044-19.584-0.052-29.376-0.075c-0.336-0.001-0.679-0.01-1.005-0.08
			c-1.555-0.335-2.189-2.018-1.235-3.295c0.254-0.341,0.582-0.63,0.896-0.923c4.135-3.847,8.274-7.69,12.411-11.535
			c0.376-0.35,0.746-0.707,1.162-1.103c-0.357-0.34-0.64-0.614-0.929-0.883c-4.137-3.845-8.275-7.689-12.412-11.534
			c-0.315-0.292-0.637-0.579-0.928-0.894c-0.64-0.693-0.845-1.498-0.455-2.376c0.375-0.845,1.081-1.224,1.991-1.227
			c2.548-0.01,5.095-0.01,7.643-0.019c7.305-0.025,14.611-0.031,21.916-0.094c1.475-0.013,2.62,0.434,3.705,1.462
			c4.568,4.327,9.208,8.578,13.805,12.875c0.436,0.408,0.872,0.593,1.468,0.578c1.319-0.034,26.82-0.019,28.14,0.003
			c0.257,0.004,0.607,0.042,0.754,0.206c1.04,1.166,2.4,1.899,3.653,2.774C137.297,289.426,137.312,289.456,137.414,289.581z
			 M97.659,290.617c-3.049,0-5.871,0.009-8.694-0.01c-0.416-0.003-0.685,0.173-0.963,0.432c-3.459,3.222-6.922,6.439-10.383,9.658
			c-0.148,0.138-0.278,0.294-0.519,0.55c0.4,0.021,0.662,0.046,0.924,0.047c2.456,0.009,4.911-0.002,7.367,0.031
			c0.596,0.008,1.033-0.168,1.468-0.576c3.403-3.192,6.827-6.361,10.243-9.539C97.25,291.073,97.38,290.915,97.659,290.617z
			 M61.61,301.172c0.181,0.054,0.26,0.099,0.34,0.099c2.763,0.008,5.525,0.004,8.288,0.023c0.379,0.003,0.628-0.164,0.882-0.4
			c3.505-3.263,7.013-6.521,10.518-9.784c0.117-0.109,0.201-0.255,0.386-0.496c-0.392,0-0.632,0-0.871,0
			c-2.486-0.002-4.973,0.013-7.459-0.018c-0.568-0.007-0.97,0.165-1.382,0.55c-3.336,3.128-6.694,6.234-10.042,9.349
			C62.057,300.693,61.862,300.912,61.61,301.172z M77.094,275.828c0.238,0.256,0.331,0.369,0.438,0.468
			c3.478,3.235,6.961,6.464,10.431,9.707c0.318,0.297,0.646,0.402,1.069,0.401c2.605-0.01,5.209,0,7.814-0.003
			c0.192,0,0.384-0.054,0.653-0.095c-0.148-0.172-0.218-0.27-0.304-0.35c-3.522-3.277-7.049-6.549-10.563-9.835
			c-0.351-0.328-0.729-0.391-1.172-0.387c-2.513,0.022-5.026,0.03-7.538,0.046C77.713,275.781,77.504,275.803,77.094,275.828z
			 M61.613,275.875c0.153,0.201,0.198,0.282,0.263,0.343c3.528,3.282,7.062,6.558,10.579,9.851c0.313,0.293,0.64,0.312,1.01,0.312
			c2.609,0,5.218,0.005,7.826,0.001c0.189,0,0.378-0.052,0.625-0.089c-0.122-0.148-0.173-0.226-0.239-0.287
			c-3.506-3.261-7.017-6.515-10.514-9.786c-0.347-0.324-0.706-0.424-1.158-0.421c-2.547,0.017-5.095,0.014-7.642,0.022
			C62.158,275.821,61.953,275.849,61.613,275.875z"/>
		<path fill="#1A1A1A" d="M329.544,290.801c-8.072,0-45.558,0-53.626,0c-0.086-1.428-0.168-2.783-0.254-4.209
			c8.151,0,45.698,0,53.826,0c0.043-0.283,0.085-0.511,0.111-0.741c0.073-0.67,0.094-1.348,0.216-2.009
			c0.563-3.061,2.943-5.274,6.726-5.103c1.737,0.078,3.32,0.57,4.598,1.956c0.231-0.356,0.436-0.647,0.616-0.953
			c1.733-2.942,4.233-5.157,6.879-7.225c0.82-0.641,1.714-0.565,2.59-0.068c1.788,1.014,3.575,2.03,5.361,3.047
			c6.72,3.822,13.439,7.647,20.163,11.464c0.786,0.446,1.267,1.066,1.25,1.989c-0.016,0.883-0.492,1.469-1.246,1.897
			c-8.349,4.744-16.693,9.497-25.039,14.247c-0.266,0.152-0.534,0.305-0.814,0.428c-0.867,0.382-1.674,0.262-2.414-0.326
			c-2.73-2.168-5.289-4.495-7.015-7.592c-0.074-0.132-0.168-0.253-0.275-0.414c-0.118,0.068-0.24,0.104-0.311,0.185
			c-1.546,1.749-5.56,2.422-8.244,0.813c-1.923-1.154-2.76-2.975-2.977-5.13C329.591,292.333,329.584,291.601,329.544,290.801z
			 M371.637,288.907c-7.251-4.13-14.349-8.173-21.407-12.193c-3.854,2.783-6.626,7.173-7.416,11.386
			c-0.149,0.796-0.126,1.586,0.111,2.367c0.865,2.851,2.161,5.476,4.122,7.737c0.941,1.085,2.03,2.019,3.118,2.937
			C357.336,297.055,364.415,293.022,371.637,288.907z"/>
		<g>
			<g>
				<path fill="#608261" d="M268.993,312.129c0.853-0.157,1.721-0.315,2.587-0.477c0.692-0.13,1.437-0.485,2.06-0.335
					c0.618,0.149,1.096,0.83,1.665,1.234c1.48,1.051,3.008,2.022,4.814,2.425c2.615,0.583,4.574-0.161,6.055-2.388
					c0.626-0.941,1.104-1.98,1.652-2.973c0.77-1.395,1.476-2.831,2.328-4.174c1.225-1.932,2.933-3.303,5.204-3.83
					c2.251-0.522,4.401-0.153,6.391,0.991c1.452,0.834,1.642,2.056,0.63,3.387c-1.728,2.271-3.434,4.558-5.184,6.812
					c-0.732,0.943-1.498,1.873-2.343,2.714c-1.972,1.959-4.372,2.982-7.16,3.149c-1.632,0.098-3.248,0.07-4.862-0.185
					c-0.138-0.022-0.283-0.003-0.432,0.047c1.179,0.544,2.43,0.803,3.693,1.025c2.705,0.476,5.309,0.029,7.88-0.812
					c1.31-0.428,2.617-0.888,3.957-1.195c3.06-0.7,6.105-0.452,9.091,0.444c1.643,0.493,3.261,1.073,4.873,1.659
					c2.074,0.754,4.133,1.549,6.195,2.336c0.486,0.185,0.977,0.373,1.435,0.617c0.831,0.443,1.037,1.188,0.579,2.017
					c-0.147,0.266-0.329,0.525-0.544,0.737c-2.517,2.483-5.322,4.531-8.705,5.69c-2.754,0.944-5.443,0.786-8.018-0.579
					c-1.053-0.558-2.056-1.22-3.046-1.887c-0.813-0.548-1.593-1.151-2.356-1.767c-2.625-2.121-5.61-3.363-8.962-3.731
					c-3.048-0.335-5.971-1.079-8.649-2.63c-0.071-0.041-0.161-0.05-0.422-0.126c0.224,0.401,0.333,0.721,0.543,0.948
					c0.663,0.719,1.32,1.453,2.06,2.087c0.814,0.696,1.705,1.306,2.585,1.921c3.02,2.112,5.045,4.975,6.359,8.377
					c0.331,0.858,0.642,1.724,0.952,2.591c0.113,0.317,0.219,0.64,0.289,0.969c0.261,1.223-0.329,2.008-1.59,1.981
					c-0.977-0.021-1.961-0.136-2.923-0.314c-1.112-0.206-2.227-0.453-3.298-0.81c-3.421-1.14-5.326-3.612-5.893-7.104
					c-0.288-1.779-0.334-3.596-0.562-5.386c-0.158-1.241-0.382-2.482-0.685-3.696c-0.314-1.258-0.9-2.407-1.736-3.42
					c-0.833-1.009-1.646-2.034-2.468-3.051c-0.055,0.031-0.109,0.063-0.164,0.094c0.083,0.404,0.202,0.804,0.244,1.212
					c0.393,3.901,0.212,7.696-1.667,11.291c-1.206,2.306-2.192,4.728-3.276,7.098c-0.038,0.084-0.067,0.172-0.103,0.256
					c-0.733,1.675-1.625,1.936-3.178,0.932c-3.406-2.201-4.403-7.087-2.059-10.369c0.655-0.917,1.464-1.732,2.258-2.539
					c0.969-0.983,2.021-1.884,2.99-2.867c0.578-0.587,1.109-1.233,1.583-1.908c0.833-1.186,0.963-2.516,0.495-3.865
					C269.854,313.891,269.418,313.077,268.993,312.129z"/>
				<path fill="#608261" d="M300.826,265.659c1.442-0.004,2.847,0.06,4.222,0.444c2.061,0.576,3.855,1.579,5.212,3.27
					c0.878,1.095,1.331,2.337,1.205,3.76c-0.121,1.367-0.75,2.403-2.044,2.924c-1.243,0.5-2.444,0.315-3.432-0.589
					c-0.627-0.573-1.151-1.267-1.674-1.944c-0.731-0.946-1.393-1.946-2.134-2.883c-0.357-0.452-0.799-0.852-1.253-1.211
					c-0.916-0.723-1.934-0.826-2.901-0.157c-0.878,0.608-1.698,1.308-2.5,2.017c-1.584,1.402-3.083,2.906-4.717,4.247
					c-2.444,2.005-5.208,3.453-8.276,4.282c-0.233,0.063-0.474,0.102-0.742,0.158c-0.547-0.795-1.08-1.569-1.651-2.398
					c1.127-0.342,2.209-0.658,3.282-0.999c2.731-0.867,5.095-2.263,6.723-4.708c1.162-1.746,1.801-3.663,2.012-5.755
					c0.246-2.444-0.217-4.758-1.055-7.03c-0.456-1.237-0.926-2.472-1.304-3.733c-1.591-5.315-0.06-9.783,3.797-13.573
					c0.907-0.891,1.999-1.512,3.246-1.845c1.504-0.402,2.808-0.036,3.885,1.049c1.467,1.479,2.073,3.304,1.964,5.365
					c-0.112,2.105-0.804,4.032-1.997,5.753c-1.048,1.512-2.163,2.979-3.293,4.432c-1.25,1.607-2.107,3.386-2.455,5.387
					c-0.189,1.086-0.264,2.191-0.402,3.286c-0.118,0.94-0.253,1.877-0.396,2.934c0.257-0.21,0.442-0.35,0.614-0.504
					c2.805-2.517,5.172-5.389,7.2-8.571c1.134-1.78,2.459-3.444,3.773-5.101c1.014-1.278,2.241-2.356,3.639-3.218
					c1.035-0.639,2.145-1.048,3.372-1.105c2.278-0.106,3.885,1.325,4.05,3.597c0.07,0.966-0.057,1.902-0.42,2.797
					c-0.838,2.065-2.167,3.739-4.216,4.667c-1.388,0.629-2.876,1.039-4.323,1.536c-1.447,0.497-2.914,0.942-4.344,1.484
					C302.456,264.114,301.603,264.822,300.826,265.659z"/>
				<path fill="#608261" d="M152.126,309.683c-0.149,0.758-0.309,1.534-0.453,2.314c-0.069,0.376-0.33,0.466-0.654,0.529
					c-1.203,0.236-2.407,0.472-3.603,0.741c-1.415,0.319-2.743,0.866-4.003,1.589c-1.326,0.761-2.133,1.897-2.549,3.35
					c-0.457,1.593-0.487,3.222-0.317,4.842c0.326,3.087,0.13,6.126-0.585,9.14c-0.148,0.626-0.22,1.27-0.352,1.9
					c-0.181,0.861-0.689,1.264-1.558,1.221c-0.365-0.018-0.735-0.08-1.088-0.174c-1.486-0.396-2.941-0.889-4.216-1.774
					c-1.944-1.348-2.956-3.24-3.103-5.587c-0.161-2.567,0.459-4.925,1.955-7.041c1.192-1.685,2.538-3.235,4.028-4.66
					c0.218-0.208,0.493-0.357,0.741-0.533c-0.063-0.075-0.126-0.149-0.188-0.224c-0.169,0.093-0.351,0.167-0.504,0.281
					c-1.405,1.047-2.768,2.138-3.897,3.495c-1.933,2.323-4.434,3.637-7.4,4.092c-1.698,0.261-3.4,0.492-5.1,0.733
					c-0.182,0.026-0.367,0.037-0.55,0.047c-1.353,0.074-1.937-0.44-1.951-1.806c-0.006-0.577,0.059-1.171,0.196-1.732
					c0.57-2.318,1.528-4.465,2.975-6.377c2.125-2.81,5.018-4.245,8.459-4.665c2.847-0.348,5.703-0.169,8.554-0.064
					c3.527,0.13,7.051,0.346,10.578,0.462C149.032,309.832,150.529,309.723,152.126,309.683z"/>
			</g>
			<g>
				<path fill="#445E3C" d="M257.406,325.132c-0.322-0.043-0.629-0.056-0.921-0.128c-4.561-1.116-9.053-2.443-13.347-4.375
					c-1.851-0.833-3.63-1.79-5.255-3.014c-1.916-1.443-3.478-3.183-4.522-5.439c1.248-2.312,2.077-4.799,2.543-7.414
					c0.464-2.599,0.163-5.191-0.078-7.793c0.962-0.361,1.867-0.701,2.859-1.074c0.118,0.34,0.236,0.678,0.353,1.018
					c0.684,1.994,1.604,3.843,3.168,5.319c1.822,1.72,3.419,1.653,5.005-0.294c0.54-0.663,0.987-1.402,1.472-2.11
					c0.169-0.247,0.323-0.504,0.517-0.808c0.4,0.379,0.741,0.723,1.103,1.043c1.696,1.5,3.016,1.595,4.907,0.365
					c0.28-0.182,0.557-0.368,0.863-0.57c0.688,1.29,0.85,2.662,0.991,4.027c0.252,2.446,0.213,4.897,0.099,7.354
					c-0.176,3.802-0.212,7.605,0.24,11.396c0.083,0.699,0.087,1.407,0.113,2.111C257.52,324.858,257.453,324.973,257.406,325.132z"
					/>
				<path fill="#445E3C" d="M200.09,249.388c-0.777-1.682-1.19-3.377-1.191-5.137c-0.001-1.93,0.113-3.86,0.209-5.788
					c0.095-1.898,0.216-3.796,0.354-5.692c0.055-0.753,0.061-1.526,0.447-2.304c0.394,0.042,0.799,0.024,1.166,0.134
					c3.634,1.098,7.273,2.181,10.885,3.347c1.619,0.523,3.055,1.42,4.226,2.689c0.141,0.152,0.262,0.323,0.439,0.545
					c-0.251,0.143-0.456,0.255-0.656,0.375c-0.394,0.235-0.799,0.456-1.177,0.715c-1.341,0.921-1.825,2.192-1.435,3.763
					c0.272,1.096,0.607,2.177,0.937,3.345c-0.526-0.04-1.029-0.123-1.528-0.106c-0.637,0.021-1.301,0.024-1.9,0.209
					c-1.234,0.38-1.789,1.38-1.564,2.648c0.565,3.187,2.465,5.339,5.306,6.723c0.822,0.4,1.694,0.696,2.626,1.074
					c-0.19,0.089-0.326,0.181-0.476,0.218c-0.802,0.198-1.623,0.335-2.407,0.587c-0.487,0.156-0.777,0.031-1.132-0.287
					c-1.257-1.124-2.502-2.269-3.837-3.295c-1.187-0.912-2.453-1.732-3.745-2.491C203.964,249.674,202.107,249.305,200.09,249.388z"
					/>
				<path fill="#445E3C" d="M277.68,307.057c-0.429,0.21-0.75,0.382-1.082,0.527c-3.966,1.73-8.113,2.577-12.441,2.526
					c-1.451-0.017-2.873-0.234-4.253-0.691c-0.199-0.066-0.389-0.16-0.497-0.205c-0.201-2.794-0.396-5.511-0.601-8.357
					c0.25,0.237,0.457,0.438,0.668,0.632c1.047,0.961,2.155,1.052,3.2,0.101c0.647-0.588,1.166-1.335,1.662-2.066
					c0.445-0.655,0.779-1.385,1.19-2.132c0.203,0.053,0.409,0.083,0.596,0.159c1.757,0.714,3.287,1.788,4.679,3.054
					c2.202,2.003,4.373,4.04,6.556,6.065C277.443,306.75,277.509,306.851,277.68,307.057z"/>
			</g>
			<g>
				<path fill="#B06F72" d="M164.564,243.925c-0.296,1.173-0.12,2.312,0.187,3.215c-0.708,1.257-1.398,2.311-1.916,3.443
					c-0.625,1.366-1.593,2.207-3.046,2.541c-0.536,0.123-1.066,0.293-1.576,0.497c-1.536,0.615-2.157,1.783-1.72,3.378
					c0.241,0.88,0.635,1.72,0.974,2.572c0.134,0.336,0.304,0.658,0.541,1.164c-0.349-0.184-0.553-0.275-0.739-0.393
					c-0.441-0.278-0.871-0.572-1.309-0.855c-2.484-1.605-4.889-0.781-6.444,0.594c-0.733,0.648-1.39,1.385-2.07,2.092
					c-0.381,0.396-0.74,0.813-1.151,1.268c-0.558-0.412-0.798-0.908-0.966-1.417c-0.258-0.784-0.47-1.586-0.658-2.391
					c-0.385-1.64-0.799-3.277-1.092-4.934c-0.297-1.68,0.345-2.541,2.028-2.884c1.44-0.294,2.903-0.487,4.332-0.821
					c1.009-0.236,2.006-0.572,2.961-0.974c2.259-0.95,3.959-2.53,5.058-4.738c0.259-0.521,0.529-1.038,0.821-1.542
					c0.438-0.757,1.115-1.105,1.985-1.103C162.16,242.642,163.396,243.105,164.564,243.925z"/>
				<path fill="#B06F72" d="M155.119,297.5c-0.091,0.087-0.128,0.151-0.18,0.166c-2.175,0.64-3.789,2.091-5.296,3.687
					c-0.526,0.557-1,1.163-1.514,1.732c-0.431,0.478-0.864,0.959-1.337,1.393c-0.493,0.452-0.828,0.451-1.235-0.089
					c-0.477-0.632-0.955-1.301-1.247-2.028c-0.604-1.508-1.616-2.628-3.038-3.311c-1.315-0.631-1.71-1.661-1.666-2.985
					c0.092-2.754,0.557-5.43,1.779-7.929c0.282-0.576,0.628-1.123,0.97-1.667c0.159-0.252,0.38-0.466,0.592-0.72
					c3.113,1.585,6.261,2.926,9.637,3.609C153.438,292.102,154.282,294.812,155.119,297.5z"/>
				<path fill="#B06F72" d="M152.256,287.482c-6.459-0.69-17.679-8.812-19.455-14.058c0.506,0.084,0.981,0.237,1.452,0.225
					c0.977-0.026,1.963-0.069,2.923-0.237c0.996-0.175,1.884-0.005,2.75,0.456c0.487,0.259,0.967,0.534,1.464,0.773
					c1.581,0.76,3.134,0.692,4.673-0.153c0.957-0.526,1.733-1.258,2.48-2.034c0.549-0.57,0.659-0.581,1.344-0.223
					c0.19,0.099,0.375,0.212,0.547,0.339c1.302,0.961,2.537,2.029,4.208,2.491c-0.223,0.644-0.41,1.19-0.601,1.733
					c-0.51,1.446-1.046,2.883-1.529,4.337c-0.612,1.847-0.582,3.744-0.341,5.649C152.197,286.987,152.221,287.193,152.256,287.482z"
					/>
				<path fill="#B06F72" d="M182.36,253.983c-3.615,0.899-6.964,2.084-10.483,2.725c-0.852-1.061-1.396-2.148-1.011-3.557
					c0.325-1.191,0.379-2.412,0.153-3.644c-0.047-0.255,0.083-0.613,0.254-0.826c1.308-1.632,1.654-3.505,1.507-5.534
					c-0.057-0.782-0.009-1.572-0.009-2.433c0.157,0.056,0.272,0.074,0.362,0.132c1.158,0.744,2.311,1.497,3.469,2.241
					c0.361,0.232,0.73,0.45,1.101,0.664c2.609,1.511,3.959,3.855,4.393,6.762C182.261,251.626,182.272,252.761,182.36,253.983z"/>
				<path fill="#B06F72" d="M170.486,239.441c-1.711,1.116-3.67,1.709-5.139,3.155c-0.349-0.188-0.662-0.373-0.988-0.53
					c-1.457-0.704-2.962-1.165-4.613-0.912c-1.211,0.185-2.195,0.766-2.956,1.706c-0.423,0.523-0.829,1.072-1.157,1.657
					c-1.354,2.422-3.453,3.849-6.06,4.604c-0.794,0.23-1.601,0.419-2.41,0.59c-1.523,0.321-3.078,0.531-4.536,1.53
					c0.253-2.064,0.777-3.804,2.478-4.947c0.456-0.307,0.943-0.581,1.445-0.803c2.134-0.944,3.963-2.316,5.626-3.931
					c0.748-0.727,1.504-1.446,2.267-2.157c0.291-0.271,0.618-0.504,0.92-0.764c1.089-0.943,2.342-1.282,3.762-1.057
					c2.38,0.377,4.767,0.327,7.158,0.119c0.456-0.04,0.921-0.048,1.377-0.016C168.968,237.779,169.678,238.221,170.486,239.441z"/>
				<path fill="#B06F72" d="M155.322,272.82c-0.635-0.373-1.175-0.652-1.672-0.991c-0.734-0.501-1.411-1.086-2.16-1.563
					c-1.498-0.954-2.5-0.823-3.815,0.358c-0.589,0.529-1.198,1.053-1.863,1.477c-0.83,0.53-1.737,0.519-2.637,0.096
					c-0.582-0.273-1.16-0.57-1.769-0.766c-0.634-0.204-1.304-0.298-2.038-0.457c-0.21-0.702-0.168-1.489-0.092-2.275
					c0.037-0.384,0.272-0.588,0.663-0.639c0.455-0.059,0.905-0.158,1.36-0.224c2.65-0.385,4.858-1.618,6.737-3.489
					c0.674-0.671,1.331-1.358,2.018-2.015c1.15-1.1,2.102-1.255,3.515-0.603c0.25,0.115,0.494,0.246,0.735,0.38
					c1.041,0.577,2.081,1.158,3.093,1.722C156.716,266.781,156.043,269.699,155.322,272.82z"/>
				<path fill="#B06F72" d="M140.882,253.988c0.081,3.608,1.426,8.216,3.201,10.883c-0.461,0.176-0.89,0.381-1.342,0.504
					c-0.976,0.265-1.977,0.442-2.942,0.739c-1.48,0.456-2.232,1.534-2.257,3.1c-0.006,0.397-0.001,0.795-0.001,1.276
					c-0.203-0.078-0.395-0.122-0.557-0.219c-0.962-0.575-1.768-1.325-2.4-2.25c-1.134-1.661-1.986-3.459-2.445-5.42
					c-0.138-0.588-0.135-1.214-0.157-1.824c-0.02-0.547,0.242-0.966,0.77-1.131c2.48-0.779,4.282-2.42,5.843-4.427
					C139.414,254.166,139.874,254.005,140.882,253.988z"/>
				<path fill="#B06F72" d="M184.86,253.494c0.624-4.209,0.411-8.17-3.533-11.021c0.543-0.793,1.072-1.557,1.791-2.18
					c0.318-0.276,0.638-0.315,1.008-0.113c1.407,0.768,2.888,1.332,4.467,1.632c0.399,0.076,0.665,0.317,0.732,0.726
					c0.099,0.603,0.231,1.206,0.256,1.813c0.088,2.15-1.022,7.286-1.979,9.311C186.707,253.607,185.805,253.551,184.86,253.494z"/>
				<path fill="#B06F72" d="M159.524,260.225c-0.436-1.334-0.86-2.451-1.158-3.6c-0.274-1.054-0.182-1.11,0.851-1.385
					c0.591-0.158,1.182-0.322,1.76-0.523c1.603-0.558,2.816-1.588,3.619-3.088c0.304-0.567,0.585-1.147,0.887-1.715
					c0.74-1.391,1.445-1.614,2.824-0.978c0.127,0.867,0.274,1.67,0.352,2.479c0.058,0.607,0.068,1.226,0.025,1.834
					c-0.092,1.329-0.177,2.645,0.941,3.839c-1.036,0.136-1.882,0.237-2.723,0.361c-0.969,0.143-1.942,0.275-2.901,0.471
					C162.386,258.251,160.921,258.918,159.524,260.225z"/>
				<path fill="#B06F72" d="M181.416,239.321c-0.531,0.794-1.019,1.524-1.556,2.327c-1.468-0.758-2.977-1.403-4.354-2.325
					c-0.6-0.402-1.291-0.666-1.938-0.999c-0.156-0.08-0.331-0.155-0.445-0.28c-0.43-0.471-0.839-0.962-1.31-1.507
					c0.668-0.864,1.414-1.706,2.398-2.275c0.307-0.177,0.798-0.249,1.127-0.139C178.069,235.035,180.111,236.766,181.416,239.321z"
					/>
				<path fill="#B06F72" d="M138.812,287.733c-0.694-0.426-1.353-0.805-1.985-1.225c-0.702-0.467-0.979-1.139-0.867-1.981
					c0.142-1.067,0.372-2.104,0.926-3.114c1.333,1.038,2.646,2.06,4.005,3.119C140.225,285.557,139.55,286.596,138.812,287.733z"/>
				<path fill="#B06F72" d="M170.679,241.416c-0.211,1.958,0.043,3.779-0.918,5.489c-1.076-0.55-2.163-0.501-3.275-0.299
					c-0.273-0.743-0.286-1.446-0.134-2.122c0.081-0.359,0.313-0.792,0.61-0.975C168.119,242.793,169.33,242.164,170.679,241.416z"/>
			</g>
			<g>
				<path fill="#BD8668" d="M155.965,299.992c0.12,0.27,0.234,0.544,0.362,0.811c0.437,0.912,0.839,1.844,1.328,2.728
					c0.917,1.657,2.292,2.827,4.123,3.312c1.625,0.431,3.285,0.763,4.949,1.003c1.698,0.245,3.418,0.34,5.131,0.467
					c0.665,0.049,1.338,0.008,2.06,0.008c-0.029-0.022,0.011-0.008,0.017,0.015c0.63,2.458,2.322,3.895,4.596,4.762
					c0.859,0.327,1.729,0.626,2.602,0.917c3.402,1.134,6.806,2.263,10.212,3.386c1.574,0.519,3.16,0.976,4.834,1.072
					c2.053,0.118,3.824-0.48,5.232-1.994c0.939-1.01,1.818-2.075,2.752-3.148c0.084,0.058,0.197,0.106,0.27,0.19
					c1.445,1.671,3.316,2.116,5.412,1.851c0.911-0.115,1.812-0.316,2.718-0.474c0.143-0.025,0.289-0.032,0.542-0.058
					c-0.059,0.368-0.093,0.661-0.156,0.948c-0.486,2.216-1.017,4.423-1.454,6.648c-0.272,1.381-0.385,2.793-0.606,4.185
					c-0.357,2.252-1.76,3.696-3.789,4.493c-1.39,0.546-2.855,0.945-4.319,1.253c-2.549,0.537-5.116,1.002-7.69,1.408
					c-3.508,0.552-6.791-0.082-9.713-2.173c-1.246-0.892-2.454-1.844-3.635-2.821c-1.826-1.51-3.687-2.952-5.892-3.891
					c-0.738-0.314-0.711-0.353-0.566-1.2c0.083-0.482,0.175-0.971,0.181-1.457c0.015-1.284-0.724-2.074-2.011-2.161
					c-0.979-0.066-1.962-0.07-2.942-0.129c-1.548-0.094-3.013-0.533-4.444-1.109c-1.961-0.79-3.889-1.68-5.972-2.122
					c-0.899-0.191-1.813-0.314-2.713-0.501c-0.597-0.124-1.205-0.25-1.768-0.476c-0.889-0.356-1.36-1.071-1.28-2.03
					c0.071-0.852,0.197-1.711,0.418-2.535c0.633-2.362,0.872-4.758,0.835-7.198c-0.02-1.313,0.068-2.627,0.107-3.941
					C155.785,300.019,155.875,300.006,155.965,299.992z"/>
				<path fill="#BD8668" d="M205.619,311.633c0.207-0.243,0.393-0.479,0.597-0.699c1.084-1.172,2.183-2.329,3.255-3.511
					c1.965-2.168,2.641-3.28,3.653-5.933c0.222-0.027,0.462-0.059,0.703-0.085c3.086-0.336,5.296-1.963,6.749-4.649
					c0.436-0.806,0.777-1.669,1.097-2.53c0.721-1.94,1.715-3.728,2.86-5.445c0.629-0.943,1.226-1.911,1.777-2.901
					c0.993-1.782,0.918-3.524-0.349-5.162c-0.638-0.825-1.259-1.669-1.964-2.433c-2.609-2.824-4.94-5.868-7.185-8.981
					c-1.277-1.771-2.618-3.485-4.187-5.009c-1.356-1.316-2.846-2.434-4.696-2.972c-2.248-0.654-4.446-0.321-6.591,0.437
					c-0.697,0.246-1.292,0.258-2.019,0.089c-0.999-0.232-2.065-0.289-3.097-0.252c-1.991,0.071-3.976,0.324-5.967,0.375
					c-1.216,0.031-2.437-0.173-3.725-0.277c0.033-0.295,0.011-0.511,0.084-0.688c0.375-0.905,0.716-1.831,1.177-2.692
					c0.838-1.566,2.092-2.696,3.764-3.361c2.449-0.975,4.884-1.987,7.328-2.973c1.693-0.683,3.391-0.651,4.971,0.254
					c1.352,0.774,2.713,1.591,3.891,2.598c2.892,2.472,5.687,5.057,8.51,7.61c3.187,2.882,6.39,5.747,9.528,8.682
					c1.341,1.254,2.613,2.601,3.777,4.02c1.828,2.23,2.463,4.837,1.963,7.686c-0.254,1.449-0.568,2.887-0.871,4.327
					c-0.474,2.25-1.019,4.486-1.418,6.749c-0.195,1.107-0.149,2.261-0.171,3.394c-0.02,1.012,0.009,2.025,0.028,3.038
					c0.017,0.915-0.333,1.583-1.186,1.996c-1.655,0.801-3.294,1.634-4.939,2.455c-0.493,0.246-1.007,0.459-1.476,0.746
					c-1.007,0.615-1.591,1.5-1.633,2.714c-0.017,0.489-0.094,0.977-0.148,1.464c-0.125,1.134-0.739,1.87-1.841,2.15
					c-0.86,0.218-1.736,0.377-2.606,0.558c-1.771,0.367-3.539,0.747-5.314,1.092C208.114,313.867,206.728,313.145,205.619,311.633z"
					/>
				<path fill="#BD8668" d="M187.369,255.012c-1.846,1.825-2.928,3.824-3.565,6.151c-0.943-0.095-1.849-0.181-2.753-0.278
					c-3.683-0.392-6.949,0.531-9.635,3.146c-2.462,2.398-4.917,4.806-7.299,7.283c-4.106,4.271-3.402,10.513-0.477,14.083
					c0.249,0.304,0.485,0.62,0.74,0.948c-0.139,0.215-0.247,0.396-0.368,0.568c-0.483,0.684-0.678,1.454-0.562,2.27
					c0.103,0.724,0.183,1.489,0.479,2.142c1.178,2.597,2.401,5.174,4.09,7.499c1.253,1.723,2.827,3.054,4.692,4.061
					c0.508,0.274,1.01,0.558,1.518,0.84c-0.173,0.834-0.334,1.608-0.52,2.5c-0.579,0-1.186,0.052-1.781-0.01
					c-1.739-0.179-3.477-0.378-5.209-0.619c-1.213-0.169-2.424-0.378-3.619-0.644c-1.786-0.398-3.085-1.461-3.896-3.099
					c-0.367-0.741-0.764-1.481-1.015-2.264c-1.162-3.619-2.295-7.247-3.394-10.886c-0.247-0.816-0.357-1.68-0.461-2.531
					c-0.231-1.891-0.037-3.735,0.722-5.502c0.278-0.648,0.506-1.321,0.818-1.951c1.755-3.54,2.956-7.261,3.78-11.121
					c0.306-1.435,0.788-2.834,1.224-4.238c0.667-2.144,2.132-3.376,4.351-3.72c1.697-0.263,3.392-0.536,5.087-0.809
					c3.188-0.513,6.274-1.418,9.342-2.406c1.924-0.62,3.845-1.281,5.875-1.476C186.063,254.898,186.603,254.981,187.369,255.012z"/>
				<path fill="#BD8668" d="M213.163,300.031c-0.11-2.119-0.643-3.935-2.268-5.047c0-1.24-0.005-2.338,0.001-3.437
					c0.011-2.025,0.035-4.049,0.04-6.074c0.002-0.858,0.007-1.72-0.056-2.575c-0.217-2.943-1.803-4.885-4.51-5.921
					c-0.998-0.382-2.054-0.611-3.083-0.913c-0.319-0.094-0.637-0.195-0.988-0.303c0-0.149-0.023-0.27,0.003-0.379
					c0.322-1.345-0.187-2.398-1.138-3.303c-1.239-1.179-2.801-1.732-4.376-2.258c-0.288-0.096-0.582-0.172-0.939-0.277
					c0.13-0.285,0.223-0.538,0.354-0.768c1.942-3.409,4.794-5.508,8.722-6.072c1.361-0.195,2.663-0.004,3.794,0.753
					c0.909,0.608,1.802,1.302,2.519,2.12c1.149,1.311,2.221,2.704,3.191,4.153c2.271,3.392,4.564,6.763,7.105,9.962
					c0.626,0.788,1.156,1.66,1.663,2.532c0.641,1.104,0.69,2.275,0.154,3.444c-0.358,0.78-0.712,1.565-1.124,2.316
					c-1.094,1.998-1.973,4.079-2.619,6.267c-0.268,0.907-0.583,1.823-1.034,2.65C217.447,298.968,215.581,299.857,213.163,300.031z"
					/>
				<path fill="#BD8668" d="M209.613,296.569c0.334,0.404,0.673,0.694,0.859,1.062c0.969,1.905,1.228,3.861,0.133,5.802
					c-0.434,0.769-0.966,1.501-1.554,2.159c-0.98,1.097-2.048,2.115-3.066,3.178c-1.697,1.773-3.383,3.555-5.074,5.333
					c-0.402,0.422-0.801,0.846-1.209,1.262c-0.726,0.739-1.613,0.984-2.613,0.781c-0.78-0.158-1.572-0.301-2.323-0.556
					c-4.328-1.469-8.718-2.715-13.155-3.805c-0.594-0.146-1.18-0.337-1.752-0.556c-2.832-1.085-4.122-3.402-3.584-6.546
					c0.318,0.121,0.619,0.232,0.919,0.349c1.57,0.612,3.123,1.27,4.714,1.821c0.862,0.299,1.776,0.49,2.683,0.605
					c2.145,0.272,3.915-0.482,5.295-2.141c0.735-0.883,1.227-1.904,1.625-2.973c0.191-0.514,0.368-1.034,0.579-1.63
					c0.239,0.145,0.442,0.25,0.627,0.382c1.861,1.325,3.847,1.497,5.924,0.604c0.673-0.289,1.321-0.648,1.951-1.024
					c1.378-0.822,2.822-1.464,4.386-1.853C206.626,298.415,208.189,297.797,209.613,296.569z"/>
				<path fill="#BD8668" d="M213.342,325.272c-0.133-1.304,1.031-7.436,2.062-10.851c0.654-0.134,1.355-0.223,2.019-0.43
					c0.813-0.254,1.642-0.524,2.382-0.934c1.448-0.802,2.179-2.111,2.293-3.754c0.036-0.519,0.045-1.044,0.01-1.562
					c-0.038-0.567,0.197-0.94,0.677-1.192c0.271-0.142,0.544-0.282,0.819-0.416c1.68-0.816,3.348-1.658,5.045-2.438
					c1.917-0.882,2.764-2.389,2.846-4.447c0.083-2.082,0.235-4.161,0.366-6.24c0.017-0.267,0.093-0.53,0.17-0.945
					c0.812,0.82,1.183,1.696,1.297,2.672c0.15,1.278,0.235,2.564,0.354,3.845c0.071,0.763,0.147,1.525,0.231,2.287
					c0.464,4.204-0.621,8.028-2.909,11.526c-2.113,3.232-4.285,6.426-6.437,9.633c-0.273,0.407-0.571,0.799-0.884,1.175
					c-0.949,1.141-2.161,1.797-3.654,1.868c-2.144,0.102-4.289,0.18-6.433,0.264C213.509,325.335,213.422,325.292,213.342,325.272z"
					/>
				<path fill="#BD8668" d="M179.924,274.752c-1.389,2.142-2.766,4.125-2.764,6.69c-0.536,0.308-1.069,0.602-1.589,0.916
					c-1.058,0.64-2.012,1.406-2.768,2.395c-1.403,1.836-1.745,3.882-1.156,6.091c0.243,0.911,0.751,1.677,1.496,2.268
					c1.517,1.204,3.055,2.365,4.984,2.865c1.1,0.285,1.992,0.911,2.721,1.792c0.449,0.542,0.942,1.052,1.446,1.544
					c1.608,1.571,3.495,2.083,5.664,1.422c0.636-0.194,1.26-0.428,2.032-0.693c-0.466,1.734-0.901,3.351-2.018,4.673
					c-0.582,0.689-1.354,1.091-2.275,0.981c-0.847-0.101-1.711-0.221-2.517-0.486c-2.857-0.94-5.615-2.12-8.294-3.496
					c-2.683-1.379-4.548-3.489-5.803-6.188c-0.672-1.446-1.339-2.895-2.005-4.343c-0.09-0.195-0.162-0.397-0.249-0.594
					c-0.69-1.573-0.568-3.023,0.566-4.376c0.55-0.656,1.019-1.382,1.497-2.095c0.492-0.734,0.756-1.522,0.579-2.436
					c-0.15-0.777,0.01-1.542,0.393-2.226c0.808-1.445,1.636-2.879,2.492-4.295c0.628-1.039,1.587-1.486,2.8-1.413
					C176.758,273.844,178.284,274.26,179.924,274.752z"/>
				<path fill="#BD8668" d="M198.269,263.215c-2.211,1.592-3.753,3.535-4.819,5.925c-0.927-0.058-1.838-0.131-2.751-0.169
					c-1.47-0.062-2.941-0.137-4.411-0.138c-1.509-0.001-2.729,0.652-3.622,1.869c-0.67,0.913-1.305,1.852-1.996,2.837
					c-0.206-0.056-0.432-0.12-0.66-0.178c-1.454-0.369-2.892-0.828-4.366-1.082c-2.197-0.378-4.104,0.306-5.455,2.107
					c-0.991,1.32-1.848,2.745-2.707,4.158c-0.565,0.93-0.698,2.004-0.393,3.029c0.306,1.028,0.002,1.792-0.662,2.513
					c-0.164,0.178-0.325,0.357-0.535,0.588c-0.223-0.254-0.415-0.439-0.569-0.652c-1.674-2.326-2.387-4.882-1.818-7.733
					c0.233-1.165,0.729-2.215,1.502-3.117c0.438-0.511,0.901-1.011,1.407-1.454c2.357-2.06,4.733-4.098,7.104-6.142
					c0.186-0.16,0.392-0.297,0.576-0.458c2.138-1.861,4.643-2.388,7.389-2.039c1.917,0.243,3.833,0.493,5.75,0.741
					c2.679,0.347,5.326,0.057,7.969-0.377C196.154,263.287,197.108,263.072,198.269,263.215z"/>
				<path fill="#BD8668" d="M191.754,296.738c0.202-0.054,0.343-0.104,0.487-0.127c1.196-0.188,2.236-0.724,3.032-1.607
					c1.5-1.665,3.187-3.015,5.317-3.809c0.638-0.238,1.213-0.723,1.732-1.19c2.272-2.048,2.467-5.068,0.468-7.388
					c-0.515-0.597-1.163-1.081-1.761-1.605c-0.225-0.197-0.48-0.359-0.777-0.579c0.474-1.056,0.932-2.079,1.418-3.162
					c1.373,0.435,2.705,0.781,3.976,1.28c1.78,0.699,2.453,2.218,2.612,4.001c0.062,0.698,0.037,1.413-0.025,2.113
					c-0.271,3.034-0.281,6.065,0.112,9.086c0.138,1.06-0.225,1.806-1.164,2.253c-0.716,0.34-1.445,0.682-2.203,0.902
					c-2.046,0.592-3.96,1.458-5.779,2.559c-0.52,0.315-1.082,0.576-1.65,0.794c-0.708,0.273-1.459,0.279-2.16-0.008
					C193.734,299.573,192.508,298.438,191.754,296.738z"/>
				<path fill="#BD8668" d="M194.824,276.525c-1.289,0.284-2.462,0.502-3.61,0.81c-0.795,0.213-1.583,0.495-2.327,0.845
					c-1.55,0.73-2.464,1.974-2.736,3.677c-0.028,0.177-0.079,0.349-0.133,0.581c-2.09,0.068-3.999,0.616-5.651,2.098
					c-0.476-1.119-0.375-2.181-0.218-3.22c0.216-1.436,0.934-2.584,2.224-3.32c0.478-0.273,0.96-0.548,1.465-0.767
					c1.433-0.622,2.878-1.22,4.32-1.821C190.546,274.412,192.703,274.889,194.824,276.525z"/>
				<path fill="#BD8668" d="M199.124,277.265c-0.397-0.249-0.672-0.429-0.953-0.597c-1.422-0.847-2.808-1.764-4.277-2.519
					c-2.251-1.158-4.586-1.243-6.922-0.19c-1.898,0.856-3.791,1.721-5.766,2.618c0.036-0.128,0.038-0.239,0.092-0.314
					c0.998-1.399,2.013-2.785,3-4.192c0.623-0.887,1.43-1.272,2.521-1.168c2.716,0.258,5.443,0.42,8.151,0.746
					c0.982,0.118,1.952,0.525,2.869,0.932c0.568,0.252,1.058,0.718,1.522,1.153c0.401,0.375,0.539,0.914,0.409,1.447
					C199.606,275.852,199.364,276.505,199.124,277.265z"/>
				<path fill="#BD8668" d="M186.13,283.823c0.458,3.436,2.047,6.407,4.088,9.161c-0.089,0.069-0.147,0.137-0.168,0.127
					c-1.442-0.708-2.992-1.059-4.544-1.411c-0.594-0.135-1.189-0.306-1.748-0.544c-1.758-0.747-2.737-2.853-2.195-4.64
					c0.22-0.727,0.638-1.318,1.233-1.783C183.656,284.06,184.925,283.708,186.13,283.823z"/>
				<path fill="#BD8668" d="M178.117,293.759c-1.526-0.621-2.844-1.322-3.931-2.371c-0.672-0.649-0.821-1.566-0.844-2.462
					c-0.029-1.093,0.235-2.125,0.887-3.029c0.839-1.164,1.942-2.008,3.216-2.688c0.513,0.904,1.006,1.772,1.538,2.708
					C177.911,288.339,177.724,290.958,178.117,293.759z"/>
				<path fill="#BD8668" d="M190,298.303c-0.955,0.503-1.978,0.815-3.047,0.926c-0.872,0.091-1.631-0.287-2.263-0.854
					c-0.546-0.489-1.043-1.038-1.53-1.588c-0.714-0.806-1.437-1.591-2.396-2.127c-0.207-0.116-0.4-0.395-0.449-0.63
					c-0.161-0.776-0.253-1.567-0.393-2.496c0.235,0.141,0.368,0.186,0.451,0.277c0.79,0.866,1.79,1.382,2.886,1.729
					c0.818,0.259,1.663,0.439,2.463,0.742c0.941,0.357,1.856,0.79,2.762,1.231c0.224,0.109,0.431,0.347,0.542,0.576
					C189.372,296.802,189.668,297.539,190,298.303z"/>
				<path fill="#BD8668" d="M188.519,285.546c2.339-0.941,4.636-1.865,7.043-2.833c-0.253,1.649-0.172,3.298-0.896,4.774
					c-0.609,1.243-1.7,1.9-3.089,2.008c-0.842,0.065-1.509-0.302-1.948-0.997C189.072,287.611,188.753,286.623,188.519,285.546z"/>
				<path fill="#BD8668" d="M198.43,290.102c-0.737-2.74-0.285-5.23,0.62-7.756c1.416,0.804,2.394,1.894,2.749,3.438
					c0.304,1.322-0.108,2.446-1.269,3.198C199.892,289.394,199.188,289.702,198.43,290.102z"/>
				<path fill="#BD8668" d="M188.234,283.268c-0.34-1.398,0.24-2.814,1.381-3.453c0.292-0.164,0.604-0.326,0.926-0.395
					c1.345-0.288,2.69-0.587,4.049-0.786c0.746-0.109,1.042,0.423,0.695,1.109c-0.094,0.187-0.245,0.351-0.395,0.501
					c-0.129,0.128-0.284,0.236-0.443,0.327C192.478,281.701,190.312,282.361,188.234,283.268z"/>
				<path fill="#BD8668" d="M195.84,289.142c0.143,0.685,0.28,1.338,0.421,2.011c-1.069,1.005-2.129,2.001-3.28,3.084
					c-0.568-0.909-1.06-1.697-1.56-2.496C192.91,290.865,194.338,290.025,195.84,289.142z"/>
			</g>
			<g>
				<path fill="#C79C52" d="M246.808,277.41c-0.31-0.131-0.772-0.24-1.131-0.495c-0.936-0.664-1.919-1.182-3.033-1.494
					c-0.479-0.134-0.942-0.455-1.317-0.796c-0.697-0.634-1.453-1.124-2.37-1.35c-1.665-0.412-2.719-1.46-3.245-3.076
					c-0.367-1.126-0.981-2.1-1.792-2.968c-0.93-0.996-1.473-2.171-1.526-3.558c-0.015-0.395-0.09-0.794-0.185-1.179
					c-0.3-1.216-0.589-2.437-0.95-3.636c-0.173-0.577-0.093-1.004,0.342-1.403c0.879-0.808,1.46-1.783,1.779-2.949
					c0.109-0.4,0.462-0.812,0.816-1.051c0.926-0.624,1.618-1.402,1.998-2.45c0.235-0.649,0.664-1.078,1.322-1.307
					c0.913-0.318,1.699-0.846,2.373-1.537c0.491-0.502,1.068-0.766,1.778-0.855c0.725-0.09,1.449-0.269,2.144-0.499
					c1.507-0.498,2.978-0.314,4.411,0.212c0.817,0.3,1.62,0.544,2.494,0.553c0.956,0.01,1.778,0.33,2.496,1
					c0.441,0.411,0.986,0.721,1.514,1.024c0.632,0.362,1.125,0.815,1.444,1.489c0.247,0.523,0.57,1.017,0.911,1.486
					c0.48,0.66,0.803,1.372,0.925,2.178c0.027,0.181,0.062,0.365,0.122,0.537c0.644,1.848,1.292,3.694,1.941,5.54
					c0.112,0.318,0.228,0.633,0.347,0.948c0.305,0.809,0.217,1.538-0.335,2.239c-0.649,0.824-0.821,1.819-0.937,2.843
					c-0.068,0.594-0.303,1.17-0.484,1.748c-0.063,0.202-0.229,0.374-0.282,0.577c-0.418,1.618-1.427,2.902-2.399,4.196
					c-0.34,0.453-0.805,0.822-1.252,1.181c-0.714,0.574-1.456,1.114-2.196,1.654c-0.266,0.194-0.544,0.454-0.846,0.503
					C250.115,276.971,248.534,277.17,246.808,277.41z"/>
				<g>
					<path fill="#CCCCCC" d="M262.563,259.953c0.035-0.49,0.064-1.003,0.111-1.514c0.017-0.181,0.128-0.364,0.111-0.537
						c-0.091-0.935,0.456-1.515,1.055-2.118c2.138-2.153,4.782-3.26,7.696-3.861c1.936-0.399,3.897-0.482,5.86-0.521
						c1.995-0.04,3.99-0.033,5.986-0.032c0.356,0,0.712,0.073,1.177,0.125c-0.039,0.532-0.018,0.992-0.119,1.425
						c-0.124,0.534-0.306,1.065-0.537,1.563c-1.397,3.018-3.562,5.338-6.442,6.992c-2.21,1.269-4.581,1.46-7.043,1.043
						c-2.252-0.381-4.392-1.126-6.494-1.992C263.5,260.35,263.078,260.169,262.563,259.953z"/>
					<path fill="#CCCCCC" d="M258.546,274.701c0.36-0.471,0.773-1.083,1.259-1.629c0.402-0.452,0.891-0.827,1.351-1.245
						c0.03,0.006,0.1,0.002,0.147,0.032c2.746,1.804,5.411,3.71,7.681,6.111c2.018,2.135,3.267,4.635,3.633,7.574
						c0.304,2.442,0.458,4.881,0.14,7.332c-0.039,0.303-0.111,0.602-0.184,0.899c-0.027,0.11-0.099,0.21-0.19,0.394
						c-0.36-0.141-0.709-0.24-1.021-0.408c-0.971-0.521-1.942-1.047-2.89-1.609c-2.833-1.682-4.917-4.055-6.192-7.077
						c-0.772-1.83-1.347-3.743-2.016-5.617C259.718,277.933,259.163,276.411,258.546,274.701z"/>
					<path fill="#CCCCCC" d="M252.184,225.665c2.021-1.098,3.983-2.094,6.134-2.645c0.91-0.234,1.146-0.143,1.541,0.57
						c1.368,2.469,2.296,5.082,2.425,7.929c0.078,1.716-0.28,3.362-0.987,4.917c-0.494,1.087-1.048,2.15-1.637,3.189
						c-1.356,2.391-2.938,4.658-3.949,7.302c-0.362-0.324-0.665-0.623-0.997-0.887c-0.734-0.582-1.597-0.886-2.489-1.143
						c-0.577-0.166-1.127-0.423-1.767-0.669c0.193-0.533,0.339-0.959,0.5-1.379c0.538-1.402,1.114-2.791,1.616-4.205
						c1.383-3.903,1.335-7.818,0.024-11.731C252.47,226.536,252.347,226.16,252.184,225.665z"/>
					<path fill="#CCCCCC" d="M236.98,246.445c-0.457,0.581-1.173,0.751-1.749,1.133c-0.828,0.55-1.566,0.447-2.386,0.055
						c-2.072-0.989-4.188-1.888-6.229-2.937c-1.813-0.931-3.382-2.211-4.652-3.832c-1.915-2.443-2.739-5.237-2.7-8.312
						c0.003-0.244,0.04-0.489,0.087-0.729c0.022-0.112,0.104-0.211,0.211-0.416c0.587,0.111,1.204,0.15,1.765,0.349
						c1.499,0.53,3.002,1.064,4.451,1.714c1.787,0.801,3.552,1.664,5.271,2.602c2.422,1.322,4.07,3.303,4.766,6.02
						C236.186,243.543,236.588,244.985,236.98,246.445z"/>
					<path fill="#CCCCCC" d="M277.562,234.048c0.265,1.072,0.075,2.012-0.116,2.932c-1.259,6.071-5.144,9.741-10.871,11.573
						c-2.001,0.64-4.139,0.84-6.183,1.363c-0.962,0.246-1.508-0.009-2.087-0.751c-0.372-0.477-0.47-0.831-0.28-1.39
						c1.186-3.482,3.335-6.204,6.501-8.049c1.715-1,3.519-1.866,5.341-2.661c2.244-0.98,4.546-1.826,6.825-2.726
						C276.942,234.239,277.204,234.167,277.562,234.048z"/>
					<path fill="#CCCCCC" d="M242.332,279.161c1.347,0.227,2.667,0.449,3.927,0.662c0.855,2.645,1.695,5.263,2.546,7.878
						c1.002,3.079,0.546,6.054-0.627,8.978c-0.631,1.572-1.452,3.043-2.45,4.41c-0.524,0.717-0.722,0.744-1.406,0.197
						c-1.024-0.819-1.773-1.86-2.337-3.036c-1.3-2.711-1.761-5.595-1.748-8.574c0.016-3.408,0.667-6.7,1.814-9.9
						C242.123,279.579,242.225,279.394,242.332,279.161z"/>
					<path fill="#CCCCCC" d="M262.243,263.249c3.048,1.317,5.894,2.533,8.316,4.534c1.094,0.904,2.091,1.897,2.903,3.062
						c1.771,2.541,3.539,5.084,5.282,7.643c0.429,0.63,0.806,1.307,1.123,2.001c0.357,0.781,0.241,1.138-0.425,1.686
						c-0.306,0.252-0.632,0.503-0.989,0.663c-1.085,0.485-2.191,0.926-3.377,1.421c-0.109-0.405-0.207-0.682-0.256-0.968
						c-0.388-2.243-1.35-4.22-2.953-5.815c-1.322-1.315-2.726-2.566-4.204-3.7c-1.87-1.434-3.852-2.721-5.867-4.128
						c-0.013-0.203-0.054-0.505-0.05-0.806c0.017-1.285,0.011-2.571,0.09-3.852C261.871,264.428,262.09,263.877,262.243,263.249z"/>
					<path fill="#CCCCCC" d="M248.725,243.559c-1.523-0.2-2.936-0.385-4.419-0.579c-1.31-4.001-1.959-8.06-0.991-12.272
						c1.107-4.815,2.482-8.274,3.854-9.41c0.263,0.318,0.565,0.615,0.788,0.963c1.579,2.47,2.493,5.18,2.872,8.08
						c0.368,2.814,0.067,5.569-0.708,8.285C249.668,240.215,249.221,241.806,248.725,243.559z"/>
					<path fill="#CCCCCC" d="M242.629,225.658c-2.415,6.008-2.687,11.975-0.14,17.954c-0.908,1.091-2.231,1-3.536,1.334
						c-0.336-1.17-0.72-2.295-0.975-3.448c-0.373-1.683-0.896-3.306-1.582-4.884c-0.969-2.227-1.723-4.521-2.049-6.937
						c-0.265-1.962-0.173-3.911,0.296-5.838c0.05-0.207,0.123-0.412,0.211-0.607c0.252-0.558,0.399-0.631,0.998-0.521
						c0.181,0.033,0.363,0.068,0.537,0.123C238.529,223.51,240.519,224.513,242.629,225.658z"/>
					<path fill="#CCCCCC" d="M253.577,278.812c0.612-0.401,1.169-0.721,1.674-1.109c0.482-0.371,0.908-0.812,1.426-1.283
						c0.156,0.393,0.304,0.721,0.417,1.061c0.619,1.86,1.225,3.725,1.845,5.585c0.584,1.749,1.328,3.426,2.275,5.012
						c1.031,1.726,2.301,3.246,3.964,4.556c-0.885,2.621-1.971,5.118-3.524,7.512c-1.366-1.432-2.521-2.868-3.246-4.57
						c-0.683-1.602-1.303-3.245-1.769-4.921c-1.041-3.746-1.97-7.523-2.942-11.288C253.652,279.19,253.62,279.011,253.577,278.812z"
						/>
					<path fill="#CCCCCC" d="M230.167,254.358c-0.702,0.081-1.428,0.18-2.157,0.246c-2.942,0.264-5.879,0.37-8.792-0.293
						c-1.821-0.415-3.492-1.134-4.955-2.313c-1.442-1.162-2.291-2.695-2.797-4.442c-0.057-0.198-0.037-0.418-0.063-0.758
						c0.415-0.029,0.804-0.128,1.167-0.069c1.391,0.225,2.775,0.489,4.158,0.76c2.165,0.424,4.335,0.832,6.488,1.31
						c2.222,0.492,4.221,1.466,5.927,2.998c0.251,0.225,0.47,0.485,0.724,0.707C230.419,252.985,230.58,253.543,230.167,254.358z"/>
					<path fill="#CCCCCC" d="M285.499,271.257c-2.542,1.062-5.003,1.659-7.636,1.123c-0.597-0.121-1.06-0.383-1.392-0.934
						c-1.589-2.64-3.624-4.856-6.276-6.469c-0.104-0.063-0.226-0.098-0.282-0.244c3.472,0.468,6.723,0.089,9.822-1.738
						C282.711,264.967,284.307,267.886,285.499,271.257z"/>
					<path fill="#CCCCCC" d="M215.011,258.083c4.705-0.779,9.194-1.489,13.823-1.199c0.091,1.313,0.271,2.549,0.058,3.805
						c-0.107,0.628-0.134,1.27-0.209,2.027c-0.733,0.462-1.683,0.691-2.623,0.921c-1.64,0.401-3.289,0.264-4.929-0.031
						c-0.231-0.042-0.494-0.13-0.658-0.286C218.695,261.635,216.935,259.933,215.011,258.083z"/>
					<path fill="#CCCCCC" d="M248.695,279.738c1.002-0.225,1.881-0.422,2.773-0.622c1.076,4.457,2.107,8.868,3.219,13.259
						c0.404,1.596,0.998,3.143,1.554,4.86c-0.689,0.587-1.471,1.266-2.267,1.929c-0.467,0.389-0.977,0.369-1.434,0.001
						c-0.83-0.669-1.634-1.37-2.425-2.038c0.301-0.972,0.589-1.809,0.82-2.661c0.674-2.483,0.684-4.976-0.033-7.447
						c-0.504-1.735-1.091-3.446-1.626-5.172C249.062,281.156,248.891,280.453,248.695,279.738z"/>
					<path fill="#CCCCCC" d="M281.732,249.536c-1.146,0-2.279-0.041-3.407,0.009c-1.926,0.085-3.864,0.123-5.772,0.37
						c-2.878,0.372-5.637,1.191-8.041,2.904c-0.792,0.564-1.505,1.238-2.336,1.93c-0.459-1-0.918-2.002-1.428-3.113
						c1.163-0.221,2.263-0.426,3.363-0.638c2.318-0.448,4.614-0.957,6.742-2.044c2.095-1.07,3.966-2.437,5.574-4.15
						c0.373-0.397,0.758-0.578,1.288-0.513c1.307,0.161,2.62,0.278,3.92,0.476c0.961,0.147,1.187,0.456,1.155,1.436
						C282.751,247.391,282.339,248.469,281.732,249.536z"/>
					<path fill="#CCCCCC" d="M272.351,234.292c-1.752,0.726-3.469,1.378-5.135,2.144c-1.656,0.762-3.26,1.638-4.892,2.466
						c0.509-1.209,1.133-2.407,1.513-3.677c0.374-1.249,0.501-2.571,0.759-3.983c1.72-1.142,3.753-1.979,5.865-2.639
						c0.683-0.214,0.84-0.147,1.097,0.57C272.142,230.799,272.479,232.472,272.351,234.292z"/>
					<path fill="#CCCCCC" d="M239.822,278.551c-1.328,3.694-3.548,6.707-7.008,9.013c0.154-0.836,0.281-1.505,0.399-2.176
						c0.179-1.025,0.37-2.048,0.524-3.076c0.387-2.579-0.076-4.996-1.428-7.234c-0.046-0.076-0.072-0.165-0.156-0.364
						c0.398-0.392,0.824-0.811,1.359-1.337c0.298,0.432,0.607,0.742,0.75,1.115c0.406,1.056,1.144,1.728,2.199,2.053
						c0.628,0.193,1.157,0.508,1.668,0.922C238.643,277.884,239.248,278.191,239.822,278.551z"/>
					<path fill="#CCCCCC" d="M216.279,245.83c-0.306-1.306-0.629-2.549-0.883-3.806c-0.289-1.432-0.002-2.003,1.26-2.719
						c0.266-0.151,0.542-0.286,0.82-0.414c0.105-0.048,0.228-0.057,0.382-0.092c0.096,0.179,0.191,0.33,0.262,0.492
						c1.14,2.603,2.947,4.633,5.288,6.216c2.638,1.785,5.559,2.962,8.544,4.005c0.287,0.1,0.577,0.188,0.91,0.296
						c-0.071,0.931-0.78,1.337-1.399,1.917c-0.193-0.205-0.35-0.376-0.511-0.543c-1.817-1.89-4.046-3.072-6.569-3.668
						c-2.114-0.499-4.258-0.87-6.388-1.303C217.43,246.096,216.87,245.962,216.279,245.83z"/>
					<path fill="#CCCCCC" d="M232.298,226.785c-0.041,3.273,0.669,6.261,1.719,9.227c-2.66-1.814-5.58-3.069-8.561-4.285
						c0.184-1.605,0.538-3.102,1.349-4.469c0.302-0.509,0.711-0.825,1.325-0.847C229.512,226.36,230.86,226.617,232.298,226.785z"/>
					<path fill="#CCCCCC" d="M233.268,289.684c1.703-1.54,3.331-3.012,5.064-4.58c-0.341,2.971-0.529,5.878-0.044,8.862
						c-0.816,0.384-1.607,0.757-2.549,1.2C235.599,292.917,234.945,291.023,233.268,289.684z"/>
					<path fill="#CCCCCC" d="M231.183,273.248c-1.541-1.57-3.055-3.114-4.605-4.693c0.412-0.706,1.62-1.805,3.026-2.652
						c0.691,0.892,1.59,1.655,1.501,2.976c-0.039,0.576,0.298,1.049,0.705,1.445c0.432,0.421,0.698,0.92,0.781,1.465
						C232.085,272.312,231.606,272.809,231.183,273.248z"/>
					<path fill="#CCCCCC" d="M226.836,265.415c-0.616,0.698-1.188,1.347-1.814,2.057c-0.603-0.537-1.183-1.053-1.883-1.675
						C224.446,265.663,225.598,265.543,226.836,265.415z"/>
				</g>
			</g>
		</g>
	</g>
	<path fill="#1A1A1A" d="M376.316,160.251c-6.724-3.816-13.443-7.641-20.163-11.464c-1.787-1.016-3.574-2.032-5.361-3.047
		c-0.876-0.497-1.77-0.573-2.59,0.068c-2.647,2.069-5.147,4.283-6.879,7.225c-0.18,0.305-0.385,0.596-0.616,0.953
		c-1.277-1.386-2.861-1.878-4.598-1.956c-3.783-0.171-6.163,2.042-6.726,5.103c-0.121,0.66-0.143,1.339-0.216,2.009
		c-0.025,0.23-0.068,0.458-0.11,0.741c-7.773,0-45.985,0-53.774,0c-0.002-0.174-0.005-0.348-0.005-0.521
		c0.313-0.098,0.579-0.172,0.839-0.263c1.681-0.589,3.379-1.159,4.772-2.32c1.201-1,1.614-1.891,1.442-2.853
		c0.073-0.016,0.146-0.03,0.217-0.049c3.068-0.828,5.831-2.276,8.276-4.282c1.634-1.34,3.133-2.844,4.717-4.247
		c0.801-0.709,1.622-1.409,2.5-2.017c0.966-0.669,1.985-0.566,2.901,0.157c0.454,0.359,0.896,0.758,1.253,1.211
		c0.741,0.938,1.403,1.937,2.134,2.883c0.523,0.677,1.047,1.371,1.674,1.944c0.989,0.904,2.189,1.09,3.432,0.589
		c1.294-0.521,1.924-1.557,2.044-2.924c0.126-1.422-0.327-2.665-1.205-3.76c-1.356-1.691-3.151-2.694-5.212-3.27
		c-1.375-0.384-2.78-0.449-4.222-0.444c0.778-0.837,1.631-1.545,2.667-1.938c1.43-0.543,2.897-0.987,4.344-1.484
		c1.447-0.497,2.935-0.908,4.323-1.536c2.05-0.928,3.378-2.602,4.216-4.667c0.363-0.894,0.49-1.83,0.42-2.797
		c-0.165-2.272-1.771-3.703-4.05-3.597c-1.227,0.057-2.337,0.466-3.372,1.105c-1.399,0.863-2.625,1.94-3.64,3.218
		c-1.314,1.656-2.639,3.321-3.773,5.101c-2.028,3.183-4.395,6.054-7.199,8.571c-0.172,0.155-0.358,0.294-0.614,0.504
		c0.143-1.057,0.278-1.994,0.396-2.934c0.138-1.095,0.213-2.2,0.402-3.286c0.349-2.001,1.205-3.781,2.455-5.387
		c1.13-1.453,2.246-2.92,3.293-4.432c1.192-1.721,1.885-3.648,1.997-5.753c0.109-2.061-0.497-3.886-1.964-5.365
		c-1.077-1.086-2.381-1.451-3.885-1.049c-1.247,0.333-2.34,0.954-3.246,1.845c-3.857,3.791-5.388,8.258-3.797,13.573
		c0.378,1.262,0.847,2.497,1.304,3.733c0.839,2.272,1.302,4.586,1.055,7.03c-0.211,2.092-0.85,4.009-2.012,5.755
		c-1.627,2.445-3.992,3.841-6.723,4.708c-0.798,0.253-1.606,0.495-2.428,0.742c-0.085-0.133-0.167-0.267-0.255-0.398
		c-0.65-0.968-1.315-1.926-1.968-2.892c-0.147-0.218-0.269-0.454-0.436-0.741c0.22,0,0.343-0.014,0.462,0.002
		c2.7,0.359,5.244-0.214,7.702-1.291c0.717-0.314,1.273-0.813,1.342-1.617c0.04-0.47-0.068-0.981-0.225-1.434
		c-1.062-3.054-2.773-5.663-5.365-7.648c-0.139-0.106-0.268-0.224-0.448-0.376c0.269-0.248,0.488-0.453,0.71-0.653
		c1.657-1.493,3.05-3.197,4.081-5.18c0.556-1.07,0.949-2.2,0.987-3.421c0.046-1.472-0.636-2.379-2.055-2.753
		c-0.371-0.098-0.753-0.154-1.178-0.238c0.146-0.332,0.298-0.602,0.385-0.891c0.22-0.731,0.508-1.46,0.591-2.21
		c0.188-1.685-0.562-2.7-2.215-3.067c-0.865-0.192-1.756-0.278-2.638-0.386c-0.715-0.087-1.434-0.136-2.216-0.207
		c0.093-0.212,0.13-0.326,0.189-0.428c0.855-1.48,1.343-3.091,1.665-4.756c0.21-1.09,0.291-2.193,0.069-3.295
		c-0.28-1.39-1.195-2.06-2.594-1.84c-0.508,0.08-0.996,0.293-1.489,0.459c-0.337,0.113-0.666,0.249-1.094,0.41
		c-0.053-0.568-0.051-1.03-0.147-1.47c-0.208-0.954-0.356-1.942-0.724-2.836c-0.895-2.171-2.521-2.833-4.691-1.981
		c-1.684,0.661-3.358,1.355-4.863,2.386c-0.089,0.061-0.212,0.071-0.337,0.111c-0.094-0.339-0.174-0.635-0.257-0.929
		c-0.522-1.836-1.226-3.598-2.143-5.274c-0.49-0.896-1.15-1.641-2.189-1.818c-0.65-0.111-1.351-0.082-2.006,0.023
		c-1.532,0.246-2.899,0.973-4.288,1.62c-0.602,0.281-1.196,0.578-1.773,0.857c-0.584-0.902-1.071-1.757-1.662-2.533
		c-0.402-0.528-0.891-1.033-1.442-1.394c-1.302-0.853-2.664-0.571-3.522,0.725c-0.522,0.789-0.914,1.663-1.365,2.5
		c-0.11,0.204-0.221,0.408-0.345,0.637c-0.331-0.167-0.595-0.324-0.877-0.439c-1.615-0.662-3.214-1.371-4.86-1.944
		c-0.733-0.255-1.562-0.311-2.348-0.317c-1.063-0.009-1.791,0.575-2.123,1.591c-0.161,0.493-0.256,1.009-0.381,1.514
		c-0.056,0.228-0.115,0.455-0.182,0.715c-0.213-0.021-0.361-0.039-0.51-0.05c-1.223-0.088-2.445-0.243-3.668-0.245
		c-1.611-0.003-2.854,0.701-3.455,2.266c-0.329,0.855-0.584,1.74-0.838,2.621c-0.125,0.435-0.173,0.893-0.269,1.413
		c-0.369-0.105-0.685-0.202-1.005-0.284c-0.861-0.221-1.713-0.494-2.586-0.638c-1.472-0.242-2.612,0.555-2.934,2.005
		c-0.112,0.506-0.123,1.034-0.184,1.551c-0.022,0.189-0.058,0.377-0.099,0.642c-1.71-1.202-3.529-1.939-5.406-2.515
		c-2.989-0.917-5.999-1.767-9.006-2.623c-0.557-0.158-1.142-0.258-1.719-0.295c-0.482-0.03-0.996-0.008-1.453,0.132
		c-1.151,0.352-1.616,1.266-1.682,2.391c-0.233,3.982-0.49,7.963-0.632,11.949c-0.044,1.241,0.168,2.509,0.407,3.737
		c0.178,0.916,0.586,1.787,0.907,2.722c-2.526,0.972-4.889,2.317-7.561,3.242c0.101-0.32,0.166-0.517,0.226-0.715
		c0.355-1.173,0.756-2.335,1.052-3.524c0.431-1.733,0.711-3.493,0.468-5.288c-0.245-1.807-1.075-2.767-2.84-3.175
		c-1.473-0.341-2.889-0.812-4.241-1.486c-0.246-0.123-0.505-0.273-0.768-0.297c-0.534-0.05-0.788-0.387-1.041-0.793
		c-0.837-1.343-1.911-2.476-3.159-3.443c-1.176-0.911-2.464-1.607-3.924-1.952c-1.411-0.334-2.702-0.089-3.768,0.911
		c-0.69,0.647-1.294,1.388-1.929,2.092c-0.159,0.176-0.292,0.374-0.359,0.46c-1.06-0.07-2.016-0.258-2.946-0.171
		c-2.604,0.241-5.201,0.4-7.81,0.102c-2.078-0.237-3.882,0.423-5.428,1.787c-1.104,0.974-2.186,1.975-3.235,3.007
		c-1.543,1.519-3.209,2.85-5.204,3.738c-0.447,0.199-0.871,0.452-1.29,0.707c-1.874,1.137-2.954,2.815-3.311,4.961
		c-0.109,0.656-0.142,1.325-0.213,2.028c-1.838,0.166-3.203,1.127-4.209,2.56c-1.217,1.735-2.713,3.013-4.735,3.764
		c-1.58,0.587-2.171,1.799-1.939,3.466c0.426,3.056,1.733,5.742,3.66,8.115c0.509,0.627,1.26,1.058,1.902,1.577
		c0.146,0.118,0.3,0.225,0.521,0.389c-0.798,0.28-1.449,0.045-2.103-0.066c-0.423-0.072-0.839-0.209-1.263-0.241
		c-1.305-0.098-2.168,0.943-1.816,2.2c0.123,0.438,0.298,0.886,0.555,1.256c0.786,1.133,1.612,2.238,2.446,3.336
		c0.349,0.46,0.757,0.877,1.143,1.319c-0.178,0.369-0.341,0.697-0.494,1.03c-0.553,1.211-0.928,2.465-0.959,3.81
		c-0.017,0.737,0.145,1.4,0.516,1.962c-1.256-0.02-27.888-0.033-29.143-0.001c-0.596,0.016-1.032-0.17-1.468-0.578
		c-4.597-4.296-9.237-8.548-13.805-12.875c-1.085-1.028-2.23-1.474-3.705-1.462c-7.305,0.063-14.611,0.069-21.916,0.094
		c-2.548,0.009-5.095,0.009-7.643,0.019c-0.909,0.003-1.616,0.382-1.99,1.227c-0.389,0.879-0.185,1.684,0.455,2.376
		c0.291,0.315,0.613,0.602,0.928,0.894c4.137,3.845,8.275,7.689,12.412,11.534c0.289,0.269,0.572,0.543,0.929,0.883
		c-0.416,0.395-0.786,0.753-1.162,1.103c-4.137,3.845-8.276,7.688-12.411,11.535c-0.314,0.292-0.642,0.582-0.896,0.923
		c-0.954,1.277-0.32,2.96,1.235,3.295c0.326,0.07,0.67,0.079,1.005,0.08c9.792,0.023,19.584,0.031,29.376,0.075
		c1.246,0.006,2.229-0.372,3.142-1.23c4.675-4.393,9.392-8.741,14.079-13.122c0.432-0.404,0.857-0.598,1.46-0.589
		c2.394,0.034,30.163,0.016,32.557,0.017c0.045,0,0.089,0,0.133,0c-0.463,1.603-0.649,3.251-0.702,4.922
		c-0.068,2.175,0.496,4.02,2.648,5.029c0.082,0.039,0.154,0.1,0.232,0.15c0.895,0.577,1.589,1.313,2.07,2.288
		c0.364,0.737,0.846,1.426,1.341,2.086c1.226,1.632,3.051,1.902,4.682,0.672c0.632-0.477,1.182-1.068,1.737-1.639
		c0.984-1.012,1.939-2.052,2.916-3.072c0.226-0.236,0.49-0.435,0.71-0.627c-0.083,1.72-0.202,3.397-0.233,5.075
		c-0.026,1.415-0.143,2.812-0.367,4.202c-1.284,0.047-2.515,0.113-3.739,0.072c-3.527-0.116-7.051-0.332-10.578-0.462
		c-2.851-0.105-5.707-0.284-8.554,0.064c-3.441,0.42-6.333,1.855-8.459,4.665c-1.446,1.912-2.405,4.059-2.975,6.377
		c-0.138,0.56-0.202,1.154-0.196,1.732c0.014,1.366,0.598,1.88,1.951,1.806c0.184-0.01,0.368-0.021,0.55-0.047
		c1.701-0.241,3.403-0.472,5.1-0.733c2.965-0.456,5.467-1.769,7.4-4.092c1.129-1.357,2.493-2.449,3.897-3.495
		c0.153-0.114,0.335-0.188,0.504-0.281c0.063,0.075,0.126,0.149,0.188,0.224c-0.249,0.176-0.523,0.325-0.741,0.533
		c-1.491,1.424-2.837,2.974-4.028,4.66c-1.496,2.116-2.116,4.474-1.955,7.041c0.147,2.347,1.159,4.239,3.103,5.587
		c1.276,0.885,2.73,1.378,4.216,1.774c0.354,0.094,0.723,0.157,1.088,0.174c0.869,0.042,1.377-0.36,1.558-1.221
		c0.132-0.63,0.203-1.274,0.352-1.9c0.715-3.015,0.91-6.054,0.585-9.14c-0.171-1.619-0.14-3.248,0.317-4.842
		c0.416-1.453,1.223-2.589,2.549-3.35c1.26-0.723,2.588-1.27,4.003-1.589c1.107-0.25,2.221-0.469,3.335-0.688
		c-0.089,0.619-0.148,1.242-0.157,1.861c-0.024,1.643,0.824,2.794,2.374,3.367c0.542,0.2,1.122,0.305,1.688,0.434
		c1.403,0.32,2.838,0.535,4.205,0.968c1.398,0.442,2.733,1.088,4.091,1.654c1.741,0.726,3.536,1.21,5.432,1.282
		c0.767,0.029,1.533,0.077,2.297,0.145c0.768,0.068,0.959,0.302,0.887,1.075c-0.042,0.457-0.15,0.907-0.203,1.364
		c-0.113,0.963,0.244,1.7,1.142,2.096c2.168,0.958,3.94,2.468,5.706,3.999c1.482,1.285,2.988,2.529,4.708,3.518
		c3.056,1.758,6.32,2.35,9.758,1.826c2.816-0.43,5.612-1.01,8.399-1.607c1.463-0.313,2.938-0.682,4.322-1.239
		c2.833-1.14,4.926-3.071,5.832-6.096c0.015-0.051,0.079-0.088,0.138-0.151c0.193,0,0.405-0.006,0.616,0.001
		c1.81,0.056,3.619,0.159,5.429,0.162c2.475,0.004,4.533-0.982,6.132-2.865c0.614-0.723,1.167-1.502,1.702-2.287
		c1.59-2.333,3.156-4.682,4.736-7.021c0.143-0.212,0.322-0.401,0.528-0.653c1.013,1.789,2.25,3.258,3.754,4.501
		c1.498,1.238,3.145,2.242,4.878,3.112c4.921,2.47,10.171,3.919,15.537,5.008c0.327,0.066,0.673,0.065,1.009,0.052
		c0.865-0.033,1.559-0.433,1.945-1.19c0.257-0.505,0.445-1.093,0.476-1.655c0.055-0.976-0.033-1.96-0.066-2.941
		c-0.104-3.097-0.211-6.194-0.311-9.291c-0.004-0.109,0.046-0.22,0.083-0.38c0.245,0.078,0.448,0.136,0.646,0.208
		c1.482,0.54,3.018,0.782,4.586,0.906c1.625,0.128,3.233,0.04,4.83-0.166c0.277,0.586,0.539,1.142,0.739,1.716
		c0.468,1.349,0.337,2.679-0.496,3.865c-0.474,0.675-1.005,1.321-1.583,1.908c-0.969,0.983-2.021,1.884-2.99,2.867
		c-0.795,0.806-1.603,1.622-2.258,2.539c-2.344,3.281-1.347,8.168,2.059,10.369c1.553,1.004,2.445,0.742,3.178-0.932
		c0.037-0.084,0.065-0.172,0.103-0.256c1.084-2.37,2.07-4.791,3.276-7.098c1.879-3.594,2.06-7.389,1.667-11.291
		c-0.041-0.408-0.16-0.809-0.244-1.212c0.055-0.031,0.109-0.063,0.164-0.094c0.822,1.018,1.635,2.043,2.467,3.051
		c0.836,1.012,1.422,2.162,1.736,3.42c0.303,1.214,0.527,2.454,0.685,3.696c0.228,1.79,0.274,3.607,0.562,5.386
		c0.566,3.492,2.472,5.964,5.892,7.104c1.071,0.357,2.186,0.604,3.298,0.81c0.962,0.178,1.946,0.293,2.923,0.314
		c1.261,0.027,1.852-0.758,1.59-1.981c-0.07-0.329-0.176-0.652-0.289-0.969c-0.31-0.866-0.62-1.733-0.952-2.591
		c-1.314-3.403-3.338-6.266-6.359-8.377c-0.88-0.615-1.771-1.225-2.585-1.921c-0.74-0.634-1.398-1.368-2.06-2.087
		c-0.21-0.228-0.319-0.548-0.543-0.948c0.261,0.076,0.351,0.084,0.423,0.126c2.678,1.552,5.602,2.296,8.649,2.63
		c3.352,0.368,6.337,1.61,8.962,3.731c0.763,0.617,1.542,1.22,2.356,1.767c0.991,0.667,1.993,1.329,3.047,1.887
		c2.575,1.364,5.263,1.523,8.018,0.579c3.383-1.16,6.188-3.208,8.705-5.691c0.215-0.212,0.397-0.472,0.544-0.737
		c0.459-0.829,0.252-1.574-0.579-2.017c-0.458-0.244-0.949-0.431-1.435-0.617c-2.062-0.786-4.121-1.582-6.195-2.336
		c-1.613-0.586-3.23-1.166-4.873-1.659c-2.986-0.896-6.03-1.144-9.091-0.444c-1.34,0.307-2.647,0.767-3.957,1.195
		c-2.571,0.84-5.174,1.288-7.879,0.812c-1.264-0.222-2.514-0.481-3.693-1.025c0.149-0.05,0.294-0.069,0.432-0.047
		c1.614,0.255,3.23,0.283,4.862,0.185c2.788-0.167,5.189-1.19,7.16-3.149c0.846-0.84,1.611-1.77,2.343-2.714
		c1.75-2.254,3.456-4.542,5.184-6.812c1.013-1.331,0.822-2.552-0.63-3.387c-1.991-1.144-4.14-1.513-6.391-0.991
		c-2.271,0.527-3.979,1.898-5.204,3.83c-0.852,1.343-1.558,2.779-2.328,4.174c-0.548,0.993-1.026,2.032-1.652,2.973
		c-1.481,2.227-3.44,2.971-6.055,2.388c-1.806-0.403-3.334-1.374-4.814-2.425c-0.244-0.174-0.472-0.397-0.701-0.609
		c0.952-0.303,1.884-0.673,2.781-1.137c0.623-0.322,1.237-0.694,1.775-1.14c1.065-0.884,1.152-2.202,0.25-3.256
		c-0.316-0.37-0.709-0.677-1.076-1.002c-1.47-1.303-2.973-2.57-4.409-3.909c-2.296-2.142-4.6-4.256-7.759-5.172
		c0.258-0.68,0.496-1.306,0.741-1.953c1.119,0.558,2.164,1.138,3.257,1.611c2.46,1.066,4.099,0.22,4.593-2.402
		c0.144-0.765,0.237-1.542,0.307-2.322c7.837,0,46.111,0,53.955,0c0.041,0.8,0.047,1.532,0.12,2.257
		c0.217,2.154,1.054,3.976,2.977,5.13c2.684,1.61,6.698,0.936,8.243-0.813c0.072-0.081,0.194-0.117,0.311-0.185
		c0.108,0.16,0.202,0.282,0.275,0.414c1.725,3.097,4.284,5.424,7.015,7.592c0.74,0.588,1.547,0.708,2.414,0.326
		c0.28-0.123,0.547-0.277,0.814-0.428c8.346-4.749,16.69-9.503,25.039-14.247c0.754-0.428,1.231-1.015,1.246-1.897
		C377.583,161.317,377.103,160.697,376.316,160.251z M78.355,149.07c2.513-0.016,5.026-0.024,7.538-0.046
		c0.443-0.004,0.821,0.059,1.172,0.387c3.514,3.286,7.041,6.558,10.563,9.835c0.086,0.08,0.155,0.178,0.304,0.35
		c-0.269,0.041-0.461,0.094-0.653,0.095c-2.605,0.003-5.21-0.008-7.814,0.003c-0.423,0.002-0.751-0.104-1.069-0.401
		c-3.47-3.243-6.953-6.472-10.431-9.707c-0.106-0.099-0.2-0.213-0.438-0.468C77.937,149.094,78.146,149.072,78.355,149.07z
		 M62.31,149.509c-0.065-0.06-0.11-0.142-0.263-0.343c0.34-0.026,0.545-0.054,0.75-0.054c2.547-0.008,5.095-0.005,7.642-0.022
		c0.453-0.003,0.812,0.097,1.158,0.421c3.496,3.271,7.008,6.526,10.514,9.786c0.066,0.061,0.117,0.139,0.239,0.287
		c-0.246,0.036-0.435,0.088-0.624,0.089c-2.609,0.003-5.218-0.001-7.827-0.001c-0.37,0-0.698-0.019-1.01-0.312
		C69.371,156.066,65.837,152.791,62.31,149.509z M70.671,174.584c-2.763-0.019-5.525-0.015-8.288-0.023
		c-0.08,0-0.16-0.045-0.34-0.099c0.252-0.26,0.446-0.479,0.66-0.677c3.349-3.115,6.706-6.221,10.042-9.349
		c0.411-0.385,0.814-0.557,1.382-0.55c2.486,0.031,4.973,0.017,7.459,0.018c0.239,0,0.479,0,0.871,0
		c-0.185,0.24-0.268,0.386-0.386,0.496c-3.505,3.263-7.013,6.521-10.518,9.784C71.299,174.421,71.05,174.587,70.671,174.584z
		 M97.534,164.502c-3.416,3.178-6.84,6.347-10.243,9.539c-0.435,0.408-0.872,0.584-1.468,0.576
		c-2.455-0.034-4.911-0.023-7.367-0.031c-0.262-0.001-0.523-0.026-0.924-0.047c0.24-0.256,0.371-0.412,0.519-0.55
		c3.461-3.22,6.925-6.436,10.383-9.658c0.278-0.259,0.547-0.435,0.963-0.432c2.823,0.019,5.646,0.01,8.694,0.01
		C97.813,164.206,97.683,164.364,97.534,164.502z M285.59,144.548c-2.542,1.062-5.003,1.659-7.636,1.123
		c-0.597-0.121-1.06-0.383-1.392-0.934c-1.589-2.64-3.624-4.856-6.276-6.469c-0.104-0.063-0.226-0.098-0.282-0.244
		c3.472,0.468,6.723,0.089,9.822-1.738C282.802,138.257,284.398,141.176,285.59,144.548z M283.473,124.661
		c0.356,0,0.712,0.073,1.177,0.125c-0.039,0.532-0.019,0.992-0.119,1.425c-0.124,0.534-0.306,1.065-0.537,1.563
		c-1.397,3.018-3.562,5.338-6.442,6.992c-2.21,1.269-4.581,1.46-7.043,1.043c-2.252-0.381-4.392-1.126-6.494-1.992
		c-0.424-0.175-0.847-0.356-1.361-0.572c0.035-0.49,0.064-1.003,0.111-1.514c0.017-0.182,0.128-0.364,0.111-0.537
		c-0.091-0.935,0.456-1.515,1.055-2.118c2.138-2.153,4.782-3.26,7.696-3.861c1.936-0.399,3.897-0.482,5.86-0.521
		C279.481,124.653,281.477,124.659,283.473,124.661z M281.726,118.057c0.961,0.147,1.187,0.456,1.155,1.436
		c-0.039,1.189-0.451,2.267-1.058,3.334c-1.146,0-2.279-0.041-3.407,0.009c-1.926,0.085-3.864,0.123-5.772,0.37
		c-2.878,0.372-5.637,1.191-8.041,2.904c-0.792,0.564-1.505,1.238-2.336,1.93c-0.459-1-0.918-2.002-1.428-3.113
		c1.163-0.221,2.263-0.426,3.363-0.638c2.318-0.448,4.614-0.957,6.742-2.044c2.095-1.07,3.966-2.437,5.574-4.15
		c0.373-0.397,0.758-0.578,1.288-0.513C279.112,117.742,280.425,117.858,281.726,118.057z M276.782,107.629
		c0.251-0.099,0.513-0.172,0.871-0.29c0.265,1.072,0.075,2.012-0.116,2.932c-1.259,6.071-5.144,9.741-10.871,11.573
		c-2.001,0.64-4.139,0.84-6.183,1.363c-0.962,0.246-1.508-0.009-2.086-0.751c-0.372-0.477-0.47-0.831-0.28-1.39
		c1.186-3.482,3.335-6.204,6.501-8.049c1.715-1,3.519-1.866,5.341-2.661C272.201,109.375,274.503,108.529,276.782,107.629z
		 M250.993,160.309c-0.504-1.735-1.091-3.446-1.626-5.172c-0.214-0.69-0.385-1.393-0.581-2.109c1.002-0.225,1.881-0.422,2.773-0.622
		c1.076,4.457,2.107,8.868,3.219,13.259c0.404,1.596,0.999,3.143,1.554,4.86c-0.689,0.587-1.471,1.266-2.267,1.929
		c-0.467,0.389-0.977,0.369-1.434,0.001c-0.83-0.669-1.634-1.37-2.425-2.038c0.301-0.972,0.589-1.809,0.82-2.661
		C251.7,165.274,251.711,162.781,250.993,160.309z M248.27,169.969c-0.631,1.572-1.452,3.043-2.45,4.41
		c-0.524,0.717-0.722,0.744-1.406,0.197c-1.024-0.819-1.773-1.86-2.337-3.036c-1.3-2.711-1.761-5.595-1.748-8.574
		c0.016-3.408,0.667-6.7,1.814-9.9c0.07-0.196,0.172-0.381,0.279-0.614c1.347,0.227,2.667,0.449,3.927,0.662
		c0.855,2.645,1.696,5.263,2.546,7.878C249.898,164.07,249.443,167.045,248.27,169.969z M251.778,149.237
		c-1.572,0.257-3.154,0.456-4.879,0.696c-0.31-0.131-0.772-0.24-1.131-0.495c-0.936-0.664-1.919-1.182-3.033-1.494
		c-0.478-0.134-0.942-0.455-1.317-0.797c-0.697-0.634-1.454-1.124-2.37-1.35c-1.665-0.412-2.719-1.46-3.245-3.076
		c-0.367-1.126-0.981-2.1-1.792-2.968c-0.93-0.996-1.473-2.171-1.526-3.558c-0.015-0.395-0.09-0.794-0.185-1.179
		c-0.3-1.216-0.589-2.437-0.95-3.636c-0.173-0.577-0.093-1.004,0.342-1.403c0.879-0.808,1.46-1.783,1.779-2.949
		c0.109-0.4,0.462-0.812,0.816-1.051c0.926-0.624,1.618-1.402,1.998-2.45c0.235-0.649,0.664-1.078,1.322-1.307
		c0.913-0.318,1.699-0.846,2.373-1.537c0.491-0.502,1.068-0.766,1.778-0.855c0.725-0.09,1.449-0.269,2.144-0.499
		c1.507-0.498,2.979-0.314,4.411,0.212c0.817,0.3,1.62,0.544,2.494,0.553c0.956,0.01,1.778,0.33,2.496,1
		c0.441,0.411,0.986,0.721,1.514,1.024c0.632,0.362,1.125,0.815,1.443,1.489c0.247,0.523,0.57,1.017,0.911,1.486
		c0.48,0.66,0.804,1.372,0.925,2.178c0.027,0.181,0.062,0.365,0.122,0.537c0.644,1.848,1.292,3.694,1.942,5.54
		c0.112,0.318,0.228,0.633,0.347,0.948c0.305,0.809,0.217,1.538-0.335,2.239c-0.649,0.824-0.821,1.819-0.937,2.843
		c-0.068,0.594-0.303,1.17-0.484,1.748c-0.063,0.202-0.229,0.374-0.282,0.577c-0.418,1.618-1.427,2.902-2.399,4.196
		c-0.34,0.453-0.805,0.822-1.252,1.181c-0.714,0.574-1.456,1.114-2.196,1.654C252.358,148.928,252.08,149.188,251.778,149.237z
		 M238.38,167.258c-0.816,0.384-1.607,0.757-2.549,1.2c-0.141-2.25-0.795-4.144-2.472-5.483c1.703-1.54,3.331-3.012,5.064-4.58
		C238.082,161.367,237.895,164.274,238.38,167.258z M232.905,160.855c0.154-0.836,0.281-1.505,0.399-2.176
		c0.179-1.025,0.37-2.048,0.524-3.076c0.387-2.579-0.076-4.996-1.429-7.234c-0.046-0.076-0.071-0.165-0.156-0.364
		c0.398-0.392,0.824-0.811,1.359-1.337c0.298,0.432,0.607,0.742,0.75,1.115c0.406,1.056,1.144,1.728,2.199,2.053
		c0.628,0.193,1.158,0.508,1.668,0.922c0.515,0.418,1.12,0.724,1.695,1.085C238.585,155.536,236.365,158.549,232.905,160.855z
		 M228.925,130.174c0.091,1.313,0.271,2.549,0.058,3.805c-0.107,0.628-0.134,1.27-0.209,2.027c-0.733,0.462-1.683,0.691-2.623,0.921
		c-1.64,0.401-3.289,0.264-4.929-0.031c-0.231-0.042-0.494-0.13-0.658-0.286c-1.777-1.684-3.538-3.387-5.462-5.237
		C219.806,130.595,224.296,129.885,228.925,130.174z M219.309,127.601c-1.821-0.415-3.492-1.134-4.955-2.313
		c-1.442-1.162-2.291-2.695-2.797-4.442c-0.057-0.198-0.037-0.418-0.063-0.758c0.415-0.029,0.804-0.128,1.167-0.069
		c1.391,0.225,2.775,0.489,4.158,0.76c2.165,0.424,4.335,0.832,6.488,1.31c2.222,0.492,4.221,1.466,5.927,2.998
		c0.251,0.225,0.47,0.485,0.724,0.707c0.553,0.483,0.714,1.04,0.301,1.856c-0.702,0.081-1.428,0.18-2.157,0.246
		C225.159,128.159,222.223,128.265,219.309,127.601z M226.927,138.706c-0.616,0.698-1.188,1.347-1.814,2.057
		c-0.604-0.537-1.183-1.053-1.883-1.675C224.537,138.953,225.689,138.834,226.927,138.706z M229.694,139.193
		c0.691,0.893,1.59,1.655,1.501,2.976c-0.039,0.576,0.298,1.049,0.705,1.445c0.432,0.421,0.699,0.92,0.781,1.465
		c-0.505,0.524-0.984,1.021-1.407,1.46c-1.541-1.57-3.055-3.114-4.605-4.693C227.08,141.139,228.289,140.04,229.694,139.193z
		 M263.928,108.515c0.374-1.249,0.501-2.571,0.759-3.983c1.72-1.142,3.753-1.979,5.865-2.639c0.683-0.214,0.84-0.147,1.098,0.57
		c0.584,1.627,0.921,3.301,0.792,5.12c-1.752,0.726-3.469,1.378-5.135,2.144c-1.656,0.762-3.26,1.638-4.892,2.466
		C262.924,110.983,263.547,109.786,263.928,108.515z M252.687,100.203c-0.126-0.375-0.249-0.752-0.413-1.246
		c2.021-1.098,3.983-2.094,6.134-2.645c0.91-0.234,1.146-0.143,1.541,0.57c1.368,2.469,2.296,5.082,2.425,7.929
		c0.078,1.716-0.28,3.362-0.987,4.917c-0.494,1.087-1.048,2.15-1.637,3.189c-1.356,2.391-2.937,4.658-3.949,7.302
		c-0.362-0.324-0.665-0.623-0.997-0.887c-0.735-0.582-1.597-0.886-2.489-1.143c-0.577-0.166-1.127-0.423-1.768-0.669
		c0.193-0.533,0.339-0.959,0.5-1.379c0.538-1.402,1.114-2.79,1.616-4.205C254.047,108.031,253.999,104.116,252.687,100.203z
		 M243.407,103.999c1.107-4.815,2.482-8.274,3.854-9.41c0.263,0.318,0.565,0.615,0.788,0.963c1.579,2.47,2.493,5.18,2.872,8.08
		c0.368,2.814,0.067,5.569-0.708,8.285c-0.453,1.59-0.9,3.181-1.395,4.934c-1.523-0.2-2.936-0.385-4.419-0.579
		C243.088,112.27,242.438,108.211,243.407,103.999z M234.733,97.13c0.05-0.207,0.123-0.412,0.211-0.607
		c0.252-0.558,0.399-0.631,0.998-0.521c0.181,0.033,0.363,0.068,0.538,0.123c2.141,0.675,4.132,1.678,6.241,2.823
		c-2.415,6.008-2.688,11.975-0.14,17.954c-0.908,1.091-2.231,1-3.536,1.334c-0.336-1.17-0.72-2.295-0.975-3.448
		c-0.373-1.683-0.896-3.306-1.582-4.884c-0.969-2.227-1.723-4.521-2.05-6.937C234.171,101.006,234.264,99.057,234.733,97.13z
		 M226.896,100.549c0.302-0.509,0.711-0.825,1.325-0.847c1.383-0.051,2.731,0.206,4.169,0.374c-0.041,3.273,0.669,6.261,1.719,9.227
		c-2.66-1.814-5.58-3.069-8.561-4.285C225.731,103.413,226.085,101.916,226.896,100.549z M219.442,105.114
		c0.022-0.112,0.104-0.211,0.211-0.416c0.587,0.111,1.204,0.15,1.765,0.349c1.499,0.53,3.002,1.064,4.451,1.714
		c1.787,0.801,3.552,1.664,5.271,2.602c2.422,1.322,4.07,3.303,4.766,6.02c0.371,1.45,0.774,2.892,1.166,4.352
		c-0.457,0.581-1.173,0.751-1.749,1.133c-0.828,0.55-1.566,0.447-2.386,0.055c-2.072-0.989-4.188-1.888-6.229-2.937
		c-1.813-0.931-3.382-2.211-4.652-3.832c-1.915-2.443-2.739-5.237-2.7-8.312C219.358,105.599,219.395,105.354,219.442,105.114z
		 M217.567,112.182c0.105-0.048,0.228-0.057,0.382-0.092c0.096,0.179,0.191,0.33,0.262,0.492c1.14,2.603,2.947,4.633,5.288,6.216
		c2.639,1.785,5.559,2.962,8.544,4.005c0.287,0.1,0.577,0.188,0.91,0.297c-0.071,0.931-0.78,1.337-1.399,1.917
		c-0.193-0.205-0.35-0.376-0.511-0.543c-1.817-1.89-4.046-3.072-6.569-3.668c-2.114-0.499-4.258-0.87-6.388-1.303
		c-0.565-0.115-1.125-0.249-1.716-0.381c-0.306-1.306-0.629-2.549-0.883-3.806c-0.289-1.432-0.001-2.003,1.26-2.719
		C217.013,112.445,217.289,112.31,217.567,112.182z M199.199,111.753c0.095-1.898,0.216-3.796,0.354-5.692
		c0.055-0.753,0.061-1.526,0.447-2.304c0.394,0.042,0.799,0.024,1.166,0.134c3.634,1.098,7.273,2.181,10.885,3.347
		c1.619,0.523,3.055,1.42,4.226,2.689c0.141,0.152,0.262,0.323,0.439,0.545c-0.251,0.143-0.456,0.255-0.656,0.375
		c-0.394,0.235-0.799,0.456-1.177,0.715c-1.341,0.921-1.825,2.192-1.435,3.763c0.272,1.096,0.607,2.177,0.936,3.345
		c-0.526-0.04-1.029-0.123-1.528-0.106c-0.637,0.021-1.301,0.024-1.9,0.209c-1.234,0.38-1.789,1.38-1.564,2.648
		c0.565,3.187,2.465,5.339,5.306,6.723c0.822,0.4,1.694,0.696,2.626,1.074c-0.19,0.089-0.326,0.181-0.476,0.218
		c-0.802,0.198-1.623,0.335-2.407,0.587c-0.487,0.156-0.777,0.031-1.132-0.287c-1.256-1.124-2.502-2.269-3.837-3.295
		c-1.187-0.912-2.454-1.732-3.745-2.491c-1.676-0.985-3.533-1.355-5.549-1.271c-0.777-1.682-1.19-3.377-1.191-5.137
		C198.989,115.612,199.103,113.682,199.199,111.753z M183.209,113.583c0.318-0.276,0.638-0.315,1.008-0.113
		c1.407,0.768,2.889,1.332,4.467,1.632c0.399,0.076,0.665,0.317,0.732,0.726c0.099,0.603,0.231,1.206,0.256,1.813
		c0.088,2.15-1.022,7.286-1.979,9.31c-0.895-0.055-1.797-0.11-2.742-0.168c0.624-4.209,0.411-8.17-3.533-11.021
		C181.961,114.97,182.49,114.207,183.209,113.583z M169.564,154.972c-0.15-0.777,0.01-1.542,0.393-2.226
		c0.808-1.445,1.636-2.879,2.492-4.295c0.628-1.039,1.587-1.486,2.8-1.413c1.6,0.097,3.127,0.512,4.767,1.005
		c-1.388,2.142-2.766,4.125-2.764,6.69c-0.536,0.308-1.069,0.602-1.589,0.916c-1.058,0.64-2.012,1.406-2.768,2.395
		c-1.403,1.836-1.745,3.882-1.156,6.091c0.243,0.911,0.751,1.676,1.496,2.268c1.517,1.204,3.055,2.365,4.984,2.865
		c1.1,0.285,1.992,0.911,2.721,1.792c0.449,0.543,0.942,1.052,1.447,1.544c1.607,1.571,3.495,2.083,5.664,1.422
		c0.636-0.194,1.26-0.428,2.032-0.692c-0.466,1.734-0.901,3.351-2.018,4.673c-0.582,0.689-1.354,1.091-2.275,0.981
		c-0.847-0.101-1.711-0.221-2.517-0.486c-2.857-0.94-5.615-2.12-8.294-3.496c-2.683-1.379-4.548-3.489-5.803-6.188
		c-0.672-1.446-1.339-2.895-2.005-4.343c-0.09-0.195-0.163-0.397-0.249-0.594c-0.69-1.573-0.568-3.023,0.566-4.376
		c0.55-0.656,1.019-1.382,1.497-2.095C169.477,156.675,169.741,155.886,169.564,154.972z M208.435,167.041
		c0.138,1.06-0.224,1.806-1.164,2.253c-0.716,0.34-1.445,0.683-2.203,0.902c-2.047,0.592-3.96,1.458-5.779,2.559
		c-0.52,0.315-1.082,0.576-1.65,0.794c-0.708,0.273-1.459,0.279-2.16-0.008c-1.653-0.676-2.88-1.811-3.634-3.511
		c0.202-0.054,0.343-0.104,0.487-0.127c1.196-0.188,2.236-0.724,3.032-1.607c1.5-1.665,3.186-3.015,5.316-3.809
		c0.638-0.238,1.214-0.723,1.732-1.19c2.272-2.048,2.467-5.068,0.468-7.388c-0.515-0.597-1.163-1.081-1.761-1.605
		c-0.225-0.197-0.48-0.359-0.777-0.579c0.474-1.056,0.932-2.079,1.418-3.162c1.373,0.435,2.705,0.781,3.976,1.28
		c1.78,0.699,2.453,2.218,2.612,4.001c0.062,0.698,0.037,1.413-0.025,2.113C208.052,160.989,208.043,164.019,208.435,167.041z
		 M190.309,166.274c-0.089,0.069-0.147,0.137-0.168,0.127c-1.442-0.708-2.992-1.059-4.545-1.411
		c-0.594-0.135-1.189-0.306-1.748-0.544c-1.758-0.747-2.737-2.853-2.195-4.64c0.22-0.727,0.638-1.318,1.233-1.783
		c0.861-0.672,2.129-1.024,3.334-0.91C186.678,160.55,188.268,163.521,190.309,166.274z M189.706,153.106
		c0.292-0.164,0.604-0.326,0.927-0.395c1.345-0.288,2.69-0.587,4.049-0.786c0.746-0.109,1.042,0.423,0.695,1.109
		c-0.094,0.187-0.245,0.351-0.395,0.501c-0.128,0.128-0.284,0.236-0.443,0.327c-1.969,1.13-4.135,1.79-6.213,2.697
		C187.985,155.16,188.565,153.745,189.706,153.106z M189.721,161.788c-0.558-0.886-0.877-1.874-1.111-2.951
		c2.339-0.941,4.636-1.865,7.044-2.833c-0.253,1.649-0.172,3.298-0.896,4.774c-0.609,1.243-1.7,1.9-3.089,2.008
		C190.827,162.85,190.159,162.483,189.721,161.788z M195.931,162.433c0.143,0.685,0.28,1.338,0.421,2.011
		c-1.069,1.005-2.129,2.001-3.28,3.084c-0.568-0.909-1.06-1.697-1.56-2.496C193.001,164.156,194.429,163.316,195.931,162.433z
		 M201.889,159.075c0.304,1.322-0.108,2.446-1.269,3.197c-0.637,0.412-1.341,0.721-2.099,1.12c-0.737-2.74-0.285-5.23,0.619-7.756
		C200.556,156.442,201.534,157.531,201.889,159.075z M199.861,148.471c-0.164,0.672-0.406,1.324-0.646,2.085
		c-0.397-0.249-0.672-0.429-0.953-0.597c-1.422-0.847-2.808-1.764-4.277-2.519c-2.251-1.158-4.586-1.243-6.922-0.19
		c-1.898,0.856-3.791,1.721-5.766,2.618c0.036-0.128,0.038-0.239,0.092-0.314c0.998-1.399,2.013-2.785,3-4.192
		c0.623-0.887,1.43-1.272,2.521-1.168c2.716,0.258,5.443,0.42,8.151,0.746c0.982,0.118,1.952,0.525,2.869,0.932
		c0.568,0.252,1.058,0.718,1.522,1.153C199.852,147.399,199.991,147.938,199.861,148.471z M182.464,151.286
		c0.478-0.273,0.96-0.548,1.465-0.767c1.433-0.622,2.877-1.219,4.32-1.821c2.389-0.995,4.545-0.519,6.666,1.117
		c-1.289,0.284-2.462,0.502-3.61,0.81c-0.795,0.213-1.583,0.495-2.327,0.845c-1.55,0.73-2.464,1.974-2.736,3.677
		c-0.028,0.177-0.079,0.349-0.133,0.581c-2.09,0.068-3.999,0.616-5.651,2.098c-0.476-1.119-0.375-2.181-0.218-3.22
		C180.457,153.17,181.175,152.022,182.464,151.286z M180.464,165.102c0.79,0.866,1.79,1.382,2.886,1.73
		c0.818,0.259,1.663,0.439,2.463,0.742c0.942,0.357,1.856,0.79,2.762,1.231c0.224,0.109,0.431,0.347,0.542,0.576
		c0.346,0.712,0.642,1.448,0.973,2.212c-0.955,0.503-1.978,0.815-3.047,0.926c-0.872,0.091-1.631-0.287-2.263-0.854
		c-0.546-0.489-1.043-1.038-1.53-1.588c-0.714-0.806-1.437-1.59-2.396-2.127c-0.207-0.116-0.4-0.395-0.449-0.63
		c-0.161-0.776-0.253-1.567-0.394-2.496C180.247,164.967,180.381,165.011,180.464,165.102z M178.208,167.05
		c-1.526-0.621-2.844-1.322-3.931-2.371c-0.672-0.649-0.821-1.566-0.844-2.462c-0.029-1.093,0.235-2.125,0.887-3.029
		c0.839-1.164,1.942-2.008,3.216-2.688c0.513,0.904,1.006,1.772,1.538,2.708C178.002,161.63,177.815,164.249,178.208,167.05z
		 M176.366,177.975c0.318,0.121,0.619,0.232,0.919,0.349c1.569,0.612,3.123,1.27,4.714,1.821c0.862,0.299,1.776,0.49,2.683,0.605
		c2.145,0.272,3.915-0.482,5.295-2.141c0.735-0.883,1.227-1.904,1.625-2.973c0.191-0.514,0.368-1.034,0.579-1.63
		c0.239,0.145,0.442,0.25,0.627,0.382c1.861,1.325,3.847,1.497,5.924,0.604c0.673-0.289,1.321-0.648,1.951-1.024
		c1.378-0.822,2.822-1.464,4.386-1.853c1.647-0.409,3.21-1.028,4.634-2.256c0.334,0.404,0.672,0.694,0.859,1.062
		c0.969,1.905,1.228,3.861,0.133,5.802c-0.434,0.769-0.966,1.501-1.554,2.159c-0.98,1.097-2.048,2.115-3.066,3.178
		c-1.697,1.773-3.383,3.555-5.074,5.333c-0.402,0.422-0.801,0.846-1.209,1.262c-0.726,0.739-1.613,0.984-2.613,0.781
		c-0.78-0.158-1.572-0.301-2.323-0.556c-4.328-1.469-8.718-2.715-13.155-3.805c-0.594-0.146-1.18-0.337-1.751-0.556
		C177.119,183.435,175.828,181.118,176.366,177.975z M210.985,168.274c0-1.24-0.005-2.338,0.001-3.437
		c0.011-2.025,0.035-4.049,0.04-6.074c0.002-0.858,0.007-1.72-0.056-2.575c-0.217-2.943-1.803-4.885-4.509-5.921
		c-0.998-0.382-2.054-0.611-3.083-0.913c-0.319-0.094-0.637-0.195-0.988-0.303c0-0.149-0.023-0.27,0.003-0.379
		c0.322-1.345-0.187-2.398-1.138-3.303c-1.239-1.179-2.8-1.732-4.376-2.258c-0.288-0.096-0.583-0.172-0.939-0.277
		c0.13-0.285,0.223-0.538,0.354-0.768c1.942-3.409,4.794-5.508,8.723-6.072c1.361-0.195,2.663-0.004,3.794,0.753
		c0.909,0.608,1.802,1.302,2.519,2.12c1.149,1.311,2.221,2.704,3.191,4.153c2.271,3.392,4.564,6.763,7.105,9.962
		c0.626,0.788,1.157,1.66,1.663,2.532c0.641,1.104,0.69,2.275,0.154,3.444c-0.358,0.78-0.712,1.565-1.124,2.317
		c-1.094,1.998-1.973,4.079-2.619,6.267c-0.268,0.907-0.583,1.823-1.034,2.65c-1.128,2.067-2.993,2.955-5.412,3.129
		C213.143,171.202,212.61,169.386,210.985,168.274z M193.541,142.431c-0.927-0.058-1.838-0.131-2.751-0.169
		c-1.47-0.061-2.941-0.137-4.412-0.138c-1.509-0.001-2.729,0.652-3.622,1.869c-0.67,0.913-1.304,1.852-1.996,2.837
		c-0.205-0.056-0.432-0.12-0.66-0.178c-1.454-0.369-2.892-0.828-4.366-1.082c-2.197-0.378-4.104,0.306-5.455,2.107
		c-0.991,1.32-1.848,2.745-2.707,4.158c-0.565,0.93-0.698,2.004-0.393,3.029c0.306,1.028,0.002,1.792-0.662,2.513
		c-0.164,0.178-0.325,0.357-0.535,0.588c-0.223-0.254-0.415-0.439-0.569-0.652c-1.674-2.326-2.387-4.882-1.818-7.733
		c0.233-1.165,0.729-2.215,1.502-3.117c0.438-0.511,0.9-1.011,1.407-1.454c2.357-2.06,4.733-4.098,7.105-6.142
		c0.186-0.16,0.391-0.297,0.576-0.458c2.138-1.861,4.643-2.388,7.389-2.039c1.917,0.243,3.833,0.493,5.75,0.741
		c2.679,0.347,5.326,0.057,7.969-0.377c0.95-0.156,1.903-0.371,3.064-0.228C196.149,138.097,194.607,140.041,193.541,142.431z
		 M181.142,134.176c-3.683-0.392-6.949,0.531-9.635,3.146c-2.462,2.398-4.917,4.806-7.299,7.283
		c-4.106,4.271-3.402,10.513-0.477,14.083c0.249,0.304,0.484,0.62,0.74,0.948c-0.139,0.215-0.247,0.396-0.368,0.568
		c-0.483,0.684-0.678,1.454-0.562,2.27c0.103,0.724,0.183,1.489,0.479,2.142c1.178,2.597,2.401,5.174,4.091,7.499
		c1.253,1.723,2.827,3.054,4.692,4.061c0.508,0.274,1.01,0.558,1.518,0.84c-0.173,0.834-0.334,1.608-0.52,2.5
		c-0.579,0-1.186,0.052-1.781-0.01c-1.739-0.179-3.477-0.378-5.209-0.619c-1.213-0.169-2.424-0.378-3.619-0.644
		c-1.786-0.398-3.084-1.461-3.896-3.099c-0.367-0.741-0.764-1.481-1.016-2.264c-1.161-3.619-2.295-7.247-3.394-10.886
		c-0.247-0.816-0.357-1.68-0.461-2.531c-0.231-1.891-0.037-3.735,0.722-5.502c0.278-0.648,0.506-1.321,0.818-1.951
		c1.755-3.54,2.956-7.261,3.78-11.121c0.306-1.435,0.788-2.834,1.224-4.238c0.667-2.144,2.131-3.376,4.351-3.72
		c1.697-0.263,3.392-0.536,5.087-0.809c3.188-0.513,6.274-1.418,9.342-2.406c1.924-0.62,3.846-1.281,5.875-1.476
		c0.527-0.051,1.068,0.033,1.834,0.064c-1.846,1.825-2.928,3.824-3.565,6.151C182.952,134.359,182.046,134.273,181.142,134.176z
		 M164.842,120.431c-0.708,1.257-1.398,2.311-1.916,3.443c-0.624,1.366-1.592,2.207-3.046,2.541
		c-0.535,0.123-1.066,0.293-1.576,0.497c-1.536,0.615-2.157,1.783-1.72,3.378c0.241,0.88,0.635,1.72,0.974,2.572
		c0.134,0.336,0.304,0.658,0.541,1.164c-0.349-0.184-0.553-0.275-0.739-0.393c-0.441-0.278-0.871-0.572-1.309-0.855
		c-2.484-1.605-4.889-0.781-6.444,0.594c-0.733,0.648-1.39,1.385-2.07,2.092c-0.381,0.396-0.74,0.813-1.151,1.268
		c-0.558-0.412-0.798-0.908-0.966-1.417c-0.258-0.784-0.469-1.586-0.658-2.391c-0.385-1.64-0.799-3.277-1.092-4.934
		c-0.297-1.68,0.344-2.541,2.028-2.884c1.44-0.294,2.903-0.487,4.332-0.821c1.009-0.236,2.006-0.572,2.961-0.974
		c2.259-0.95,3.959-2.53,5.058-4.738c0.259-0.521,0.529-1.038,0.821-1.542c0.438-0.757,1.115-1.105,1.985-1.103
		c1.396,0.004,2.632,0.467,3.8,1.287C164.359,118.389,164.535,119.528,164.842,120.431z M169.715,130.379
		c-1.036,0.136-1.882,0.237-2.723,0.361c-0.969,0.143-1.942,0.275-2.901,0.471c-1.613,0.331-3.078,0.997-4.475,2.304
		c-0.436-1.334-0.86-2.451-1.158-3.601c-0.274-1.054-0.182-1.11,0.851-1.385c0.591-0.158,1.182-0.322,1.76-0.523
		c1.603-0.558,2.816-1.588,3.619-3.088c0.304-0.567,0.585-1.147,0.887-1.715c0.74-1.391,1.445-1.614,2.824-0.978
		c0.127,0.867,0.274,1.67,0.352,2.479c0.058,0.607,0.068,1.226,0.025,1.834C168.682,127.869,168.597,129.185,169.715,130.379z
		 M148.127,137.639c0.674-0.671,1.331-1.358,2.018-2.015c1.15-1.1,2.102-1.255,3.515-0.603c0.25,0.115,0.494,0.246,0.735,0.38
		c1.041,0.577,2.081,1.158,3.093,1.722c-0.681,2.949-1.355,5.867-2.075,8.989c-0.635-0.373-1.175-0.652-1.672-0.991
		c-0.734-0.501-1.411-1.086-2.16-1.563c-1.498-0.954-2.5-0.823-3.815,0.358c-0.589,0.529-1.198,1.053-1.863,1.477
		c-0.83,0.53-1.737,0.519-2.637,0.096c-0.582-0.273-1.16-0.57-1.769-0.766c-0.634-0.204-1.304-0.298-2.038-0.457
		c-0.21-0.702-0.168-1.489-0.092-2.275c0.037-0.384,0.272-0.588,0.663-0.639c0.455-0.059,0.905-0.158,1.36-0.224
		C144.04,140.743,146.249,139.51,148.127,137.639z M174.302,107.553c0.307-0.177,0.798-0.249,1.127-0.139
		c2.731,0.912,4.773,2.643,6.078,5.198c-0.531,0.794-1.019,1.524-1.556,2.327c-1.468-0.758-2.977-1.403-4.354-2.325
		c-0.6-0.402-1.291-0.666-1.938-0.999c-0.156-0.08-0.331-0.155-0.445-0.28c-0.43-0.471-0.839-0.962-1.31-1.507
		C172.572,108.964,173.318,108.121,174.302,107.553z M170.957,126.442c0.325-1.191,0.379-2.412,0.153-3.644
		c-0.047-0.255,0.083-0.613,0.254-0.826c1.308-1.632,1.654-3.505,1.507-5.534c-0.057-0.782-0.009-1.572-0.009-2.433
		c0.157,0.056,0.272,0.074,0.362,0.132c1.158,0.744,2.311,1.497,3.469,2.241c0.361,0.232,0.73,0.45,1.101,0.664
		c2.609,1.511,3.958,3.855,4.392,6.762c0.166,1.112,0.177,2.247,0.266,3.469c-3.615,0.899-6.964,2.084-10.484,2.725
		C171.116,128.938,170.571,127.851,170.957,126.442z M169.852,120.196c-1.076-0.55-2.163-0.501-3.275-0.299
		c-0.273-0.743-0.286-1.446-0.134-2.123c0.081-0.359,0.313-0.792,0.61-0.975c1.158-0.715,2.369-1.344,3.718-2.092
		C170.559,116.665,170.813,118.486,169.852,120.196z M145.197,119.585c0.456-0.307,0.943-0.581,1.445-0.803
		c2.134-0.944,3.963-2.316,5.626-3.931c0.748-0.727,1.504-1.446,2.267-2.157c0.291-0.271,0.618-0.504,0.92-0.764
		c1.089-0.943,2.342-1.282,3.762-1.057c2.38,0.377,4.767,0.327,7.158,0.119c0.456-0.04,0.921-0.048,1.377-0.016
		c1.307,0.093,2.017,0.536,2.824,1.755c-1.711,1.116-3.67,1.709-5.139,3.155c-0.349-0.188-0.662-0.373-0.988-0.53
		c-1.457-0.704-2.962-1.165-4.613-0.912c-1.211,0.185-2.195,0.766-2.956,1.706c-0.423,0.523-0.829,1.072-1.157,1.657
		c-1.354,2.422-3.453,3.849-6.06,4.604c-0.794,0.23-1.601,0.419-2.41,0.59c-1.523,0.321-3.077,0.531-4.536,1.53
		C142.972,122.468,143.496,120.729,145.197,119.585z M134.675,141.313c-1.134-1.661-1.986-3.459-2.445-5.42
		c-0.138-0.588-0.135-1.214-0.157-1.824c-0.02-0.547,0.242-0.966,0.77-1.131c2.48-0.779,4.282-2.42,5.843-4.427
		c0.819-1.053,1.279-1.214,2.287-1.231c0.081,3.608,1.426,8.216,3.201,10.883c-0.462,0.176-0.891,0.381-1.342,0.504
		c-0.976,0.265-1.977,0.442-2.942,0.739c-1.48,0.456-2.232,1.534-2.257,3.1c-0.006,0.397-0.001,0.795-0.001,1.276
		c-0.203-0.078-0.395-0.122-0.556-0.219C136.113,142.987,135.307,142.238,134.675,141.313z M132.891,146.715
		c0.506,0.084,0.981,0.237,1.452,0.225c0.977-0.026,1.963-0.069,2.923-0.237c0.996-0.175,1.885-0.005,2.75,0.456
		c0.487,0.26,0.967,0.534,1.464,0.773c1.581,0.76,3.134,0.692,4.673-0.153c0.957-0.526,1.733-1.258,2.48-2.034
		c0.549-0.57,0.659-0.581,1.344-0.223c0.19,0.099,0.375,0.212,0.547,0.339c1.302,0.961,2.537,2.029,4.208,2.491
		c-0.223,0.644-0.41,1.19-0.601,1.733c-0.51,1.446-1.046,2.883-1.529,4.337c-0.612,1.847-0.582,3.744-0.341,5.649
		c0.026,0.206,0.05,0.412,0.085,0.701C145.887,160.082,134.668,151.961,132.891,146.715z M138.903,161.024
		c-0.694-0.426-1.353-0.805-1.985-1.225c-0.702-0.467-0.979-1.139-0.867-1.981c0.142-1.067,0.372-2.104,0.926-3.114
		c1.333,1.038,2.646,2.06,4.004,3.119C140.316,158.848,139.641,159.887,138.903,161.024z M149.734,174.644
		c-0.526,0.557-1,1.163-1.514,1.732c-0.431,0.478-0.864,0.959-1.337,1.393c-0.493,0.452-0.828,0.451-1.235-0.089
		c-0.477-0.632-0.955-1.301-1.247-2.028c-0.604-1.508-1.616-2.628-3.038-3.311c-1.315-0.631-1.71-1.661-1.666-2.985
		c0.092-2.754,0.557-5.43,1.779-7.929c0.282-0.576,0.628-1.123,0.97-1.667c0.159-0.252,0.38-0.466,0.592-0.72
		c3.113,1.585,6.261,2.926,9.637,3.609c0.854,2.745,1.698,5.455,2.535,8.143c-0.091,0.087-0.129,0.151-0.18,0.166
		C152.854,171.598,151.241,173.048,149.734,174.644z M213.039,189.08c-0.486,2.216-1.017,4.423-1.454,6.648
		c-0.272,1.381-0.385,2.793-0.606,4.185c-0.357,2.252-1.76,3.696-3.789,4.493c-1.39,0.546-2.855,0.945-4.319,1.253
		c-2.549,0.537-5.116,1.002-7.69,1.408c-3.508,0.553-6.791-0.082-9.713-2.173c-1.247-0.892-2.454-1.843-3.635-2.821
		c-1.826-1.51-3.687-2.952-5.892-3.891c-0.738-0.314-0.711-0.353-0.566-1.2c0.083-0.482,0.175-0.971,0.181-1.457
		c0.015-1.284-0.724-2.074-2.011-2.161c-0.979-0.066-1.962-0.07-2.942-0.129c-1.548-0.094-3.013-0.533-4.444-1.109
		c-1.961-0.79-3.889-1.68-5.972-2.122c-0.899-0.191-1.813-0.314-2.713-0.501c-0.597-0.124-1.205-0.251-1.768-0.476
		c-0.889-0.355-1.36-1.071-1.28-2.03c0.071-0.852,0.197-1.711,0.418-2.535c0.633-2.362,0.872-4.758,0.835-7.198
		c-0.02-1.313,0.068-2.627,0.107-3.941c0.09-0.013,0.18-0.026,0.269-0.04c0.12,0.27,0.234,0.544,0.362,0.811
		c0.437,0.912,0.839,1.844,1.328,2.728c0.917,1.657,2.292,2.827,4.123,3.312c1.625,0.431,3.285,0.763,4.949,1.003
		c1.697,0.245,3.418,0.34,5.131,0.467c0.665,0.049,1.337,0.008,2.06,0.008c-0.029-0.022,0.011-0.008,0.017,0.015
		c0.63,2.458,2.322,3.895,4.596,4.762c0.859,0.327,1.73,0.626,2.602,0.917c3.402,1.134,6.806,2.263,10.212,3.386
		c1.574,0.519,3.16,0.976,4.834,1.072c2.053,0.118,3.824-0.48,5.232-1.994c0.939-1.01,1.818-2.075,2.752-3.148
		c0.084,0.058,0.197,0.106,0.27,0.19c1.445,1.671,3.316,2.116,5.412,1.851c0.911-0.115,1.812-0.316,2.718-0.474
		c0.143-0.025,0.289-0.032,0.542-0.058C213.135,188.499,213.102,188.793,213.039,189.08z M210.037,186.801
		c-1.832,0.356-3.219-0.365-4.327-1.877c0.207-0.243,0.394-0.479,0.597-0.699c1.084-1.172,2.183-2.329,3.255-3.511
		c1.965-2.168,2.64-3.279,3.653-5.933c0.222-0.027,0.462-0.059,0.703-0.085c3.086-0.336,5.296-1.963,6.749-4.649
		c0.436-0.806,0.777-1.669,1.097-2.53c0.721-1.94,1.715-3.728,2.861-5.445c0.629-0.943,1.226-1.911,1.777-2.901
		c0.993-1.783,0.918-3.524-0.349-5.162c-0.638-0.825-1.259-1.669-1.964-2.433c-2.609-2.824-4.94-5.868-7.185-8.981
		c-1.277-1.771-2.618-3.485-4.187-5.009c-1.356-1.316-2.847-2.434-4.696-2.972c-2.248-0.654-4.446-0.321-6.591,0.437
		c-0.697,0.246-1.292,0.258-2.02,0.089c-0.999-0.232-2.065-0.289-3.097-0.252c-1.991,0.071-3.976,0.324-5.967,0.375
		c-1.216,0.031-2.437-0.173-3.725-0.277c0.033-0.295,0.011-0.511,0.084-0.688c0.375-0.905,0.716-1.831,1.177-2.692
		c0.838-1.566,2.092-2.696,3.763-3.361c2.449-0.975,4.883-1.987,7.328-2.973c1.693-0.683,3.391-0.651,4.971,0.254
		c1.352,0.774,2.713,1.591,3.892,2.598c2.892,2.472,5.687,5.057,8.51,7.61c3.187,2.882,6.39,5.747,9.528,8.682
		c1.341,1.254,2.613,2.601,3.776,4.02c1.828,2.23,2.463,4.837,1.963,7.686c-0.254,1.449-0.568,2.887-0.872,4.327
		c-0.474,2.25-1.019,4.486-1.418,6.749c-0.195,1.107-0.149,2.261-0.171,3.394c-0.02,1.012,0.009,2.025,0.028,3.038
		c0.017,0.915-0.333,1.583-1.186,1.996c-1.655,0.801-3.294,1.634-4.939,2.455c-0.493,0.246-1.007,0.459-1.476,0.746
		c-1.007,0.615-1.591,1.5-1.633,2.714c-0.017,0.489-0.094,0.977-0.148,1.464c-0.125,1.134-0.739,1.87-1.841,2.15
		c-0.861,0.218-1.736,0.377-2.606,0.558C213.581,186.077,211.813,186.457,210.037,186.801z M231.094,185.682
		c-2.113,3.232-4.285,6.426-6.437,9.633c-0.273,0.407-0.571,0.799-0.885,1.175c-0.949,1.141-2.161,1.797-3.654,1.868
		c-2.144,0.102-4.288,0.18-6.433,0.264c-0.085,0.003-0.173-0.04-0.253-0.06c-0.133-1.304,1.031-7.436,2.062-10.851
		c0.654-0.134,1.355-0.223,2.019-0.43c0.813-0.254,1.642-0.524,2.382-0.934c1.448-0.802,2.179-2.111,2.293-3.754
		c0.036-0.519,0.045-1.044,0.01-1.562c-0.038-0.567,0.197-0.94,0.677-1.192c0.271-0.142,0.544-0.282,0.819-0.416
		c1.68-0.816,3.348-1.658,5.045-2.438c1.917-0.882,2.763-2.389,2.845-4.447c0.083-2.082,0.235-4.161,0.366-6.24
		c0.017-0.267,0.093-0.53,0.17-0.945c0.812,0.82,1.183,1.696,1.297,2.672c0.15,1.278,0.235,2.564,0.354,3.845
		c0.071,0.763,0.147,1.525,0.231,2.287C234.467,178.36,233.382,182.184,231.094,185.682z M257.497,198.423
		c-0.322-0.043-0.629-0.056-0.921-0.128c-4.561-1.116-9.053-2.443-13.347-4.375c-1.851-0.833-3.63-1.79-5.255-3.014
		c-1.916-1.443-3.478-3.183-4.522-5.439c1.248-2.312,2.077-4.799,2.543-7.414c0.464-2.599,0.163-5.191-0.077-7.793
		c0.961-0.361,1.867-0.701,2.859-1.074c0.118,0.34,0.236,0.678,0.353,1.018c0.684,1.994,1.604,3.843,3.167,5.32
		c1.822,1.72,3.419,1.653,5.005-0.294c0.54-0.663,0.987-1.402,1.472-2.11c0.169-0.247,0.323-0.504,0.517-0.808
		c0.4,0.379,0.741,0.723,1.103,1.043c1.696,1.5,3.016,1.595,4.907,0.365c0.28-0.182,0.557-0.368,0.863-0.57
		c0.688,1.29,0.85,2.662,0.99,4.027c0.252,2.446,0.213,4.897,0.099,7.354c-0.176,3.802-0.212,7.605,0.24,11.396
		c0.083,0.699,0.087,1.407,0.113,2.111C257.611,198.149,257.544,198.264,257.497,198.423z M256.731,163.945
		c-1.041-3.746-1.969-7.523-2.942-11.288c-0.045-0.176-0.078-0.355-0.121-0.554c0.612-0.401,1.169-0.721,1.674-1.109
		c0.482-0.371,0.909-0.812,1.426-1.283c0.156,0.393,0.304,0.721,0.417,1.061c0.619,1.86,1.225,3.725,1.845,5.585
		c0.584,1.749,1.328,3.426,2.275,5.012c1.031,1.726,2.301,3.246,3.964,4.556c-0.885,2.621-1.971,5.118-3.524,7.512
		c-1.366-1.432-2.521-2.868-3.246-4.57C257.817,167.264,257.196,165.62,256.731,163.945z M270.892,173.896
		c2.202,2.003,4.374,4.04,6.556,6.065c0.086,0.08,0.152,0.181,0.323,0.387c-0.429,0.21-0.75,0.382-1.082,0.527
		c-3.966,1.73-8.113,2.577-12.441,2.526c-1.451-0.017-2.873-0.234-4.254-0.691c-0.199-0.066-0.388-0.16-0.497-0.205
		c-0.201-2.794-0.396-5.511-0.601-8.357c0.25,0.237,0.457,0.438,0.668,0.632c1.047,0.961,2.155,1.052,3.2,0.101
		c0.647-0.588,1.166-1.335,1.662-2.065c0.445-0.655,0.779-1.385,1.19-2.132c0.203,0.053,0.409,0.083,0.596,0.159
		C267.971,171.556,269.5,172.63,270.892,173.896z M272.847,166.167c-0.039,0.303-0.111,0.602-0.184,0.899
		c-0.027,0.11-0.099,0.21-0.19,0.394c-0.36-0.141-0.709-0.24-1.021-0.408c-0.972-0.521-1.942-1.047-2.89-1.609
		c-2.833-1.682-4.917-4.055-6.192-7.077c-0.772-1.83-1.346-3.743-2.016-5.617c-0.545-1.525-1.1-3.047-1.718-4.757
		c0.36-0.471,0.773-1.083,1.259-1.629c0.402-0.452,0.891-0.827,1.351-1.245c0.03,0.006,0.1,0.002,0.147,0.032
		c2.746,1.804,5.411,3.71,7.681,6.111c2.018,2.135,3.268,4.635,3.633,7.574C273.011,161.277,273.165,163.717,272.847,166.167z
		 M271.958,150.767c-1.322-1.315-2.726-2.566-4.204-3.7c-1.87-1.434-3.852-2.721-5.867-4.128c-0.013-0.203-0.054-0.505-0.049-0.806
		c0.017-1.285,0.011-2.571,0.09-3.852c0.035-0.562,0.254-1.112,0.407-1.741c3.048,1.317,5.894,2.533,8.315,4.534
		c1.094,0.904,2.091,1.897,2.903,3.062c1.771,2.541,3.539,5.084,5.282,7.643c0.429,0.63,0.806,1.307,1.123,2.001
		c0.357,0.781,0.241,1.138-0.425,1.686c-0.306,0.252-0.632,0.503-0.989,0.663c-1.085,0.485-2.191,0.926-3.377,1.421
		c-0.109-0.405-0.207-0.682-0.256-0.968C274.523,154.338,273.561,152.361,271.958,150.767z M349.732,174.432
		c-1.087-0.919-2.177-1.852-3.118-2.937c-1.961-2.261-3.257-4.886-4.122-7.737c-0.237-0.781-0.261-1.571-0.111-2.367
		c0.79-4.213,3.562-8.603,7.416-11.386c7.058,4.02,14.156,8.063,21.407,12.193C363.982,166.313,356.903,170.346,349.732,174.432z"/>
</g>
</svg>
