<?xml version="1.0" encoding="iso-8859-1"?>
<!-- Generator: Adobe Illustrator 24.1.0, SVG Export Plug-In . SVG Version: 6.00 Build 0)  -->
<svg version="1.1" id="Calque_1" xmlns="http://www.w3.org/2000/svg" xmlns:xlink="http://www.w3.org/1999/xlink" x="0px" y="0px"
	 width="415.763px" height="383.213px" viewBox="0 0 415.763 383.213" enable-background="new 0 0 415.763 383.213"
	 xml:space="preserve">
<g>
	<path fill="#B55DA5" d="M190.207,74.035c-2.37-3.053-5.55-4.177-6.988-4.544c-0.012-0.08-0.174-0.707-0.195-0.785
		c4.921-3.824,4.619-8.52,6.099-11.863c0.391-0.887,0.679-1.139,0.679-1.139c-0.249-0.126-0.78,0.291-5.465-3.289
		c-3.172-2.26-6.567-2.454-8.063-2.406c-0.081-0.168-0.431-0.897-0.351-0.728c3.584-4.633,2.117-9.299,2.626-13.09
		c0.126-0.956,0.333-1.275,0.333-1.275s-0.372,0.097-1.337-0.075c-4.033-0.701-6.95-3.665-13.257-1.677
		c-0.153-0.168-0.697-0.767-0.544-0.599c2.061-5.529,0.062-7.748-0.997-13.353c-0.142-0.947-0.031-1.31-0.031-1.31
		s-0.333,0.196-1.313,0.299c-4.31,0.47-7.634-1.696-13.227,2.015c-0.168-0.102-0.86-0.523-0.691-0.42
		c0.67-7.439-3.713-8.57-4.973-13.88c0,0-0.267,0.28-1.185,0.656c-4.234,1.751-7.721,0.466-12.181,5.59
		c-0.171-0.044-0.955-0.246-0.784-0.201c-0.147-0.745-0.452-1.944-1.086-3.292c-1.941-4.187-4.078-4.098-6.797-7.522
		C119.862,0.375,119.766,0,119.766,0s-0.179,0.335-0.952,0.898c-0.766,0.535-2.149,1.513-4.431,2.636
		c-3.432,1.712-5.124,4.585-5.752,6.052c-0.169,0.009-0.977,0.049-0.808,0.041c-0.681-1.336-2.49-4.224-5.994-5.926
		c-5.023-2.182-5.333-3.078-5.51-3.199c0,0-0.082,0.373-0.671,1.143c-2.249,2.943-6.476,4.865-7.466,11.051
		c-0.171,0.044-0.955,0.245-0.784,0.201c-4.231-4.531-8.824-3.779-12.356-4.996c-0.916-0.306-1.192-0.569-1.192-0.569
		s0.025,0.383-0.325,1.297c-1.39,3.654-4.918,6.213-4.128,12.705c-0.168,0.102-0.86,0.521-0.692,0.42
		c-4.751-3.057-8.379-1.447-13.293-1.486c-0.959-0.038-1.295-0.214-1.295-0.214s0.129,0.363,0.048,1.342
		c-0.333,4.142-3.053,7.109-0.487,13.363c-0.153,0.168-0.698,0.767-0.544,0.599c-6.34-1.791-8.519,1.208-13.244,2.154
		c-0.927,0.229-1.297,0.151-1.297,0.151c0.034,0.168,0.842,1.117,0.722,6.399c-0.046,2.941,1.123,5.684,2.891,7.889
		c-0.081,0.168-0.432,0.897-0.351,0.73c-6.954,0.105-7.713,3.423-12.124,5.709c-0.879,0.459-1.266,0.482-1.266,0.482
		s0.262,0.229,0.736,1.114c2.262,4.28,1.213,7.8,6.671,11.637c-0.026,0.169-0.147,0.969-0.122,0.8
		c-6.482,1.954-6.98,5.86-10.052,8.807c-0.706,0.681-1.069,0.809-1.069,0.809s0.35,0.149,0.987,0.869
		c2.961,3.331,3.525,7.297,9.59,9.358c0.026,0.169,0.147,0.967,0.122,0.798c-2.268,1.494-4.501,4.072-5.137,6.678
		c-1.424,5.193-2.435,5.838-2.522,6.006c0.168,0.092,1.446,0.166,5.455,3.575c2.284,1.915,5.154,2.712,7.974,2.685
		c0.081,0.168,0.431,0.895,0.35,0.728c-3.346,4.305-2.506,7.648-2.629,11.198c0.033,2.608-0.377,3.085-0.406,3.254
		c0.416,0.082,0.182-0.58,6.253,1.642c3.713,1.282,6.974,0.475,8.393-0.038c0.168,0.153,0.766,0.696,0.598,0.544
		c-2.056,6.207,0.969,9.283,1.73,13.306c0.189,0.977,0.099,1.353,0.099,1.353c0.168-0.027,1.36-0.725,6.483-0.532
		c3.816,0.208,6.777-1.881,7.933-2.792c0.169,0.082,0.897,0.433,0.728,0.351c0.01,5.893,2.894,7.461,5.959,12.07
		c0.508,0.827,0.549,1.205,0.549,1.205s0.236-0.306,1.113-0.773c3.588-1.925,7.897-1.505,11.418-7.046
		c0.169,0.026,0.967,0.148,0.798,0.122c1.996,5.782,6.785,6.994,9.563,9.361c0.749,0.635,0.91,0.983,0.91,0.983
		s0.124-0.363,0.802-1.07c1.979-2.244,7.271-4.368,8.52-10.338c0.171-0.044,0.953-0.246,0.782-0.202
		c4.143,5.159,8.192,4.198,12.115,5.804c0.924,0.375,1.192,0.655,1.192,0.655s0-0.38,0.418-1.252
		c2.054-4.59,5.217-6.039,4.622-12.663c0.168-0.102,0.858-0.521,0.69-0.42c5.084,3.265,8.063,1.564,13.36,1.555
		c0.972,0.027,1.313,0.199,1.313,0.199c0.017-0.184-0.541-0.827,1.09-6.367c0.938-3.821-0.179-7.02-0.797-8.373
		c0.088-0.102,0.187-0.194,0.263-0.306l0.242-0.324c1.449,0.345,4.808,0.826,8.385-0.828c4.786-2.578,5.863-2.262,6.032-2.311
		c0,0-0.235-0.3-0.448-1.247c-1.051-5.524,0.033-8.513-4.132-12.809c0.064-0.175,0.341-0.933,0.277-0.758
		c1.455-0.155,5.054-0.713,7.635-3.526c3.522-3.679,4.861-4.02,5.029-4.137c0,0-0.328-0.208-0.877-1.041
		c-2.419-3.633-2.136-7.625-8.067-10.747c0.009-0.169,0.049-0.976,0.041-0.807c5.884-2.488,6.431-7.829,8.368-10.608
		c0.549-0.845,0.877-1.054,0.877-1.054s-0.374-0.084-1.149-0.691c-4.359-3.606-4.396-5.013-8.197-6.343
		c-1.404-0.494-2.618-0.651-3.366-0.704c-0.064-0.175-0.34-0.931-0.276-0.756c4.267-4.632,2.673-9.193,3.361-13.092
		c0.173-1.001,0.389-1.327,0.389-1.327s-0.381,0.079-1.374-0.137c-4.158-0.881-7.496-4.007-13.397-1.792
		c-0.168-0.153-0.765-0.694-0.596-0.541c0.844-2.589,0.944-5.828-0.294-8.427c-2.297-5.063-2.035-6.091-2.079-6.26
		c-0.168,0.04-0.598,0.471-3.309,0.643c-3.94,0.19-7.285-0.031-10.981,3.533c-0.175-0.064-0.931-0.341-0.756-0.277
		c-0.625-6.526-4.864-8.081-7.387-11.326c-0.628-0.775-0.723-1.15-0.723-1.15s-0.199,0.33-1.024,0.886
		c-3.613,2.441-7.904,2.809-10.352,8.705c-0.169,0.009-0.973,0.049-0.804,0.04c-2.282-4.102-5.185-5.036-8.107-6.134
		c-3.84-1.252-4.139-1.937-4.328-2.048c0,0-0.051,0.381-0.585,1.215c-2.974,4.346-6.107,6.068-5.987,12.138
		c-0.168,0.081-0.894,0.43-0.725,0.349c-4.811-3.84-9.652-1.867-13.337-2.191c-1.01-0.079-1.353-0.266-1.353-0.266
		s0.028,0.091,0.034,0.303c0.088,4.466-3.647,8.011-0.668,14.558c-0.129,0.173-0.613,0.817-0.483,0.644
		c-2.673-0.609-6.007-0.379-8.365,1.043c-4.554,2.624-5.886,2.57-6.054,2.629c0.148,0.547,0.463-0.548,1.375,6.449
		c0.457,3.207,1.951,5.553,4.057,7.416c-0.044,0.171-0.244,0.95-0.2,0.78c-5.535,1.079-6.921,4.164-9.31,6.868
		c-1.661,2.098-2.226,2.165-2.394,2.313c0,0,0.348,0.169,0.982,0.941c2.598,2.992,3.235,7.771,9.686,9.5
		c0.08,0.517,0.078,0.577,0.14,0.788c-5.276,4.069-4.122,8.801-5.225,12.614c-0.263,0.999-0.51,1.303-0.51,1.303
		s0.386-0.02,1.321,0.362c4.113,1.491,7.148,4.973,13.352,3.061c0.153,0.168,0.692,0.762,0.539,0.593
		c-2.044,5.243,0.306,8.641,1.423,11.56c1.33,3.371,0.893,2.925,0.993,3.295c0.168-0.032,0.393-0.588,6.709-0.913
		c4.06-0.333,6.576-2.67,7.57-3.856c0.171,0.044,0.947,0.243,0.776,0.199c0.555,2.931,2.001,5.317,4.564,7.188
		c5.231,3.443,5.13,4.056,5.3,4.207c0,0,0.153-0.362,0.912-1.069c3.116-2.916,7.602-4.058,8.732-10.509
		c0.171-0.044,0.947-0.242,0.776-0.198c1.731,1.94,4.72,3.615,7.632,3.668c7.956,0.463,5.942,0.671,6.735,0.797
		c0.046-0.168-0.113-1.403,2.19-6.394c1.081-2.743,1.094-5.615-0.079-8.517c0.153-0.168,0.692-0.761,0.539-0.592
		c1.476,0.452,4.867,1.063,8.458-0.855c5.223-3.045,5.962-2.8,6.13-2.867c-2.217-6.799-0.729-7.441-3.565-11.381
		c-0.874-1.184-1.804-1.964-2.448-2.416c0.026-0.169,0.146-0.961,0.12-0.792c6.924-1.948,7.13-7.376,10.319-11.28
		c-0.355-0.295,0.336,0.611-2.756-2.379c-2.042-1.913-4.464-5.852-10.605-5.259c-0.102-0.168-0.513-0.847-0.412-0.678
		c3.463-5.384,0.129-10.257-0.889-13.909c-0.295-1.051-0.239-1.448-0.239-1.448s-0.348,0.2-1.433,0.321
		c-3.993,0.443-9.389-0.881-13.229,4.397c-0.169-0.025-0.953-0.144-0.784-0.119c-1.42-5.16-5.325-6.428-8.843-7.851
		c-2.891-1.187-3.069-1.584-3.238-1.677c-2.022,4.088-7.838,6.646-6.417,13.992c-0.173,0.129-0.808,0.604-0.636,0.474
		c-4.789-2.486-8.605-0.215-11.78,1.221c-2.759,1.37-3.249,1.209-3.417,1.264c0,0,0.209,0.316,0.438,1.394
		c0.852,3.879-0.1,9.333,5.556,12.788c-0.012,0.078-0.043,0.714-0.046,0.792c-8.035,3.119-5.107,11.496-5.722,15.173
		c4.453,0.825,10.64,4.467,15.103-0.301c7.203,10.146,23.239,5.066,23.239-7.396c0-13.097-17.469-17.733-23.944-6.291
		c0.049-0.171-0.137-7.17,6.187-11.949c10.149-7.836,26.93-1.029,25.195,15.641c-0.104,0.479-0.537,5.151-2.734,9.366
		c-0.642,1.576-3.023,5.171-4.376,6.491c-3.466,3.951-8.109,6.796-13.099,8.298c-18.782,5.55-37.207-9.425-36.444-27.556
		c0.67-17.401,9.811-29.779,22.298-36.195c31.89-16.319,71.738,13.279,56.37,55.174c-16.221,43.575-77.085,47.466-98.262,5.244
		c-6.935-13.74-6.953-29.098-2.598-43.919c1.11-2.843,1.953-5.794,3.421-8.486c0.08-0.168,1.574-3.297,1.48-3.1
		c0.102-0.168,3.162-5.205,2.974-4.896c0.421-0.686,3.93-5.378,4.06-5.548c32.794-39.657,96.205-28.705,113.596,19.575
		c1.201,2.819,1.732,5.846,2.562,8.783c0.092,0.481,1.061,6.75,1.066,6.791c0.009,0.169,0.38,7.335,0.356,6.879
		c-0.477,4.487,0.435,8.745-3.437,23.062c-0.161,0.531-2.964,8.239-2.767,7.694c-4.352,9.606-8.793,16.527-16.897,25.065
		c-0.169,0.152-2.774,2.505-2.605,2.353c-1.173,1.025-2.264,2.152-3.496,3.106c-0.173,0.129-5.983,4.472-5.622,4.201l-2.004,1.205
		c-5.893,3.155,1.944-0.359-11.338,6.03c-0.433,0.159-7.236,2.659-7.694,2.767c-0.174,0.045-7.228,1.857-6.79,1.744
		c-13.247,2.623-23.831,1.306-23.29,1.333c-1.168-0.006-8.538-1.192-9.253-1.333c-0.174-0.045-7.228-1.857-6.79-1.744
		c-0.456-0.107-7.863-2.828-7.694-2.767c-0.169-0.082-3.357-1.629-3.154-1.531c-1.391-0.7-2.838-1.295-4.19-2.067
		c-0.169-0.103-6.392-3.877-5.998-3.639l-1.871-1.404c-2.129-1.768-2.229-1.19-8.981-7.473l-0.869-0.783l-0.783-0.87
		c-2.83-3.454-1.863-1.326-8.878-10.852c-0.107-0.174-4.069-6.603-4.695-8.081c-0.086-0.177-2.707-5.603-2.541-5.261
		c-0.063-0.175-1.269-3.501-1.195-3.295c-0.513-1.469-1.12-2.91-1.571-4.399c-0.045-0.174-1.857-7.228-1.744-6.79
		c-0.107-0.425-1.062-6.759-1.088-6.929c-0.214-1.003-0.598-9.15-0.605-9.344H9.436l0.02,0.405c-1.337,0.655-4.225,2.398-5.94,5.813
		c-1.125,2.271-2.103,3.639-2.618,4.394C0.335,95.931,0,96.107,0,96.107s0.374,0.094,1.144,0.7c3.833,3.006,4.049,6.488,10.715,7.93
		c0.044,0.171,0.245,0.956,0.201,0.785c-1.163,0.953-3.639,3.346-4.586,7.093c-0.94,5.062-1.947,5.808-2.021,5.977
		c0,0,0.381,0.004,1.249,0.421c3.08,1.381,5.695,5.335,12.266,5.184c0.081,0.168,0.432,0.897,0.351,0.73
		c-3.922,5.194-2.072,8.642-2.966,13.013c-0.195,0.966-0.42,1.282-0.42,1.282c0.168,0.031,1.385-0.35,6.192,1.724
		c2.865,1.236,5.635,1.215,8.325,0.497c0.153,0.168,0.698,0.767,0.545,0.599c-2.692,6.227,0.052,9.44,0.193,13.312
		c0.059,0.961-0.081,1.316-0.081,1.316c0.168-0.005,1.189-0.654,6.295,0.375c3.836,0.524,6.97-0.847,8.294-1.566
		c0.173,0.129,0.822,0.614,0.649,0.485c-1.167,6.511,2.046,8.508,3.291,12.929c0.269,0.946,0.213,1.327,0.213,1.327
		c0.168-0.049,1.28-0.912,6.288-1.268c3.803-0.281,6.471-2.226,7.628-3.332c0.175,0.064,0.936,0.343,0.761,0.279
		c0.422,6.227,4.392,8.635,6.263,11.749c0.495,0.821,0.533,1.199,0.533,1.199c0.168-0.094,0.816-1.162,5.783-2.589
		c2.026-0.531,4.779-2.423,6.646-5.171c0.169,0.026,0.97,0.148,0.801,0.122c0.796,2.555,2.345,5.15,4.866,6.84
		c4.338,2.842,4.613,4.022,4.773,4.19c0,0,0.147-0.35,0.857-0.988c2.756-2.513,7.186-3.601,9.413-9.419
		c0.169-0.009,0.978-0.049,0.809-0.04c3.255,5.837,8.303,5.166,11.951,8.491c0.108-0.168,0.188-1.407,3.94-5.074
		c2.135-2.087,3.246-4.632,3.598-7.526c0.175-0.064,0.936-0.342,0.761-0.278c4.678,4.76,9.066,3.615,12.413,4.829
		c0.913,0.306,1.19,0.569,1.19,0.569s-0.03-0.381,0.305-1.289c1.327-3.613,4.81-6.163,4.065-12.684
		c0.168-0.102,0.86-0.523,0.693-0.42c5.607,3.528,8.653,1.294,13.219,1.797c0.977,0.105,1.31,0.299,1.31,0.299
		s-0.112-0.354,0.01-1.301c0.397-4.424,3.184-7.671,0.949-13.318c0.153-0.168,0.698-0.768,0.545-0.6
		c4.705,1.55,7.992,0.154,11.36-0.932c2.442-0.73,3.026-0.465,3.194-0.482c0,0-0.202-0.325-0.32-1.288
		c-0.511-4.06,1.503-7.564-2.169-13.144c0.102-0.168,0.523-0.86,0.421-0.693c6.834,0.54,8.163-2.734,12.578-4.432
		c0.914-0.354,1.298-0.333,1.298-0.333s-0.267-0.267-0.584-1.163c-0.271-0.873-0.815-2.475-1.212-4.973
		c-0.633-3.769-2.87-6.272-3.971-7.292c0.044-0.171,0.245-0.955,0.201-0.784c6.038-0.967,7.918-4.915,11.141-7.29
		c0.767-0.567,1.139-0.639,1.139-0.639s-0.33-0.197-0.885-1c-2.629-3.777-1.986-7.381-7.962-10.69
		c0.009-0.169,0.049-0.979,0.041-0.81c6.288-2.648,6.377-6.512,9.145-9.749c0.634-0.746,0.982-0.91,0.982-0.91
		C194.368,78.444,194.363,79.187,190.207,74.035z"/>
	<path fill="#8BC9B1" d="M415.695,89.779c0.449-5.333-1.316-9.726-6.128-9.37c2.441-0.134,3.92-1.272,4.744-3.108
		c1.631-3.638,0.107-17.18-7.817-14.792c4.888-1.444,4.505-6.287,2.534-10.986c-2.255-4.738-5.229-8.316-9.759-5.679
		c3.143-1.805,3.384-4.702,1.958-8.034c-2.876-5.622-8.209-10.894-12.812-6.524c1.771-1.661,2.215-3.53,1.627-5.428
		c-1.242-3.562-6.377-8.08-10.492-8.751c-1.92-0.328-3.675,0.424-5.018,2.475c4.444-6.704-7.538-12.271-11.917-11.736
		c-1.994,0.248-3.507,1.329-4.336,3.629c0.842-2.295,0.377-4.1-0.99-5.575c-1.35-1.51-3.698-2.298-6.314-3.01
		c-2.61-0.768-5.137-0.688-6.998-0.075c-1.874,0.648-3.091,2.017-3.364,4.447c0.638-4.98-3.637-6.455-9.079-6.7l0,0
		c-5.441,0.245-9.716,1.72-9.079,6.7c-0.274-2.429-1.491-3.798-3.364-4.447c-1.86-0.613-4.389-0.694-6.998,0.075
		c-2.616,0.711-4.964,1.5-6.314,3.01c-1.367,1.475-1.832,3.279-0.99,5.575c-1.215-3.372-4.102-4.296-7.555-3.299
		c-6.02,1.746-12.146,6.207-8.698,11.407c-2.782-4.248-7.329-2.528-11.243,0.732c-3.893,3.509-6.475,7.375-2.64,10.973
		c-3.712-3.524-7.684-0.802-10.755,3.307c-3.111,4.163-4.51,8.718-0.097,11.251c-2.091-1.218-4.034-1.123-5.657,0.001
		c-3.142,2.27-5.912,8.525-5.379,12.571c0.236,1.934,1.457,3.397,3.812,4.092c-2.34-0.706-4.076-0.125-5.407,1.343
		c-1.284,1.472-2.372,3.766-2.684,6.465l0,0c-0.38,2.682-0.546,5.155,0.274,6.984c0.824,1.836,2.303,2.974,4.744,3.108
		c-4.808-0.33-6.586,3.948-6.118,9.54c0.038,2.767,0.921,5.208,2.048,6.819c1.17,1.618,2.86,2.348,5.28,1.829
		c-5.06,1.052-4.891,6.024-3.194,10.884c1.814,4.859,4.911,8.721,9.441,6.288c-2.186,1.155-3.031,2.811-2.882,4.798
		c0.158,1.969,1.079,4.383,2.813,6.545l0,0c3.109,4.171,7.13,7.013,10.827,3.416c-3.705,3.554-1.035,7.843,3.029,10.945
		c4.359,3.488,9.022,4.509,11.364,0.289c-3.279,5.624,3.766,9.683,9.672,10.805c3.56,0.706,6.404-0.47,7.263-3.984
		c-1.299,5.161,3.132,6.976,8.373,7.746c5.251,0.353,9.978-0.592,9.777-5.853c0.086,4.834,4.664,6.134,10.158,5.106l0,0
		c5.059-0.783,9.418-3.339,7.834-8.216c0.898,2.802,3.011,4.384,7.538,3.478c6.049-1.724,12.451-6.24,8.899-11.462
		c2.878,4.293,7.392,2.24,11.271-1.137c3.823-3.498,6.244-7.807,2.287-11.107c1.887,1.595,3.743,1.764,5.528,0.882
		c1.766-0.882,3.661-2.636,5.019-5.055c2.702-4.434,3.848-9.238-0.881-11.324c2.21,0.994,4.156,0.693,5.59-0.666
		c3.93-3.551,7.273-15.937-0.598-16.898c2.409,0.344,4.124-0.496,5.254-2.18c2.558-4.239,2.754-17.604-5.398-16.141
		c2.368-0.403,3.855-1.769,4.251-3.746c1.165-5.383-3.527-17.642-10.533-13.548c3.206-1.836,3.377-4.897,1.647-8.183
		c-3.069-5.633-9.319-10.903-13.459-5.93c5.143-6.075-6.048-12.931-11.501-12.748c-2.081,0.204-3.628,1.279-4.453,3.578
		c2.3-6.24-5.63-8.84-11.864-8.761c-3.661,0.232-6.268,1.855-6.253,5.525c0.033-7.898-12.983-5.966-16.999-2.358
		c-1.473,1.464-1.96,3.309-1.118,5.594c-1.258-3.507-4.139-4.158-7.777-3.056c-1.193,0.361-2.47,0.86-3.668,1.637
		c-4.543,2.739-7.909,6.575-4.509,10.59c-1.563-1.878-3.358-2.328-5.344-1.767c-4.669,1.131-13.69,11.743-6.467,15.879
		c-7.025-4.104-11.691,8.201-10.533,13.548c0.396,1.977,1.883,3.342,4.251,3.746c-2.406-0.432-4.086,0.377-5.272,2.082
		c-2.889,3.885-2.726,18.42,5.542,16.42c-6.519,1.496-4.197,9.951,0.015,15.094c2.441,2.884,5.431,4.012,8.321,1.558
		c-4.111,3.411-1.141,8.112,3.17,11.328l0,0c4.257,3.175,9.673,4.728,11.766-0.201c-1.525,3.48,0.441,6.023,3.893,7.52
		c6.191,2.502,14.872,2.33,14.448-4.333c0.123,2.4,1.338,4.012,3.348,4.626c6.005,1.913,18.538-3.032,14.49-9.941
		c2.644,4.637,7.896,2.581,11.723-1.139v-0.001c1.584-1.351,3.693-4.127,4.119-6.427c0.427-2.086-0.219-3.85-2.29-5.198
		c2.033,1.356,3.904,1.248,5.696,0.057c4.193-2.567,9.145-16.635,0.664-17.565c5.507,0.666,6.754-5.096,5.892-10.556l0,0
		c-0.801-5.341-4.485-10.815-9.333-8.002c9.675-5.463-10.847-22.663-14.541-12.194c3.905-10.442-22.867-10.407-18.975,0
		c-1.873-5.309-7.908-3.464-12.3,0.107l0,0c-4.285,3.651-7.117,9.334-2.241,12.087c-3.526-2.046-6.067,0.026-7.99,3.609
		c-3.79,8.692-0.571,17.663,5.18,15.439c-2.297,0.783-3.377,2.679-2.82,5.359c1.224,6.3,10.404,11.576,16.438,9.483
		c1.65-0.557,2.689-1.527,3.108-2.772c8.504,4.055,18.298-2.202,18.298-11.549c0-7.07-5.731-12.802-12.802-12.802
		c-5.37,0-9.96,3.309-11.861,7.997c-0.377-1.619,0.144-5.748,2.111-9.179c8.285-14.76,33.354-9.049,30.75,11.693
		c-3.026,25.074-34.525,35.133-51.394,15.376c-4.861-5.77-5.971-12.094-6.24-12.856c-0.025-0.169-0.407-2.689-0.381-2.521
		c-0.869-6.932,0.865-16.397,5.412-24.31c21.479-37.132,82.057-22.374,77.768,26.614c-0.563,2.673-0.294,6.547-4.429,16.439
		c-0.361,0.659-3.104,7.208-8.018,12.86c-20.265,23.941-55.833,25.746-78.136,5.434c-0.169-0.152-2.287-2.064-2.119-1.912
		c-0.153-0.168-3.404-3.751-3.196-3.522c-0.39-0.449-3.332-4.373-3.454-4.539c-5.616-9.052-7.22-14.157-8.698-22.882l-0.296-1.878
		c-0.017-0.195-0.292-5.524-0.301-5.707c0.009-0.172,0.319-6.218,0.301-5.858c0.015-1.03,1.046-7.56,1.073-7.729
		c0.044-0.171,1.553-6.033,1.459-5.665c0.189-0.802,2.324-6.61,2.652-7.328c3.671-7.11-0.729,0.458,5.563-10.282
		c0.409-0.712,4.107-5.649,4.656-6.26c0.159-0.175,4.193-4.619,3.937-4.338c0.175-0.159,4.619-4.193,4.338-3.938
		c0.606-0.544,5.549-4.248,6.261-4.655l3.337-2.022c9.816-5.847,20.817-7.878,19.936-7.652c0.17-0.026,6.144-0.936,5.787-0.882
		c0.736-0.146,0.314-0.11,7.799-0.492c7.839,0.263,7.724,0.511,11.656,1.083l1.93,0.29c0.171,0.044,6.033,1.553,5.665,1.459
		c0.804,0.189,6.608,2.324,7.328,2.652c0.168,0.081,5.615,2.7,5.272,2.536c9.159,4.988,15.781,11.778,15.607,11.62
		c0.159,0.175,4.193,4.619,3.937,4.338c4.915,5.478,11.277,17.085,12.87,23.87c0.044,0.171,1.553,6.033,1.459,5.665
		c0.026,0.17,0.935,6.144,0.881,5.787c0.157,0.794,0.484,7.631,0.492,7.799c-0.009,0.169-0.428,8.48-0.402,7.952
		c-1.319,10.912-3.063,15.524-5.831,23.029c-0.081,0.168-3.68,7.628-3.452,7.155c-8.233,13.736-13.27,18.661-23.54,26.547
		c-8.179,5.974-18.005,10.506-28.756,12.989c-0.643,0.153-1.275,0.365-1.928,0.473c-0.171,0.026-6.251,0.945-5.895,0.892
		c-34.753,4.821-59.433-16.658-59.601-16.731c-0.956-0.642-6.874-6.072-6.704-5.918c-0.152-0.169-2.151-2.382-1.999-2.213
		l-2.679-2.939c-20.501-24.783-18.203-49.918-18.657-51.234c-0.433,0-6.752,0-6.545,0h-4.615c-4.888-0.057-5.942,4.294-5.649,9.65
		c0.735,5.317,2.674,9.376,7.445,8.36c-4.865,0.918-4.985,5.386-3.639,10.589c1.775,5.071,4.48,8.665,8.952,6.717
		c-4.535,1.849-3.825,6.281-1.448,11.099c2.784,4.592,6.049,7.637,10.126,4.786c-4.044,2.689-2.564,6.964,0.786,11.155
		c3.593,3.991,7.408,6.311,10.868,2.685c-2.528,2.58-1.998,5.308,0.263,8.161c0.725,0.926,1.61,1.852,2.706,2.62l0,0
		c4.158,3.127,8.368,4.866,11.182,0.489c-1.332,2.049-1.275,3.881-0.271,5.569c2.447,3.913,8.89,6.409,11.968,6.241
		c1.965-0.192,3.522-1.3,4.404-3.567c-0.898,2.274-0.479,4.062,0.839,5.526c3.015,3.3,10.026,4.502,12.973,3.742
		c1.895-0.622,3.193-1.985,3.607-4.391c-0.427,2.407,0.34,4.077,1.921,5.25c3.631,2.652,10.723,2.407,13.44,1.083
		c1.733-0.926,2.737-2.567,2.671-4.993c0.179,8.082,12.848,5.832,16.307,3.183c1.531-1.194,2.183-3.047,1.642-5.399
		c1.092,4.866,6.011,5.06,10.671,3.371c4.902-1.779,8.645-4.365,6.479-9.127c2.06,4.594,7.215,3.733,11.125,1.173
		c4.46-2.703,7.617-5.965,4.53-10.232c2.127,2.971,4.951,2.889,8.14,1.227c1.035-0.555,1.991-1.398,2.992-2.28l0,0
		c1.957-1.815,3.606-3.61,4.124-5.523c0.511-1.925,0.089-3.741-1.707-5.399c2.618,2.442,5.535,1.916,8.236-0.39
		c0.844-0.798,1.671-1.769,2.47-2.838c3.352-4.209,4.392-8.695,0.214-11.184c4.378,2.693,7.647-0.683,9.858-5.287
		c2.493-4.774,2.537-9.418-2.011-11.007c5.918,2.234,8.769-4.681,9.271-10.854c0.121-1.155-0.116-2.257-0.409-3.187
		c-0.643-1.876-2.005-3.133-4.423-3.488C413.465,99.257,415.599,95.153,415.695,89.779z"/>
	<path fill="#FA9592" d="M305.176,274.073c-3.624-5.245-8.83-2.064-13.12-1.932c-0.026-0.169-0.401-2.643-0.375-2.474l6.043-1.163
		c5.431-1.042,6.416-5.445,5.531-10.86c-0.68-2.558-2.004-6.65-3.463-8.745c-5.716-8.376-9.986-3.707-15.911-0.709
		c-0.102-0.168-1.402-2.306-1.3-2.138c3.366-2.648,9.404-3.588,8.818-9.907c-0.258-2.657-2.72-6.678-4.453-8.673l0,0
		c-11.629-12.93-15.366-2.222-19.043,1.068c-1.199-1.086-1.336-1.255-1.889-1.639c2.257-3.634,7.655-6.603,4.836-12.223
		c-1.612-3.087-3.98-4.751-7.131-6.651l0,0c-0.82-0.475-1.601-0.976-2.43-1.319c-12.967-5.323-12.526,4.008-15.086,8.805
		c-0.175-0.064-2.524-0.922-2.349-0.859l2.002-5.819c1.096-3.177,0.287-5.779-1.626-7.401c-4.133-3.684-13.629-5.332-18.731-3.237
		c-5.778,2.529-3.548,8.289-4.15,12.493l-1.25-0.065l-1.25,0.065c-0.603-4.209,1.606-9.973-4.15-12.493
		c-5.955-2.446-19.262,0.153-20.701,6.477c-0.67,2.903,0.868,5.078,2.346,9.98c-0.175,0.064-2.524,0.922-2.349,0.859l-2.202-5.746
		c-2.478-6.552-9.252-5.254-15.314-1.741c-3.386,2.042-5.59,3.699-7.131,6.651c-2.822,5.626,2.591,8.608,4.836,12.223
		c-0.555,0.385-0.68,0.543-1.889,1.639l-4.037-4.645c-2.619-3.036-5.705-3.232-9.223-1.481c-2.056,1.194-4.201,3.3-5.783,5.058
		c-1.242,1.429-2.179,2.998-2.973,4.444c-5.048,9.874,3.651,11.237,7.337,14.135c-0.102,0.168-1.403,2.306-1.3,2.138
		c-5.943-3.008-10.166-7.71-15.911,0.709c-1.412,2.027-2.753,6.074-3.463,8.745c-1.885,11.526,5.323,10.569,11.573,12.024
		c-0.025,0.169-0.401,2.643-0.375,2.474c-4.267-0.131-9.509-3.293-13.12,1.932c-2.848,4.345-2.912,14.742,0.157,19.194
		c3.633,5.289,8.846,1.881,13.079,1.627c0.068,0.408,0.101,0.823,0.224,1.219l0.311,1.202c-4.518,1.68-14.675,0.137-10.518,13.96
		c1.171,3.64,3.593,8.32,7.102,10.581c5.358,3.397,8.801-1.851,12.596-3.858c0.129,0.173,1.618,2.161,1.488,1.988
		c-2.8,2.746-9.207,4.847-7.605,10.836c0.747,2.631,2.735,5.654,5.706,8.178l0,0c5.243,4.76,11.902,7.443,15.526,1.391l3.189-5.262
		c0.168,0.102,2.289,1.393,2.121,1.291c-1.57,3.971-6.439,7.915-2.506,12.912c4.061,4.96,14.192,7.479,18.488,6.015
		c6.162-1.884,4.501-7.857,5.56-11.982l1.227,0.189c0.41,0.048,0.826,0.047,1.239,0.074l-0.51,6.133
		c-0.98,11.166,18.113,9.005,22.789,4.701c4.894-4.15,0.948-8.978,0.251-13.16c0.445-0.094,0.747-0.213,2.345-0.807
		c1.917,3.854,1.535,9.991,7.957,10.591c4.105,0.429,10.673-3.064,14.02-6.081c8.012-8.029,0.384-11.669-2.376-15.818
		c0.168-0.153,2.006-1.823,1.838-1.67c3.597,3.545,4.847,5.983,7.74,6.718c4.963,1.259,10.384-4.734,12.972-9.153
		c6.814-12.786-3.233-13.212-7.411-15.872c0.082-0.168,0.979-2.024,1.071-2.239c4.163,1.155,8.513,5.539,13.093,1.128
		c3.545-3.161,5.414-11.581,4.68-16.897c-1.677-8.455-8.833-5.755-13.134-6.394l0.065-1.24l-0.065-1.227l6.152-0.156
		c7.243-0.142,7.908-7.667,6.091-14.651l0,0c-0.269-0.975-0.495-1.94-0.868-2.82c-5.866-13.732-12.885-5.55-17.086-3.93
		c-0.103-0.168-1.379-2.264-1.276-2.095c4.222-2.824,6.868-3.539,8.122-6.238c2.594-5.514-4.256-12.96-9.34-16.304
		c-2.52-1.468-5.675-2.581-8.307-1.343c-2.698,1.253-3.393,3.868-6.238,8.122c-0.168-0.102-2.264-1.378-2.096-1.276l2.941-5.405
		c2.999-5.434-1.208-9.265-6.871-11.681c-1.301-0.552-5.771-1.803-8.446-1.729c-11.66,0.022-8.443,8.394-9.18,13.104l-1.226-0.065
		l-1.226,0.065c-0.67-4.279,1.624-10.029-4.481-12.468c-5.54-2.099-16.271,1.162-19.382,5.209
		c-4.133,5.061,0.759,8.957,2.307,12.971c-0.168,0.102-2.264,1.378-2.096,1.276l-3.216-5.246
		c-3.835-6.271-10.405-2.945-15.773,2.021c-2.453,2.65-4.603,5.333-5.302,8.872c-1.2,5.583,4.294,7.284,8.527,10.116
		c-0.103,0.168-1.379,2.264-1.276,2.095l-5.405-2.941c-4.422-2.44-8.131-0.052-10.487,4.383c-2.043,3.761-2.987,8.615-2.923,10.936
		c0.02,11.658,8.409,8.445,13.104,9.18l-0.065,1.227l0.063,1.202l-6.15,0.208c-14.458,0.372-2.568,32.962,8.707,23.975l4.845-3.793
		c0.25,0.313,0.455,0.663,0.742,0.946l0.811,0.889c-3.642,3.556-6.147,4.732-6.816,7.637c-0.863,3.746,2.462,7.692,5.543,9.994
		c3.341,2.353,4.946,3.027,8.172,4.102c5.144,1.198,9.562,0.344,10.609-4.833l1.268-6.022c0.205,0.054,2.206,0.357,2.375,0.38
		l-0.852,6.094c-2.106,14.237,31.986,8.22,25.13-4.394l-2.895-5.431c0.202-0.088,1.9-1.122,2.067-1.228l3.261,5.219
		c5.954,9.696,20.602-4.76,20.63-13.085c0.285-6.724-6.222-6.637-9.928-8.746c0.064-0.175,0.89-2.433,0.826-2.258l5.853,1.901
		c10.756,3.585,13.127-16.914,6.611-24.262c-4.289-4.843-8.26-0.964-13.2,1.301c-0.226-0.524-0.343-0.667-1.15-2l5.162-3.35
		c6.443-4.067,1.559-12.138-5.603-16.283l0,0c-6.894-4.034-16.612-4.498-16.919,3.306l-0.312,6.146l-1.155-0.062l-1.155,0.062
		l-0.312-6.146c-0.128-3.251-1.923-5.296-5.145-5.967c-11.174-2.232-27.078,12.82-17.377,18.944l5.162,3.35
		c-0.814,1.343-0.928,1.485-1.15,2l-5.479-2.801c-6.94-3.562-11.348,5.041-11.32,13.003c-0.014,12.125,10.278,19.213,14.792,12.932
		l3.595-4.961c1.089,6.634,6.833,11.701,13.775,11.701c7.719,0,13.977-6.258,13.977-13.977c0-11.179-12.474-17.757-21.685-11.654
		c3.82-8.011,12.102-7.692,12.324-7.759c0.327,0.094,7.265-0.264,11.507,6.268c4.909,7.973-0.015,18.13,0.288,17.302
		c-4.881,11.74-16.678,17.891-28.113,16.191c-18.428-2.414-29.451-23.009-17.936-44.655c0.104-0.168,1.155-1.875,1.051-1.707
		c9.727-17.009,32.883-24.007,51.814-13.934c0.168,0.104,1.875,1.155,1.707,1.051c8.901,5.091,14.038,14.758,13.934,14.59
		c16.98,31.916-13.131,74.574-52.288,69.918l-1.049-0.169c-12.297-1.489-20.387-7.143-20.219-7.039
		c-45.344-27.439-25.236-102.061,33.141-107.999c0.172-0.009,6.521-0.332,6.161-0.314c0.172,0.009,6.521,0.332,6.161,0.314
		c9.691,0.986,16.988,4.057,16.82,3.996c36.232,14.206,40.115,48.577,40.193,48.746l0.163,1.089c0.677,3.308,0.65,6.703,0.878,10.07
		c-0.009,0.172-0.418,8.282-0.393,7.779c-0.026,0.17-0.599,3.905-0.564,3.677c-0.025,0.171-0.583,3.908-0.549,3.68
		c-0.062,0.389-1.849,7.361-1.893,7.53c-0.08,0.234-2.572,7.088-2.649,7.297c-0.086,0.177-1.725,3.552-1.625,3.344
		c-0.08,0.168-1.702,3.563-1.603,3.355c-7.807,13.011-10.864,14.778-12.049,16.388c-9.545,9.711-15.695,12.459-17.126,13.453
		c-8.297,4.733-12.234,5.53-15.187,6.762c-0.568,0.169-7.358,1.926-7.19,1.881c-0.754,0.162-7.505,1.198-7.673,1.222
		c-0.454,0.076-7.605,0.431-7.774,0.438c-0.862,0.014-7.615-0.328-7.447-0.32c-6.847-0.789-13.711-2.009-20.118-4.621
		c-0.175-0.063-2.297-0.831-2.122-0.768c-0.869-0.313-6.863-3.205-7.032-3.289c-0.436-0.192-6.499-3.88-6.669-3.985
		c-0.17-0.127-5.384-4.011-5.062-3.771c-5.95-5.172-12.094-10.952-16.229-17.714c-6.979-11.794-3.646-6.55-6.182-11.359
		c-0.869-1.854-3.106-8.144-3.145-8.312c-0.044-0.171-1.663-6.497-1.563-6.109c-0.419-1.348-1.559-8.04-1.836-16.558h-8.727
		l0.065,1.257c-4.871,0.68-12.43-2.533-13.553,8.378c-0.162,2.199,0.439,7.031,1.523,10.337c4.232,10.177,10.832,4.781,15.438,4.041
		l0.311,1.218c0.099,0.408,0.276,0.792,0.41,1.188c-3.956,2.01-12.677,1.017-10.469,12.011c0.645,2.576,2.908,7.316,4.541,9.416
		c3.156,3.759,6.66,5.439,10.775,2.7l5.132-3.395c0.876,1.422,0.372,0.569,1.441,2.059c-3.159,2.872-9.118,4.299-8.052,10.417
		c0.618,3.284,2.263,5.458,4.828,8.271c2.416,2.839,5.314,4.72,7.89,5.43c6.022,1.601,7.929-4.351,10.947-7.209
		c0.173,0.129,2.19,1.634,2.017,1.505l-3.768,4.865c-4.033,5.034-0.384,10.29,6.16,13.978l0,0c0.797,0.479,1.586,0.93,2.369,1.322
		c11.809,4.83,12.215-2.206,15.131-8.616c0.175,0.064,2.538,0.926,2.363,0.862c-0.992,4.143-5.121,8.645-0.808,13.209
		c2.932,3.046,9.841,4.785,13.872,4.751c11.125-0.056,8.254-8.361,9.35-12.817c0.169,0.009,2.683,0.133,2.514,0.124
		c0.314,4.853-4.853,16.491,15.286,13.999c13.648-2.79,8.088-10.668,7.668-15.617c0.171-0.044,2.607-0.672,2.436-0.628
		c1.51,3.988,0.628,10.035,6.752,11.361c3.479,0.908,9.576-1.34,11.987-2.504c11.206-6.255,5.816-11.064,2.689-17.202
		c0.168-0.102,2.318-1.409,2.149-1.307c2.628,3.366,3.568,9.388,9.826,8.871c4.717-0.243,14.521-7.511,15.045-13.528
		c0.183-4.095-3.067-5.736-6.878-9.668c0.153-0.168,1.844-2.031,1.691-1.863l4.571,4.119c5.301,4.808,10.18,0.676,14.456-5.054l0,0
		c9.244-14.259-2.001-15.355-6.059-18.054c0.081-0.168,1.172-2.435,1.091-2.266l5.582,2.589c6.364,2.978,10.032-2.443,12.324-9.106
		c4.278-16.273-5.523-13.798-11.156-15.458c0.026-0.169,0.405-2.656,0.38-2.487c5.49,0.057,14.437,5.559,15.195-11.501
		C307.177,279.789,306.672,276.355,305.176,274.073z"/>
</g>
</svg>
