<?xml version="1.0" encoding="iso-8859-1"?>
<!-- Generator: Adobe Illustrator 24.1.0, SVG Export Plug-In . SVG Version: 6.00 Build 0)  -->
<svg version="1.1" id="Calque_1" xmlns="http://www.w3.org/2000/svg" xmlns:xlink="http://www.w3.org/1999/xlink" x="0px" y="0px"
	 width="383.949px" height="309.271px" viewBox="0 0 383.949 309.271" enable-background="new 0 0 383.949 309.271"
	 xml:space="preserve">
<g>
	<path fill="#1A1A1A" d="M171.847,155.556c-16.238,4.587-24.703,22.372-18.221,37.772c6.493,15.424,25.013,21.799,39.575,13.546
		c9.055-5.129,14.629-14.862,14.217-25.473C206.718,163.425,189.323,150.624,171.847,155.556z M196.467,200.787
		c-13.833,12.885-36.205,6.26-41.129-11.682c-1.661-6.052-0.985-12.56,1.954-18.17c7.055-13.478,24.301-17.544,36.581-8.834
		c6.471,4.591,10.466,11.99,10.565,20.089C204.475,185.36,201.588,196.014,196.467,200.787z"/>
	<path fill="#1A1A1A" d="M179.446,161.5c-9.375,0-17.425,6.233-20.072,14.831c-4.182,13.412,6.026,27.169,20.072,27.169
		c12.37,0,22.313-10.866,20.845-23.448C199.06,169.535,190.095,161.5,179.446,161.5z M188.086,198.283
		c-5.471,3.007-12.17,2.904-17.444-0.1c-9.868-5.561-12.117-18.608-5.077-27.13c3.518-4.258,8.722-6.553,13.881-6.553
		c13.071,0,21.838,13.623,16.33,25.524C194.537,192.702,191.258,196.54,188.086,198.283z"/>
	<path fill="#1A1A1A" d="M375.661,239.39c-5.53-3.236-13.19-6.07-21.566-7.981c-5.727-1.307-10.639-2.251-14.882-2.903
		c3.607-2.52,7.639-5.556,12.131-9.14v0c6.717-5.358,12.387-11.237,15.965-16.553c3.947-5.865,4.907-10.377,2.776-13.048
		c-2.131-2.67-6.744-2.736-13.339-0.192c-5.979,2.307-12.97,6.528-19.687,11.887c-4.46,3.557-8.289,6.807-11.525,9.779
		c0.271-4.376,0.401-9.396,0.401-15.135c0-6.406-0.641-12.969-1.882-18.547c2.777,1.503,6.017,2.515,9.125,2.515
		c2.64,0,4.882-0.738,6.282-2.126c4.362-4.324,2.884-18.029-11.195-26.518c16.043-3.582,21.799-16.105,19.032-21.595
		c-2.768-5.489-16.256-8.314-28.68,2.453c1.552-16.378-8.592-25.706-14.657-24.774c-6.082,0.936-12.924,12.905-6.53,28.033
		c-9.309-4.032-17.751-3.115-23.194,0.18c-6.046-5.361-10.424-10.472-13.168-14.04c0.195-0.1,15.048-7.887,15.376-23.705
		c5.856,5.469,12.831,6.843,18.322,6.843c5.361,0,9.303-1.296,9.389-1.325c0.69-0.235,1.112-0.933,0.998-1.654
		c-0.033-0.212-0.071-0.335-0.111-0.611c-0.026-0.177-0.034-0.172-0.082-0.319c-0.833-3.587-4.694-16.528-17.599-21.019
		c13.858-7.668,13.812-24.466,13.81-24.65c-0.01-0.73-0.544-1.347-1.265-1.461c-0.506-0.08-0.424-0.07-0.461-0.073
		c-10.082-0.738-19.805,2.161-25.913,10.211c-3.01-15.548-19-20.696-19.176-20.751c-0.693-0.217-1.447,0.102-1.779,0.751
		c-0.083,0.164-7.549,15.213,1.492,28.216c-15.716-1.94-25.555,11.675-25.661,11.825c-0.421,0.596-0.352,1.409,0.164,1.925
		c0.033,0.033,0.856,0.837,2.307,1.93c-4.138-0.617-8.582-0.609-13.096,0.033c-1.171-0.281-19.379-4.848-37.372-20l-0.966-0.813
		c-0.658,0.512-5.582,5.002-13.651,9.93c-0.044-2.754-2.602-5.685-7.492-8.546c-4.966-2.905-11.839-5.449-19.355-7.163
		c-4.948-1.129-9.225-1.957-12.938-2.539c3.147-2.217,6.638-4.857,10.538-7.968v0c6.026-4.807,11.114-10.083,14.326-14.855
		c3.577-5.314,4.434-9.418,2.479-11.868c-1.955-2.451-6.147-2.526-12.123-0.221c-5.367,2.071-11.642,5.859-17.667,10.667
		c-3.864,3.082-7.203,5.909-10.042,8.501c0.228-3.832,0.337-8.205,0.337-13.174C113.858,10.237,108.62,0,103.446,0
		S93.035,10.237,93.035,29.802c0,5.081,0.144,9.438,0.403,13.191c-2.859-2.58-6.222-5.411-10.114-8.514
		c-6.027-4.806-12.302-8.593-17.669-10.663c-5.977-2.305-10.168-2.228-12.123,0.223c-1.955,2.451-1.097,6.555,2.481,11.868
		c3.213,4.772,8.302,10.047,14.329,14.853c3.871,3.087,7.376,5.719,10.539,7.912c-3.793,0.626-8.095,1.49-12.937,2.595
		c-7.515,1.716-14.388,4.261-19.354,7.167c-5.528,3.235-8.081,6.561-7.383,9.617s4.441,4.944,10.826,5.459
		c6.518,0.527,14.142-0.48,20.546-1.942c4.821-1.101,9.058-2.198,12.741-3.302c-1.868,3.355-3.865,7.248-6.021,11.728
		c-3.91,8.121-5.941,14.92-6.559,20.133c-4.316-0.368-8.898,1.219-12.898,4.385c0.548-11.004-6.422-17.12-10.708-16.459
		c-4.288,0.659-9.091,8.6-5.264,18.918c-10.288-3.918-18.265,0.807-18.963,5.097c-0.693,4.257,5.321,11.305,16.364,10.853
		c-2.313,2.872-3.811,6.056-4.336,9.23c-2.753-1.784-5.598-2.44-7.815-1.748h0c-5.863,1.829-10.864,14.674-2.279,28.694
		c-15.888-4.211-26.767,4.252-26.84,10.4c-0.073,6.192,10.65,14.861,26.579,11.045c-8.913,13.816-4.211,26.764,1.602,28.73
		c5.819,1.967,17.414-5.486,18.71-21.874c9.078,11.148,20.948,12.286,26.156,8.882c-0.201,3.678,0.171,7.208,1.208,10.399
		c2.086,6.42,7.084,12.393,13.775,16.984c-3.13,3.209-11.043,12.805-8.381,25.408c-13.725-7.9-28.083,0.819-28.24,0.916
		c-0.619,0.386-0.872,1.162-0.597,1.837c0.069,0.17,6.557,15.667,22.305,17.342c-11.752,10.612-7.897,26.96-7.853,27.138
		c0.172,0.694,0.816,1.186,1.563,1.136c0.184-0.013,16.924-1.398,23.385-15.858c6.461,14.46,23.201,15.845,23.385,15.858
		c0.745,0.05,1.391-0.44,1.563-1.136c0.004-0.017,0.045-0.19,0.102-0.485c0.012-0.034,0.056-0.199,0.066-0.266
		c1.535-9.813-0.621-19.705-8.021-26.387c4.078-0.434,7.534-1.791,10.418-3.574c20.916-0.488,36.06,5.585,37.103,6.015
		c7.365,7.136,16.347,11.497,24.617,11.497c8.27,0,17.251-4.36,24.616-11.496c0.824-0.34,10.84-4.36,25.668-5.649
		c2.091,3.131,5.442,5.623,9.565,7.136c-9.663,5.28-11.244,14.416-8.438,17.731c2.789,3.295,12.057,3.287,18.879-5.397
		c2.033,10.801,10.209,15.158,14.255,13.503c3.988-1.631,6.864-10.444,0.695-19.632c7.669,0.99,13.516-1.906,16.044-5.585
		c-0.861,4.815-1.5,12.377,2.896,14.493c0.674,0.325,1.391,0.479,2.144,0.479c6.733,0,16.276-12.335,22.539-25.342
		c2.476-5.143,4.517-9.734,6.143-13.816c1.656,4.062,3.718,8.643,6.209,13.815c6.266,13.007,15.81,25.338,22.543,25.338
		c0.752,0,1.471-0.154,2.145-0.479c3.078-1.483,4.17-5.965,3.156-12.962c-0.918-6.342-3.478-14.097-7.206-21.838
		c-2.481-5.151-4.802-9.616-6.984-13.438c4.213,1.247,9.093,2.503,14.684,3.779c6.363,1.451,13.036,2.293,18.826,2.293
		c8.45,0,15.02-1.792,16.002-6.096C384.587,246.608,381.763,242.96,375.661,239.39z M380.902,249.272
		c-0.784,3.441-13.048,5.693-31.234,1.545c-6.326-1.443-11.711-2.852-16.212-4.243c1.126-1.71,2.029-3.58,2.664-5.569l28.263,6.447
		c0.8,0.184,1.611-0.316,1.797-1.129c0.184-0.808-0.321-1.612-1.129-1.796l-28.216-6.436c0.425-2.397,0.455-4.608,0.161-6.887
		c4.454,0.628,9.857,1.63,16.431,3.13c8.087,1.845,15.445,4.56,20.72,7.646C379.623,245.184,381.227,247.847,380.902,249.272z
		 M344.046,295.498c-3.179,1.538-12.587-6.652-20.682-23.458c-2.93-6.083-5.131-11.123-6.766-15.315
		c2.091-0.194,4.099-0.674,5.988-1.399l12.582,26.121c0.36,0.747,1.256,1.06,2.003,0.701c0.746-0.36,1.06-1.256,0.7-2.002
		l-12.559-26.073c2.041-1.113,3.89-2.533,5.492-4.193c2.394,4.069,4.981,8.991,7.79,14.823c3.6,7.473,6.064,14.919,6.94,20.966
		C346.446,291.948,345.364,294.864,344.046,295.498z M284.927,295.503c-1.316-0.634-2.399-3.549-1.49-9.829
		c0.875-6.048,3.338-13.494,6.937-20.967c2.932-6.089,5.503-10.957,7.762-14.85c1.424,1.479,3.045,2.766,4.823,3.818l-12.58,26.128
		c-0.359,0.747-0.046,1.643,0.701,2.002c0.743,0.359,1.641,0.047,2.002-0.701l12.553-26.072c2.092,0.888,4.344,1.468,6.698,1.691
		c-1.688,4.405-3.922,9.492-6.727,15.318C297.513,288.851,288.112,297.033,284.927,295.503z M278.949,280.145
		c0.195,2.599-5.87,7.898-15.424,5.929c1.247-3.297,0.86-6.71-0.718-9.515C272.134,273.129,278.764,277.65,278.949,280.145
		L278.949,280.145z M262.855,306.154c-2.416,0.984-9.329-3.145-10.406-12.846c0.192,0.01,0.384,0.035,0.575,0.035
		c3.08,0,6.083-1.281,8.259-3.634C267.3,297.374,265.27,305.165,262.855,306.154z M233.146,298.886
		c-1.686-1.994,0.113-9.843,8.992-13.863c0.865,3.164,3.09,5.871,6.164,7.282C242.876,300.394,234.836,300.879,233.146,298.886z
		 M230.878,268.384L230.878,268.384c0.001-0.002,0.003-0.004,0.004-0.006c1.381-2.207,9.388-2.95,15.967,4.281
		c-2.669,1.745-4.617,4.623-5.026,8.106C232.283,278.057,229.556,270.522,230.878,268.384z M105.648,276.295
		c0.317-1.824,0.244-2.765,0.206-3.506c6.129,0.024,12.581-3.082,17.659-6.468C119.069,272.241,112.985,275.96,105.648,276.295z
		 M92.43,289.115c1.231-0.175,2.417-0.488,3.539-0.933c2.167,6.414,7.876,11.755,12.119,15.013
		C102.935,301.529,95.688,297.716,92.43,289.115z M74.392,302.508c4.052-3.293,8.922-8.216,10.895-14.023
		c0.872,0.29,1.78,0.497,2.712,0.63C85.141,296.716,79.267,300.567,74.392,302.508z M57.269,266.785
		c4.396,2.929,10.868,6.336,17.282,6.439c-0.003,0.129-0.02,0.255-0.02,0.385c0,0.916,0.095,1.809,0.247,2.683
		C66.183,275.893,60.553,270.994,57.269,266.785z M95.411,172.985c1.073,1.366,2.835,3.387,5.364,5.647
		c-10.117,10.693-12.798,24.128-10.018,32.684c2.784,8.567,12.849,17.844,27.314,20.552c-0.718,3.316-0.953,5.982-1.018,7.72
		c-20.163-0.128-36.191-12.287-39.943-23.837C73.354,204.193,79.188,184.928,95.411,172.985z M72.313,202.967
		c-2.615,3.51-15.238,3.445-24.152-8.809c2.091-0.99,3.868-2.361,5.337-4.113l8.515,6.343c0.67,0.498,1.609,0.352,2.099-0.307
		c0.495-0.665,0.357-1.604-0.307-2.099l-8.607-6.411c0.894-1.614,1.477-3.379,1.754-5.223
		C71.249,187.379,74.928,199.457,72.313,202.967z M29.143,216.429c-4.148-1.403-7.985-13.434,0.92-25.7
		c1.477,1.568,3.269,2.834,5.281,3.69l-3.422,10.119c-0.33,0.974,0.398,1.981,1.421,1.981c0.625,0,1.209-0.395,1.421-1.02
		l3.44-10.174c2.018,0.428,3.852,0.441,5.803,0.125C43.637,210.653,33.252,217.815,29.143,216.429z M3,179.532L3,179.532
		c0.02-1.652,1.598-3.763,4.021-5.379c1.452-0.969,5.477-3.203,11.631-3.203c2.634,0,5.666,0.422,9.046,1.515
		c-1.026,1.872-1.647,3.943-1.84,6.106c-0.104-0.001-11.106-0.132-11.005-0.131c-0.82,0-1.49,0.66-1.5,1.482
		c-0.01,0.828,0.654,1.508,1.482,1.518l11.033,0.131c0.202,2.005,0.782,3.902,1.671,5.615C12.97,191.528,2.948,183.867,3,179.532z
		 M30.013,143.266L30.013,143.266c4.024-1.257,14.353,5.899,14.36,21.328c-2.043-0.385-4.135-0.431-6.641,0.176l-3.309-10.61
		c-0.246-0.791-1.089-1.232-1.878-0.986c-0.791,0.247-1.232,1.088-0.986,1.878l3.338,10.704c-1.7,0.785-3.183,1.804-4.58,3.218
		C21.712,156.503,25.834,144.569,30.013,143.266z M27.868,122.549c0.404-2.473,7.386-6.393,16.392-2.161
		c-1.831,2.679-2.49,6.044-1.542,9.412C33.036,130.928,27.449,125.125,27.868,122.549z M49.816,101
		c2.695,0,8.078,5.492,6.896,14.927c-3.148-0.925-6.571-0.463-9.427,1.457C43.168,108.419,47.135,101,49.816,101z M52.274,80.519
		c-5.584-0.451-7.876-1.972-8.142-3.137c-0.266-1.165,1.139-3.53,5.974-6.36c4.708-2.755,11.28-5.182,18.506-6.831
		c5.569-1.272,10.393-2.217,14.515-2.844c-0.237,1.937-0.219,3.315,0.035,5.218l-25.185,5.75c-0.808,0.185-1.313,0.989-1.128,1.796
		c0.159,0.695,0.777,1.167,1.461,1.167c0.32,0-1.267,0.314,25.463-5.775c0.551,1.912,1.374,3.706,2.424,5.346
		c-4.017,1.27-8.784,2.537-14.285,3.793C64.686,80.292,57.714,80.958,52.274,80.519z M55.878,25.908
		c0.352-0.44,1.143-0.757,2.43-0.757c1.441,0,3.505,0.397,6.267,1.463c5.09,1.963,11.084,5.589,16.879,10.209
		c4.471,3.565,8.221,6.75,11.282,9.585c-1.491,0.919-2.857,2.016-4.063,3.275L68.472,33.574c-0.646-0.515-1.59-0.41-2.108,0.238
		c-0.517,0.647-0.41,1.591,0.238,2.108l20.159,16.075c-1.131,1.588-2.036,3.341-2.681,5.219c-3.496-2.348-7.457-5.284-11.868-8.801
		c-5.794-4.621-10.664-9.657-13.71-14.183C55.373,29.583,55.133,26.843,55.878,25.908z M103.446,3
		c3.095,0,7.412,10.196,7.412,26.802c0,5.942-0.172,10.798-0.47,14.788c-1.613-0.584-3.312-0.982-5.084-1.143V17.626
		c0-0.829-0.671-1.5-1.5-1.5s-1.5,0.671-1.5,1.5v25.785c-2.012,0.112-3.944,0.511-5.761,1.164
		c-0.339-4.176-0.509-9.093-0.509-14.774C96.035,13.196,100.351,3,103.446,3z M142.31,26.607c2.763-1.066,4.827-1.464,6.269-1.464
		c1.286,0,2.077,0.316,2.429,0.757c0.745,0.934,0.506,3.674-2.623,8.322c-3.046,4.526-7.915,9.563-13.708,14.185
		c-4.643,3.704-8.544,6.596-11.848,8.852c-0.567-1.665-1.333-3.238-2.287-4.68l20.19-16.106c0.647-0.517,0.754-1.46,0.237-2.108
		c-0.517-0.647-1.46-0.754-2.108-0.237L118.7,50.212c-1.308-1.462-2.819-2.733-4.493-3.772c3.068-2.888,6.814-6.099,11.227-9.62
		C131.227,32.198,137.221,28.572,142.31,26.607z M162.763,77.372c-0.689,3.018-11.588,4.959-27.779,1.265
		c-5.572-1.271-10.331-2.512-14.318-3.737c0.938-1.456,1.701-3.035,2.249-4.712c26.842,6.109,25.192,5.781,25.51,5.781
		c0.684,0,1.302-0.472,1.461-1.167c0.184-0.808-0.321-1.612-1.129-1.796l-25.135-5.734c0.379-2.236,0.388-3.9,0.151-5.875
		c4.145,0.598,8.973,1.525,14.507,2.788c7.225,1.648,13.798,4.073,18.507,6.828C161.623,73.842,163.029,76.206,162.763,77.372z
		 M255.028,75.307c-0.385,0.91-0.692,1.781-0.948,3.045c-6.379-1.363-13.585,0.579-18.53,2.464
		C239.687,77.396,246.391,73.708,255.028,75.307z M270.816,65.812c-1.062-0.094-2.138-0.075-3.216,0.053
		c-0.552-6.323-4.393-12.454-7.682-16.638C264.381,52.15,269.698,57.336,270.816,65.812z M291.303,56.892
		c-4.708,2.36-10.41,6.088-13.477,11.29c-0.851-0.536-1.75-0.989-2.684-1.353C279.615,60.13,286.134,57.694,291.303,56.892z
		 M277.527,94.852c1.059-0.634,2.035-1.378,2.906-2.231c4.529,5.104,11.946,7.805,17.125,9.143
		C292.178,102.285,283.974,101.646,277.527,94.852z M297.806,139.008c-1.304,1.714-2.26,3.689-2.775,5.815
		c-10.963-1.704-10.601-1.909-11.323-1.63c-0.48,0.186-0.853,0.607-0.942,1.152c-0.001,0.007,0,0.014-0.001,0.021
		c-0.12,0.81,0.43,1.569,1.24,1.701c0.337,0.055,10.964,1.786,10.6,1.727c-0.091,2.036,0.193,3.872,0.825,5.745
		c-12.639,1.784-21.385-4.427-22.939-9.472c-0.195-0.634-0.274-1.234-0.189-1.755c0.016-0.101,0.057-0.205,0.086-0.308
		c0.377-1.352,1.723-2.606,2.881-3.389C280.095,135.353,288.708,134.462,297.806,139.008z M304.418,110.477
		c4.146-0.639,13.309,7.974,11.022,23.222c-1.982-0.696-4.128-0.992-6.33-0.828l-1.671-10.862c-0.127-0.82-0.89-1.384-1.711-1.254
		c-0.818,0.126-1.38,0.892-1.254,1.71l1.677,10.906c-1.945,0.528-3.721,1.41-5.266,2.569
		C294.215,122.278,300.134,111.136,304.418,110.477z M344.619,131.183c1.972,3.908-3.738,15.171-18.686,17.661
		c0.048-2.183-0.284-4.23-1.267-6.52l9.93-5.005c0.74-0.373,1.037-1.275,0.665-2.015c-0.373-0.74-1.279-1.037-2.015-0.664
		l-10.024,5.052c-1.063-1.559-2.387-2.909-3.911-3.987C330.395,124.99,342.715,127.405,344.619,131.183z M337.349,175.815
		c-3.008,2.978-15.473,1.354-22.574-12.317c2.237-0.671,4.189-1.741,5.98-3.36l7.672,7.739c0.293,0.296,0.68,0.444,1.065,0.444
		c1.319,0,2.008-1.604,1.065-2.556l-7.776-7.844c1.081-1.435,1.906-3.055,2.447-4.788c10.491,5.567,12.74,13.597,13.188,16.052
		C338.941,172.05,338.522,174.652,337.349,175.815z M357.826,192.372c3.104-1.198,5.428-1.656,7.067-1.656
		c1.487,0,2.413,0.377,2.846,0.92c0.912,1.142,0.623,4.238-2.92,9.502c-3.412,5.069-8.862,10.71-15.347,15.882v0
		c-5.069,4.044-9.525,7.374-13.417,10.025c-0.652-1.982-1.565-3.845-2.706-5.546l22.668-18.083c0.647-0.517,0.754-1.46,0.237-2.108
		c-0.518-0.647-1.461-0.752-2.108-0.237l-22.633,18.054c-1.527-1.732-3.308-3.233-5.292-4.436
		c3.432-3.237,7.653-6.853,12.709-10.886C345.414,198.632,352.124,194.572,357.826,192.372z M59.697,180.206
		c7.63-2.953,13.38-8.17,15.8-14.516c2.812,13.398,2.153,23.155,2.086,24.023c-0.909,1.855-1.7,3.735-2.347,5.623
		C73.326,189.623,68.217,183.738,59.697,180.206z M314.482,253.827c-11.614,0-20.953-10.18-19.559-22.022
		c1.178-10.012,9.746-17.392,19.559-17.392c10.016,0,18.481,7.635,19.578,17.518C335.364,243.653,326.123,253.827,314.482,253.827z
		 M259.28,287.438c-1.58,1.843-3.945,2.956-6.471,2.895c-4.404-0.105-7.863-3.631-8.058-7.88c-0.222-4.767,3.628-8.645,8.253-8.645
		C259.951,273.809,263.905,282.037,259.28,287.438z M234.647,263.864c-2.512,0.116-5.337,1.022-6.481,3.261
		c-5.003,0.553-10.23,1.538-15.058,2.785c0.001-0.002,0.003-0.005,0.004-0.007c1.461-2.58,2.965-5.764,4.207-9.504
		c5.728,1.603,12.881,2.033,17.673-1.448c4.766-3.463,6.59-10.412,6.836-16.359c2.797-0.018,5.371-0.247,7.667-0.592
		c-2.479,1.972-5.054,4.843-4.358,7.936c0.001,0.005,0.001,0.009,0.002,0.014c0.182,0.798,0.558,1.508,1.1,2.138
		c-1.901,3.87-3.765,8.283-5.146,12.902C238.977,264.16,236.795,263.765,234.647,263.864z M145.783,269.911
		c-6.068-1.568-12.733-2.72-18.988-3.136c1.899-2.756,2.793-4.89,2.818-4.953c0.042-0.103,0.049-0.209,0.067-0.315
		c0.013-0.074,0.039-0.147,0.04-0.221c3.872,0.689,8.065,0.174,11.852-0.886c1.242,3.74,2.746,6.923,4.206,9.503
		C145.78,269.906,145.782,269.909,145.783,269.911z M112.686,268.517c-2.316,0.807-4.842,1.342-7.284,1.259
		c-0.219-0.868-0.463-1.618-0.841-2.474c4.982-3.904,12.996-4.925,19.293-4.901C122.013,263.748,116.577,267.162,112.686,268.517z
		 M90.213,286.291c-6.974,0-12.682-5.694-12.682-12.682c0-5.681,3.869-10.813,9.531-12.269c7.649-1.967,15.11,3.482,15.777,11.165
		C103.491,280.029,97.49,286.291,90.213,286.291z M111.325,301.842c-5.062-3.651-10.828-9.076-12.648-15.052
		c0.673-0.434,1.285-0.871,2.165-1.684C106.016,288.674,109.406,295.88,111.325,301.842z M56.891,262.841
		c6.166-0.025,13.908,0.946,18.904,4.607c-0.267,0.621-0.7,1.933-0.886,2.777C68.732,270.254,61.893,266.503,56.891,262.841z
		 M93.949,240.237c2.974,4.429,5.856,11.274,3.59,19.517c-0.942-0.5-1.941-0.9-2.983-1.202
		C96.506,252.512,95.352,245.371,93.949,240.237z M100.776,259.07c0.843-3.991,0.633-7.681-0.159-10.962
		c1.483,2.6,3.043,5.601,4.557,8.966C103.713,257.569,102.241,258.227,100.776,259.07z M119.89,259.502
		c-5.733,0.374-12.183,1.721-16.815,5.16c-0.577-0.827-1.231-1.595-1.952-2.295C106.767,258.648,113.234,257.834,119.89,259.502z
		 M121.807,256.99c-2.158-0.618-4.691-1.107-7.436-1.211c-2.138-4.852-4.817-9.794-7.656-14.251
		c0.003,0.001,0.006,0.001,0.009,0.002c2.906,0.591,6.398,1.039,10.339,1.064C117.271,247.587,118.55,253.186,121.807,256.99z
		 M129.704,258.225c-1.568-0.337-2.941-0.9-4.04-1.699c-9.397-6.828-9.94-38.806,21.809-61.088c1.06,2.611,2.43,5.062,4.065,7.31
		c-7.216,5.312-12.242,11.186-12.54,13.647c-0.156,1.282,0.724,2.189,1.94,2.189c0.964,0,2.348-0.661,3.2-1.117
		c4.042-2.158,8.684-6.324,11.856-9.695c0.11,0.102,0.217,0.207,0.328,0.307c0.119,0.107,0.243,0.209,0.363,0.314
		c-4.645,5.46-10.334,13.027-13.74,19.357c-0.636,1.181-2.275,4.347-2.12,5.674c0.05,0.428,0.294,0.955,0.709,1.257
		c0.243,0.176,0.558,0.271,0.85,0.299c0.1,0.01,0.173,0.065,0.564-0.013c1.311-0.262,3.817-2.802,4.741-3.769
		c4.927-5.153,10.362-12.871,14.158-19.04c0.046,0.027,0.758,0.437,0.805,0.463c-2.224,4.056-4.816,9.892-5.584,14.436
		c-0.24,1.418-0.264,2.535-0.042,3.216c0.2,0.615,0.623,1.04,1.06,1.23h0c0.53,0.232,1.097,0.182,1.623-0.062
		c2.248-1.044,6.278-7.632,9.099-16.128c2.616,0.85,5.368,1.393,8.214,1.591c-6.608,21.535-20.194,34.749-33.452,39.696
		C139.374,258.167,134.123,259.174,129.704,258.225z M92.057,158.592c-0.332-3.233,0.422-5.644,2.637-8.116
		c2.723-3.038,6.878-5.142,10.727-6.397c2.771-0.904,5.665-1.439,8.599-1.727c15.597-1.53,30.685,4.286,43.256,13.741
		c-2.141,1.801-4.06,3.857-5.711,6.121c-7.281-5.222-14.422-8.193-16.854-7.709c-1.311,0.257-1.843,1.413-1.483,2.522
		c0.221,0.681,0.897,1.57,1.923,2.576c3.301,3.228,8.79,6.409,13.001,8.397c-0.027,0.058-0.365,0.803-0.382,0.844
		c-7.084-2.919-18.66-6.865-25.595-7.507c-1.476-0.136-2.545-0.086-3.096,0.167c-0.961,0.442-1.349,1.537-0.811,2.497
		c0.908,1.616,6.332,3.972,8.036,4.687c5.918,2.484,13.075,4.686,19.489,6.239c-0.114,0.51-0.04,0.119-0.195,0.906
		c-4.544-0.861-10.87-1.521-15.446-0.847c-1.422,0.211-2.49,0.533-3.07,0.954c-0.951,0.691-1.188,1.936-0.283,2.912
		c1.686,1.815,9.196,3.609,18.147,3.668c0.002,2.863,0.359,5.644,1.021,8.305c-15.633,0.253-31.283-3.848-43.055-14.299
		c-2.346-2.082-3.997-3.952-5.028-5.25C95.084,167.752,92.517,163.071,92.057,158.592z M43.527,192.495
		c-12.231,1.982-19.749-12.976-10.923-21.58c3.78-3.691,9.386-4.636,14.149-2.447c4.99,2.292,8.106,7.624,7.236,13.424
		C53.154,187.463,48.81,191.638,43.527,192.495z M45.379,127.989c-0.892-5.797,4.487-10.788,10.285-9.242
		c4.843,1.291,7.363,6.495,5.561,11.027C58.116,137.587,46.654,136.268,45.379,127.989z M77.914,121.795
		c2.495-0.075,5.506-1.926,8.854-5.494c3.938-4.195,7.947-10.33,11.292-17.275c2.201-4.571,3.96-8.555,5.353-12.044
		c1.431,3.488,3.194,7.4,5.3,11.782c-3.648,4.846-6.232,11.127-7.436,18.027c-0.584,0.95-9.005,14.341-25.677,26.11
		c0.132-4.351-2.413-9.917-8.485-13.96C71.763,127.683,75.59,125.17,77.914,121.795z M86.091,65.897
		c-0.521-4.426,0.644-8.638,3.013-12.033c6.441-9.232,19.696-10.066,27.25-1.78c11.021,12.093,0.811,31.144-15.155,29.083
		c-3.936-0.508-7.43-2.347-9.983-4.849C90.514,75.63,86.578,70.028,86.091,65.897z M203.584,92
		c-2.699,1.229-5.788,2.921-8.992,5.218c-3.701-4.674-9.26-9.218-15.147-9.218c-5.889,0-11.441,4.538-15.147,9.218
		c-3.204-2.297-6.293-3.988-8.992-5.218c-0.002-0.001-0.005-0.002-0.007-0.003c8.238-3.246,17.172-7.923,24.146-13.553
		c6.973,5.63,15.905,10.306,24.145,13.553C203.589,91.998,203.586,91.999,203.584,92z M197.705,153.248
		c-2.352-1.474-4.893-2.671-7.579-3.547c2.712-8.533,3.325-16.232,2.119-18.397c-0.624-1.123-1.864-1.35-2.856-0.631
		c-0.781,0.568-1.509,1.912-1.932,2.783c-2.008,4.136-3.311,10.246-3.892,14.799c-0.464-0.055-0.062-0.021-0.921-0.101
		c0.573-7.47,0.789-19.75-0.772-26.666c-0.326-1.443-0.703-2.442-1.114-2.887c-0.697-0.755-1.92-0.765-2.625,0
		c-0.652,0.707-1.076,2.648-1.261,3.593c-1.405,7.165-1.183,18.679-0.625,25.961c-0.851,0.079-0.456,0.045-0.921,0.101
		c-0.459-3.598-1.179-6.97-2.026-9.817c-0.587-1.973-2.138-6.558-3.798-7.765c-0.98-0.712-2.226-0.504-2.856,0.631
		c-1.205,2.164-0.593,9.863,2.119,18.397c-2.686,0.877-5.226,2.074-7.578,3.547C148.565,116.477,167.864,91,179.446,91
		c5.563,0,11.104,5.447,14.271,10.074c1.403,2.05,2.677,4.45,3.7,6.792C203.68,122.204,202.821,138.342,197.705,153.248z
		 M266.467,154.225c1.752,5.391-1.877,12.545-5.46,17.053c-1.031,1.298-2.685,3.169-5.028,5.249
		c-11.737,10.417-27.295,14.554-43.055,14.298c0.662-2.661,1.02-5.442,1.021-8.305c8.95-0.059,16.461-1.853,18.147-3.668
		c0.88-0.948,0.701-2.196-0.283-2.912c-0.784-0.569-2.295-0.846-3.256-0.979c-4.537-0.626-10.735,0.015-15.26,0.872
		c-0.146-0.747-0.099-0.477-0.195-0.906c7.067-1.712,18.92-5.289,25.123-8.975c1.272-0.756,2.106-1.424,2.403-1.952
		c0.21-0.376,0.325-0.942,0.165-1.433c0,0,0-0.001,0-0.001c-0.158-0.485-0.578-0.879-0.977-1.062
		c-0.874-0.402-2.853-0.206-3.806-0.091c-6.996,0.847-17.696,4.469-24.885,7.43c-0.019-0.043-0.348-0.77-0.382-0.844
		c4.164-1.965,9.72-5.174,13.001-8.397c1.026-1.006,1.701-1.894,1.922-2.575c0.365-1.123-0.182-2.267-1.482-2.522
		c-2.433-0.478-9.573,2.487-16.854,7.709c-1.651-2.264-3.57-4.32-5.711-6.121C232.399,132.939,262.826,143.02,266.467,154.225z
		 M258.057,131.576c0-0.002,0.001-0.005,0.001-0.007c3.303,4.007,7.198,8.129,11.252,11.743c0.191,2.323,1.584,4.902,3.956,7.164
		c1.203,1.147,2.57,2.131,4.048,2.976c-2.449,7.508-3.849,16.138-4.333,24.044c-0.002-0.002-0.004-0.004-0.005-0.006
		c-2.003-2.187-4.566-4.602-7.741-6.939c3.307-4.972,5.903-11.661,4.086-17.254c-1.821-5.606-7.89-9.494-13.447-11.557
		C257.068,137.983,257.722,134.523,258.057,131.576z M301.495,139.358c2.44-2.35,5.586-3.545,8.781-3.545
		c7.594,0,13.91,6.886,12.464,14.918c-0.95,5.275-5.182,9.472-10.543,10.299c-6.217,0.954-12.002-2.765-13.926-8.45
		C296.866,148.425,298.01,142.712,301.495,139.358z M71.864,145.209c-1.85,1.835-9.814,0.667-14.522-7.872
		c3.141-1.116,5.612-3.566,6.776-6.72C72.61,135.396,73.716,143.374,71.864,145.209z M131.096,110.017
		c0.803,5.545-0.169,8.118-1.246,8.636c-1.435,0.691-4.338-0.928-7.797-4.685c-3.844-4.176-7.222-9.701-9.792-14.811
		c-2.098-4.172-4.847-10.214-6.705-14.938c1.766-0.181,3.456-0.609,5.061-1.212c4.739,9.839,5.884,12.215,11.212,23.275
		c0.259,0.537,0.794,0.85,1.353,0.85c1.092,0,1.834-1.149,1.351-2.151c-3.52-7.307-7.618-15.815-11.183-23.216
		c1.727-0.958,3.301-2.156,4.678-3.553c1.756,2.997,3.627,6.501,5.621,10.53C126.894,95.305,130.037,102.714,131.096,110.017z
		 M275.311,200.454c-0.647-0.516-1.592-0.411-2.108,0.238c-0.517,0.647-0.41,1.591,0.237,2.108
		c3.206,2.556,19.197,15.308,22.635,18.049c-1.34,1.853-2.406,3.915-3.142,6.128c-2.807-1.875-6.018-4.189-9.668-6.996
		c-5.309-4.083-9.757-7.735-14.264-12.715c-1.577-1.742-3.551-4.172-4.861-6.119c-3.544-5.263-3.833-8.359-2.922-9.502
		c0.576-0.721,1.924-0.92,2.847-0.92c5.119,0,12.732,4.09,17.084,6.798c2.866,1.783,5.735,3.779,8.88,6.287
		c5.28,4.21,9.45,7.798,12.742,10.865c-1.766,1.067-3.372,2.372-4.782,3.863C289.475,211.748,283.418,206.918,275.311,200.454z
		 M241.839,239.588c-0.065-1.737-0.3-4.403-1.018-7.72c14.911-2.791,24.873-12.421,27.438-21c3.769,3.935,7.198,6.818,11.133,9.907
		C274.409,228.797,258.768,239.481,241.839,239.588z M203.007,203.376c-9.972,11.269-26.585,13.975-39.627,6.205
		c-12.912-7.674-18.773-23.543-13.523-37.889C154.277,159.617,165.93,151,179.446,151c21.207,0,36.57,20.678,29.945,41.259
		C208.36,195.411,205.807,200.211,203.007,203.376z M179.446,219.178c3.829,11.78,9.342,20.3,14.961,26.398
		c-4.307,4.897-9.99,8.064-14.961,8.064s-10.653-3.167-14.961-8.064C170.104,239.478,175.617,230.958,179.446,219.178z
		 M110.237,101.824c2.689,5.178,5.414,9.29,8.019,12.417c-4.391,7.334-5.827,16.708-4.73,25.144
		c-3.375,0.342-5.983,0.942-7.655,1.417C101.249,126.263,103.852,111.354,110.237,101.824z M137.631,124.946
		c4.5-3.27,11.259-3.525,16.843-2.27c-0.961,8.236-0.413,18.37,3.413,30.151c-10.022-7.28-19.49-10.932-27.62-12.563
		C130.873,133.771,133.609,127.868,137.631,124.946z M204.417,122.676c5.566-1.25,12.35-0.995,16.844,2.27
		c4.021,2.922,6.757,8.824,7.363,15.317c-8.13,1.631-17.598,5.283-27.62,12.563C204.831,141.046,205.379,130.912,204.417,122.676z
		 M247.104,204.484c-1.536,4.727-6.304,9.153-12.292,11.736c-4.061-7.224-10.456-15.096-20.467-22.375
		c12.384-0.002,22.179-2.623,29.714-6.082C247.384,193.373,248.64,199.756,247.104,204.484z M279.504,193.061
		c-4.138-2.309-10.061-5.077-14.811-5.322c-1.728-3.212-3.915-6.294-6.576-9.107c2.528-2.26,4.291-4.28,5.364-5.646
		C270.625,178.245,276.065,185.054,279.504,193.061z M144.547,193.845c-10.011,7.279-16.406,15.15-20.467,22.375
		c-5.988-2.583-10.756-7.009-12.292-11.736c-1.536-4.727-0.28-11.11,3.046-16.72C122.368,191.222,132.162,193.844,144.547,193.845z
		 M281.795,222.638c2.892,2.216,5.533,4.138,7.947,5.795c-5.282,0.866-12.343,2.355-16.284,3.317
		C276.863,229.04,279.706,225.951,281.795,222.638z M292.655,182.693c-3.893-2.006-5.892-14.471,4.733-25.269
		c1.415,2.038,3.06,3.475,4.936,4.584l-4.866,9.446c-0.38,0.737-0.091,1.641,0.646,2.021c0.735,0.379,1.64,0.092,2.02-0.646
		l4.919-9.549c1.768,0.628,3.541,0.922,5.434,0.893C307.817,179.316,296.415,184.627,292.655,182.693z M291.282,185.36
		c2.832,1.459,6.634,0.451,9.435-1.06c1.188-0.641,2.307-1.418,3.363-2.296c-0.693,4.474-1.051,9.33-1.051,14.099
		c0,5.864,0.171,10.855,0.478,15.131c-3.258-2.946-7.109-6.185-11.607-9.771c-2.704-2.156-5.451-4.117-8.16-5.854
		c-0.664-1.979-1.479-3.951-2.431-5.895c-0.081-1.038-1.046-15.318,4.478-33.299c2.838,0.477,5.433,0.525,8.199,0.287
		C283.111,169.03,285.816,182.545,291.282,185.36z M162.525,99.641c-0.968,1.443-2.345,3.738-3.713,6.842
		c-7.983-3.791-17.661-5.245-26.091-3.087c-1.095-3.951-2.693-8.211-4.7-12.494C139.003,89.156,151.735,91.906,162.525,99.641z
		 M70.455,148.865c0.639,1.617,1.224,3.216,1.757,4.791c-5.804-2.554-16.445-0.842-24.908,9.06
		c-0.199-3.62-0.936-7.023-2.156-10.065c4.194-1.302,8.564-5.458,10.49-12.332C59.981,146.966,66.141,149.392,70.455,148.865z
		 M57.002,178c-0.299-2.348-1.11-4.539-2.335-6.449l8.892-6.3c0.676-0.479,0.835-1.416,0.357-2.091
		c-0.479-0.677-1.417-0.837-2.091-0.357l-9.012,6.385c-1.239-1.301-2.702-2.381-4.323-3.198
		c9.357-12.248,21.931-11.671,24.361-8.241C75.381,161.321,71.417,173.309,57.002,178z M85.911,177.496
		c-0.541-8.838-2.229-18.779-5.428-27.151c7.514-4.895,14.723-11.949,20.351-18.775c0,0.003,0.001,0.006,0.001,0.008
		c0.335,2.946,0.99,6.406,2.184,10.163c-3.831,1.422-7.691,3.587-10.435,6.592c-2.885,3.159-3.972,6.493-3.494,10.753
		c0.455,4.048,2.307,8.068,4.568,11.467c-3.174,2.337-5.737,4.752-7.74,6.938C85.914,177.492,85.912,177.494,85.911,177.496z
		 M181.87,216.905c2.846-0.199,5.597-0.741,8.213-1.591c2.822,8.496,6.852,15.084,9.1,16.128c0.584,0.271,1.144,0.27,1.622,0.062
		c0.001,0,0.001,0,0.001,0c0.437-0.191,0.859-0.611,1.06-1.23c0.299-0.922,0.094-2.439-0.074-3.39
		c-0.805-4.51-3.318-10.187-5.552-14.262c0.047-0.026,0.759-0.436,0.805-0.464c3.812,6.193,10.901,16.408,16.339,21.15
		c1.089,0.95,1.976,1.542,2.561,1.659c0.378,0.076,0.495,0.021,0.618,0.005c0.618-0.079,1.058-0.376,1.329-0.954
		c0.082-0.171,0.152-0.388,0.176-0.594c0.108-0.923-0.7-2.804-1.091-3.646c-3.065-6.607-10.021-15.805-14.768-21.385
		c0.12-0.105,0.243-0.206,0.361-0.313c0.111-0.101,0.218-0.206,0.328-0.308c3.212,3.414,7.95,7.657,12.013,9.779
		c1.274,0.665,2.327,1.033,3.044,1.033c0.645,0,1.179-0.269,1.497-0.627l0.001,0c0.253-0.286,0.536-0.79,0.442-1.562
		c-0.298-2.461-5.324-8.335-12.54-13.647c1.636-2.248,3.005-4.7,4.066-7.311c10.101,7.089,16.5,14.786,20.544,21.838
		c4.09,7.134,6.906,15.802,6.898,23.754c-0.005,5.382-1.389,12.412-5.633,15.496c-3.917,2.847-10.336,2.303-15.043,1.001
		c-4.228-1.169-8.24-3.192-11.969-5.697C194.13,243.706,186.209,231.046,181.87,216.905z M266.053,69.22
		c4.277-1.195,8.658-0.023,11.731,2.648c10.891,9.447-0.05,26.609-13.104,21.307C253.7,88.711,254.23,72.522,266.053,69.22z
		 M234.574,84.464c5.687-2.42,13.182-4.527,19.199-3.106c-0.004,0.769,0.099,2.007,0.266,2.902
		C248.36,86.686,240.614,85.891,234.574,84.464z M299.883,99.229c-6.067-1.387-13.491-4.137-17.499-8.94
		c0.545-0.798,0.962-1.569,1.34-2.405C289.85,89.155,295.784,94.464,299.883,99.229z M259.175,93.261
		c0.88,0.761,1.838,1.417,2.853,1.963c-3.387,5.93-3.625,13.812-3.284,19.096C256.609,109.357,254.748,101.422,259.175,93.261z
		 M261.866,115.57c-0.547-6.153-0.229-13.905,2.952-19.177c1.168,0.363,2.13,0.516,2.869,0.601
		C268.241,103.157,265.069,110.312,261.866,115.57z M296.093,58.016c-3.252,5.437-8.241,11.721-14.135,13.973
		c-0.561-0.741-1.064-1.318-1.737-1.952C283.294,64.499,290.274,60.448,296.093,58.016z M263.358,66.978
		c-0.139,0.058-1.182,0.566-1.225,0.589c-4.219-4.639-5.895-12.417-6.409-18.673c4.131,4.734,8.53,11.372,8.91,17.62
		C264.585,66.53,263.489,66.923,263.358,66.978z M255.866,93.195c-1.778,3.808-2.391,7.557-2.321,11.018
		c-2.043-4.071-4.677-7.549-7.789-10.153C249.079,94.461,252.312,94.269,255.866,93.195z M141.107,87.853
		c-5.013-0.713-9.94-0.641-14.456,0.198c-1.839-3.739-3.549-6.978-5.141-9.77c3.695,1.083,7.954,2.174,12.807,3.281
		c5.957,1.359,12.81,2.249,18.844,2.003C146.389,86.529,141.683,87.714,141.107,87.853z M90.213,238.298
		c1.952,5.94,3.445,13.77,1.356,19.698c-0.05-0.004-1.216-0.069-1.356-0.069c-0.141,0-1.307,0.064-1.356,0.069
		C86.772,252.08,88.255,244.256,90.213,238.298z M69.943,302.115c1.891-5.885,5.197-12.902,10.179-16.521
		c0.696,0.587,1.749,1.298,2.407,1.67C80.647,293.149,74.968,298.491,69.943,302.115z M260.056,273.308
		c-2.578-2.081-5.911-2.944-9.263-2.266c-0.286-7.582,3.331-11.505,4.539-12.588c1.341-1.201,2.626-1.695,3.463-1.695
		C261.36,256.759,265.156,264.354,260.056,273.308z M254.207,252.514c-1.375-0.248-2.911-0.634-4.159-1.262
		c-2.187-1.1-2.365-2.302-1.644-3.689c1.656-3.188,7.509-6.316,10.759-7.817c5.124-2.368,10.915-4.16,16.375-5.406
		c6.585-1.503,11.986-2.526,16.437-3.187c-0.266,2.031-0.276,3.994,0.027,6.149l-28.265,6.453c-0.808,0.185-1.312,0.989-1.128,1.796
		c0.182,0.801,0.979,1.313,1.796,1.128l28.214-6.441c0.631,2.251,1.599,4.361,2.85,6.273c-4.287,1.367-9.592,2.809-16.17,4.31
		C271.794,252.536,261.761,253.878,254.207,252.514z M322.384,212.834c-1.895-0.706-3.909-1.161-6.002-1.335v-28.995
		c0-0.829-0.672-1.5-1.5-1.5s-1.5,0.671-1.5,1.5v28.937c-2.362,0.113-4.63,0.589-6.751,1.373c-0.378-4.481-0.602-9.97-0.602-16.711
		c0-7.18,0.731-13.287,1.829-18.091c2.375-3.169,4.145-7.065,5.168-11.424c0.013-0.01,0.026-0.022,0.039-0.032
		c2.029,3.422,4.506,6.326,7.29,8.55c1.505,5.138,2.58,12.282,2.58,20.998C322.935,202.854,322.73,208.349,322.384,212.834z
		 M270.702,97.047c0.917-0.072,1.833-0.234,2.744-0.474c0.323,8.114-3.592,13.947-7.329,17.631
		C268.569,109.595,271.142,103.164,270.702,97.047z M284.703,85.023c0.213-0.895,0.347-1.8,0.4-2.71
		c7.494,2.113,11.787,7.282,14.198,11.84C295.635,90.475,290.451,86.344,284.703,85.023z M284.724,77.895
		c-0.412-1.765-0.845-2.621-1.178-3.307c6.036-2.529,10.794-8.337,13.755-12.83C296.002,66.981,292.768,74.057,284.724,77.895z
		 M253.036,52.133c0.704,5.273,2.417,12.297,6.559,17.102c-0.838,0.676-1.606,1.43-2.285,2.263
		C252.025,64.789,252.019,57.367,253.036,52.133z M254.871,87.149c0.049,0.124,0.085,0.251,0.137,0.375
		c0.356,0.844,0.785,1.635,1.264,2.381c-8.063,2.975-15.161,0.645-19.825-1.958C242.402,89.083,249.252,89.416,254.871,87.149z
		 M242.693,95.448c9.811,7.128,16.443,26.118,10.327,45.354c-1.673-0.475-4.28-1.075-7.655-1.417
		c1.898-14.598-3.83-27.041-11.107-32.328c-7.32-5.317-20.934-6.863-34.178-0.574c-1.368-3.104-2.745-5.399-3.713-6.842
		C213.189,87.582,233.228,88.572,242.693,95.448z M88.837,78.179c1.217,1.24,2.598,2.312,4.095,3.213l-11.21,23.282
		c-0.484,1.005,0.26,2.151,1.351,2.151c0.558,0,1.094-0.313,1.353-0.85l11.177-23.214c1.786,0.743,3.696,1.243,5.693,1.452
		c-1.506,3.907-3.478,8.398-5.939,13.511c-3.215,6.678-7.042,12.546-10.775,16.523c-1.995,2.126-3.658,3.368-4.949,4.003
		c1.048-3.683-0.327-6.238-3.938-7.513c0.597-4.859,2.537-11.615,6.306-19.443C84.578,85.943,86.839,81.644,88.837,78.179z
		 M76.781,115.021L76.781,115.021c1.135,2.251-2.256,9.516-11.983,11.381c-0.11-3.518-1.755-6.523-4.3-8.519
		C67.777,111.173,75.66,112.8,76.781,115.021z M44.634,133.616c2.002,2.585,5.058,4.243,8.484,4.366
		c-1.405,6.993-5.783,11.07-9.252,11.924c-1.125-2.079-2.507-3.928-4.122-5.491C39.816,142.002,40.646,137.873,44.634,133.616z
		 M85.871,258.552c-1.042,0.301-2.042,0.702-2.984,1.202c-2.266-8.243,0.616-15.088,3.59-19.517
		C85.075,245.37,83.92,252.512,85.871,258.552z M77.248,264.801c-5.346-3.738-12.739-4.753-18.029-4.939
		c5.143-1.542,12.756-2.33,20.088,2.503C78.542,263.106,77.849,263.919,77.248,264.801z M76.151,280.506
		c0.514,1.044,1.132,2.028,1.856,2.926c-5.427,4.145-8.712,11.317-10.453,16.318C67.516,294.344,68.889,286.304,76.151,280.506z
		 M112.759,296.935c-1.946-4.814-5.116-10.634-9.904-14.086c0.539-0.736,1.014-1.518,1.42-2.343
		C110.362,285.365,112.309,291.797,112.759,296.935z M144.432,259.48c1.632-0.599,4.094-1.645,7.026-3.353
		c7.046,12.925,18.99,19.626,27.988,19.626c9.094,0,20.996-6.799,27.988-19.626c2.932,1.707,5.394,2.754,7.026,3.353
		c-6.351,19.136-22.87,30.622-35.014,30.622C168.844,290.103,150.791,278.637,144.432,259.48z M263.494,273.192
		c3.421-7.222,2.244-13.784-0.529-17.181c5.345-0.154,11.296-0.961,17.002-2.264c5.718-1.305,10.546-2.583,14.648-3.835
		c-2.147,3.832-4.448,8.308-6.945,13.492c-2.585,5.369-4.59,10.734-5.893,15.64C280.633,274.924,273.378,270.386,263.494,273.192z"
		/>
	<path fill="#1A1A1A" d="M316.011,217.893c-5.707-0.534-11.32,1.995-14.722,6.686c-6.975,9.617-1.576,23.034,9.76,25.474
		c10.326,2.224,19.89-5.81,19.727-16.163C330.657,225.428,324.087,218.649,316.011,217.893z"/>
	<path fill="#1A1A1A" d="M101.377,76.66c10.618,1.709,18.643-9.569,13.491-19.02c-2.9-5.319-9.193-8.02-15.125-6.253
		c-9.547,2.844-12.558,15.05-5.138,21.958C95.013,73.723,98.77,76.24,101.377,76.66z"/>
	<path fill="#1A1A1A" d="M302.177,152.929c3.788,6.923,13.942,6.173,16.726-1.177c2.489-6.587-3.053-13.454-10.04-12.381
		c-4.978,0.766-8.501,5.455-7.72,10.529C301.222,150.408,301.644,151.953,302.177,152.929z"/>
	<path fill="#1A1A1A" d="M42.634,170.835c-2.947-0.371-5.655,0.627-7.621,2.548c-6.992,6.828,0.145,18.583,9.498,15.314
		c3.721-1.3,6.262-4.822,6.172-8.915C50.61,176.376,46.927,171.375,42.634,170.835z"/>
	<path fill="#1A1A1A" d="M94.282,265.334c-7.121-3.515-15.154,3.118-12.935,10.823c1.134,3.94,4.751,6.684,8.867,6.684
		c7.97,0,12.247-9.535,6.786-15.471C96.941,267.307,95.273,265.823,94.282,265.334z"/>
	<path fill="#1A1A1A" d="M261.556,86.194c0.523,0.868,1.303,1.771,2.266,2.514c7.47,5.757,17.834-2.118,14.14-10.872v0
		c-1.138-2.695-3.449-4.593-6.109-5.312C263.83,70.352,257.285,79.106,261.556,86.194z"/>
</g>
</svg>
